<svg width="53" height="60" viewBox="0 0 53 60" fill="none" xmlns="http://www.w3.org/2000/svg">
<g clip-path="url(#clip0_2033_7046)">
<path fill-rule="evenodd" clip-rule="evenodd" d="M46.6 0C50 0 52.75 2.75 52.75 6.175V60L46.3 54.3L42.675 50.95L38.825 47.375L40.425 52.925H6.4C3 52.925 0.25 50.175 0.25 46.75V6.175C0.25 2.75 3 0 6.4 0H46.6ZM35.025 39.175C41.65 38.975 44.2 34.625 44.2 34.625C44.2 24.975 39.875 17.125 39.875 17.125C35.55 13.875 31.45 13.975 31.45 13.975L31.025 14.45C36.125 16 38.5 18.25 38.5 18.25C35.375 16.55 32.325 15.7 29.475 15.375C27.325 15.125 25.25 15.2 23.425 15.425L22.925 15.475C21.875 15.575 19.325 15.95 16.125 17.375C15.025 17.875 14.35 18.25 14.35 18.25C14.35 18.25 16.85 15.875 22.25 14.325L21.95 13.975C21.95 13.975 17.85 13.875 13.525 17.125C13.525 17.125 9.2 24.95 9.2 34.625C9.2 34.625 11.725 38.975 18.35 39.175C18.35 39.175 19.45 37.825 20.35 36.675C16.55 35.525 15.1 33.125 15.1 33.125L15.95 33.625L16.075 33.725L16.2 33.8H16.225L16.35 33.875C17.1 34.3 17.85 34.625 18.55 34.9C19.775 35.375 21.25 35.85 22.95 36.2C25.2 36.625 27.85 36.775 30.725 36.225C32.125 35.975 33.575 35.575 35.075 34.925C36.125 34.525 37.3 33.975 38.525 33.15C38.525 33.15 37.025 35.6 33.1 36.725C34 37.875 35.075 39.15 35.075 39.15L35.025 39.175ZM21.075 25.175C19.375 25.175 18.025 26.675 18.025 28.5C18.025 30.325 19.4 31.825 21.075 31.825C22.75 31.825 24.125 30.325 24.125 28.5C24.15 26.675 22.775 25.175 21.075 25.175ZM32.025 25.175C30.325 25.175 28.975 26.675 28.975 28.5C28.975 30.325 30.35 31.825 32.025 31.825C33.7 31.825 35.075 30.325 35.075 28.5C35.075 26.675 33.725 25.175 32.025 25.175Z" fill="#C94B32"/>
</g>
<defs>
<clipPath id="clip0_2033_7046">
<rect width="52.5" height="60" fill="white" transform="translate(0.25)"/>
</clipPath>
</defs>
</svg>
