<svg width="62" height="61" viewBox="0 0 62 61" fill="none" xmlns="http://www.w3.org/2000/svg">
<path d="M52.608 24.2774C52.1227 22.6503 51.4948 21.0804 50.6955 19.5961L54.4063 11.775C53.0362 10.0623 51.4662 8.49239 49.725 7.09372L41.9039 10.8045C40.4481 10.0052 38.8782 9.34872 37.2226 8.89201L34.3111 0.69981C33.2264 0.585633 32.1132 0.5 31 0.5C29.8868 0.5 28.7735 0.557088 27.6889 0.69981L24.7774 8.89201C23.1503 9.37726 21.5804 10.0052 20.1246 10.8045L12.275 7.09372C10.5623 8.46384 8.99239 10.0338 7.59372 11.775L11.3045 19.5961C10.5052 21.0519 9.84872 22.6218 9.39201 24.2774L1.19981 27.1889C1.08563 28.2735 1 29.3868 1 30.5C1 31.6132 1.05709 32.7264 1.19981 33.8111L9.39201 36.7226C9.87726 38.3497 10.5052 39.9196 11.3045 41.4039L7.59372 49.225C8.96384 50.9377 10.5338 52.5076 12.275 53.9063L20.0961 50.1955C21.5519 50.9948 23.1218 51.6513 24.7774 52.108L27.6889 60.3002C28.7735 60.4144 29.8582 60.5 31 60.5C32.1418 60.5 33.2264 60.4429 34.3111 60.3002L37.2226 52.108C38.8497 51.6227 40.4196 50.9948 41.9039 50.1955L49.725 53.9063C51.4377 52.5362 53.0076 50.9662 54.4063 49.225L50.6955 41.4039C51.4948 39.9481 52.1513 38.3782 52.608 36.7226L60.8002 33.8111C60.9144 32.7264 61 31.6418 61 30.5C61 29.3582 60.9429 28.2735 60.8002 27.1889L52.608 24.2774ZM21.0095 30.8711C21.0095 36.4087 25.491 40.8616 31 40.8616C36.509 40.8616 40.9905 36.3801 40.9905 30.8711C40.9905 25.362 36.509 20.8806 31 20.8806C25.491 20.8806 21.0095 25.362 21.0095 30.8711Z" stroke="#C94B32" stroke-linecap="round" stroke-linejoin="round"/>
</svg>
