<svg width="99" height="61" viewBox="0 0 99 61" fill="none" xmlns="http://www.w3.org/2000/svg">
<path d="M83.4276 35.3447V47.8765H1.57324V2.02832H83.4276V12.8179" stroke="#C94B32" stroke-linecap="round" stroke-linejoin="round"/>
<path d="M94.0945 17.4333V58.9718H12.2402V49.0075" stroke="#C94B32" stroke-linecap="round" stroke-linejoin="round"/>
<path d="M16.0615 18.1362H48.2164" stroke="#C94B32" stroke-linecap="round" stroke-linejoin="round"/>
<path d="M16.0615 31.7683H60.4426" stroke="#C94B32" stroke-linecap="round" stroke-linejoin="round"/>
<path d="M80.6771 36.8729L72.0576 41.366L72.2716 31.5545C72.2716 30.9126 72.4855 30.2708 72.8218 29.7206L87.7377 6.27687C88.2267 5.48216 89.1131 5.02368 90.0301 5.02368H93.3617C94.4315 5.02368 95.4096 5.66556 95.8681 6.64365L97.1519 9.54737C97.5187 10.3726 97.4575 11.3507 96.9685 12.1149L82.022 35.6197C81.6857 36.1393 81.2273 36.5672 80.6465 36.8729H80.6771Z" stroke="#C94B32" stroke-linecap="round" stroke-linejoin="round"/>
<path d="M94.3398 6.09351L79.1182 30.0263" stroke="#C94B32" stroke-linecap="round" stroke-linejoin="round"/>
<path d="M81.2576 35.742L80.0044 32.5632C79.4236 31.1266 78.0176 30.2402 76.4893 30.3013L73.0049 30.4847" stroke="#C94B32" stroke-linecap="round" stroke-linejoin="round"/>
</svg>
