<svg width="107" height="60" viewBox="0 0 107 60" fill="none" xmlns="http://www.w3.org/2000/svg">
<g clip-path="url(#clip0_2192_1030)">
<path d="M23.252 4.50072L5.4105 22.2682C1.18296 26.4782 1.18296 33.304 5.4105 37.514L23.252 55.2815C27.4795 59.4915 34.3337 59.4915 38.5613 55.2815L56.4027 37.514C60.6303 33.304 60.6303 26.4782 56.4027 22.2682L38.5613 4.50072C34.3337 0.290714 27.4795 0.290712 23.252 4.50072Z" stroke="#C94B32" stroke-miterlimit="10" stroke-linecap="round"/>
<path d="M23.252 4.50072L5.4105 22.2682C1.18296 26.4782 1.18296 33.304 5.4105 37.514L23.252 55.2815C27.4795 59.4915 34.3337 59.4915 38.5613 55.2815L56.4027 37.514C60.6303 33.304 60.6303 26.4782 56.4027 22.2682L38.5613 4.50072C34.3337 0.290714 27.4795 0.290712 23.252 4.50072Z" stroke="#C94B32" stroke-miterlimit="10" stroke-linecap="round"/>
<path d="M21.0791 22.6497V37.1596C21.0791 38.5579 22.2173 39.6914 23.6214 39.6914H38.1918C39.5959 39.6914 40.7341 38.5579 40.7341 37.1596V22.6497C40.7341 21.2514 39.5959 20.1179 38.1918 20.1179H23.6214C22.2173 20.1179 21.0791 21.2514 21.0791 22.6497Z" stroke="#C94B32" stroke-miterlimit="10" stroke-linecap="round"/>
<path d="M50.6846 16.6608C55.4958 7.62267 65.0636 1.47021 76.0529 1.47021C91.9082 1.47021 104.756 14.2651 104.756 30.0546C104.756 45.8441 91.9082 58.639 76.0529 58.639C65.0636 58.639 55.4958 52.4866 50.6846 43.4484" stroke="#C94B32" stroke-miterlimit="10" stroke-linecap="round"/>
<path d="M76.2984 35.2542C81.2957 35.2542 85.3468 31.2199 85.3468 26.2433C85.3468 21.2667 81.2957 17.2324 76.2984 17.2324C71.3011 17.2324 67.25 21.2667 67.25 26.2433C67.25 31.2199 71.3011 35.2542 76.2984 35.2542Z" stroke="#C94B32" stroke-miterlimit="10" stroke-linecap="round"/>
<path d="M88.3266 54.8549C88.3266 48.1036 82.8319 42.6045 76.0251 42.6045C69.2183 42.6045 63.7236 48.0764 63.7236 54.8549" stroke="#C94B32" stroke-miterlimit="10" stroke-linecap="round"/>
</g>
<defs>
<clipPath id="clip0_2192_1030">
<rect width="105.246" height="60" fill="white" transform="translate(0.876953)"/>
</clipPath>
</defs>
</svg>
