<svg width="29" height="30" viewBox="0 0 29 30" fill="none" xmlns="http://www.w3.org/2000/svg">
<path d="M24.3002 0.652161H3.20887C1.79694 0.652161 0.652344 1.79675 0.652344 3.20868V24.3C0.652344 25.7119 1.79694 26.8565 3.20887 26.8565H24.3002C25.7121 26.8565 26.8567 25.7119 26.8567 24.3V3.20868C26.8567 1.79675 25.7121 0.652161 24.3002 0.652161Z" stroke="#76808D" stroke-linecap="round" stroke-linejoin="round"/>
<path d="M0.822266 8.66086H4.39618" stroke="#76808D" stroke-linecap="round" stroke-linejoin="round"/>
<path d="M0.822266 18.613H4.39618" stroke="#76808D" stroke-linecap="round" stroke-linejoin="round"/>
<path d="M4.40918 21.3V23.1H21.2483C22.2657 23.1 23.1005 22.2783 23.1005 21.2478V6.26087C23.1005 5.24347 22.2787 4.40869 21.2483 4.40869H4.40918V6.14347" stroke="#76808D" stroke-linecap="round" stroke-linejoin="round"/>
<path d="M4.51367 11.2957V16.1609" stroke="#76808D" stroke-linecap="round" stroke-linejoin="round"/>
<path d="M3.88672 29.2435H8.88237" stroke="#76808D" stroke-linecap="round" stroke-linejoin="round"/>
<path d="M18.626 29.2435H23.6347" stroke="#76808D" stroke-linecap="round" stroke-linejoin="round"/>
<path d="M13.7607 17.687C15.7201 17.687 17.3085 16.0985 17.3085 14.1391C17.3085 12.1797 15.7201 10.5913 13.7607 10.5913C11.8013 10.5913 10.2129 12.1797 10.2129 14.1391C10.2129 16.0985 11.8013 17.687 13.7607 17.687Z" stroke="#76808D" stroke-linecap="round" stroke-linejoin="round"/>
</svg>
