<svg width="43" height="30" viewBox="0 0 43 30" fill="none" xmlns="http://www.w3.org/2000/svg">
<g clip-path="url(#clip0_2128_5)">
<path d="M8.9504 4.80029L1.81381 11.9073C0.122792 13.5913 0.122792 16.3216 1.81381 18.0056L8.9504 25.1126C10.6414 26.7966 13.3831 26.7966 15.0741 25.1126L22.2107 18.0056C23.9017 16.3216 23.9017 13.5913 22.2107 11.9073L15.0741 4.80029C13.3831 3.11629 10.6414 3.11629 8.9504 4.80029Z" stroke="#76808D" stroke-miterlimit="10" stroke-linecap="round"/>
<path d="M8.9504 4.80029L1.81381 11.9073C0.122792 13.5913 0.122792 16.3216 1.81381 18.0056L8.9504 25.1126C10.6414 26.7966 13.3831 26.7966 15.0741 25.1126L22.2107 18.0056C23.9017 16.3216 23.9017 13.5913 22.2107 11.9073L15.0741 4.80029C13.3831 3.11629 10.6414 3.11629 8.9504 4.80029Z" stroke="#76808D" stroke-miterlimit="10" stroke-linecap="round"/>
<path d="M8.08105 12.0599V17.8639C8.08105 18.4232 8.53635 18.8766 9.09798 18.8766H14.9261C15.4878 18.8766 15.9431 18.4232 15.9431 17.8639V12.0599C15.9431 11.5006 15.4878 11.0472 14.9261 11.0472H9.09798C8.53635 11.0472 8.08105 11.5006 8.08105 12.0599Z" stroke="#76808D" stroke-miterlimit="10" stroke-linecap="round"/>
<path d="M19.9229 9.66424C21.8473 6.04899 25.6745 3.58801 30.0702 3.58801C36.4123 3.58801 41.5516 8.70598 41.5516 15.0218C41.5516 21.3376 36.4123 26.4555 30.0702 26.4555C25.6745 26.4555 21.8473 23.9945 19.9229 20.3793" stroke="#76808D" stroke-miterlimit="10" stroke-linecap="round"/>
<path d="M30.1682 17.1016C32.1671 17.1016 33.7876 15.4879 33.7876 13.4973C33.7876 11.5066 32.1671 9.89291 30.1682 9.89291C28.1693 9.89291 26.5488 11.5066 26.5488 13.4973C26.5488 15.4879 28.1693 17.1016 30.1682 17.1016Z" stroke="#76808D" stroke-miterlimit="10" stroke-linecap="round"/>
<path d="M34.9798 24.9419C34.9798 22.2414 32.782 20.0417 30.0593 20.0417C27.3365 20.0417 25.1387 22.2305 25.1387 24.9419" stroke="#76808D" stroke-miterlimit="10" stroke-linecap="round"/>
</g>
<defs>
<clipPath id="clip0_2128_5">
<rect width="42.0984" height="24" fill="white" transform="translate(0 3)"/>
</clipPath>
</defs>
</svg>
