<svg width="30" height="30" viewBox="0 0 30 30" fill="none" xmlns="http://www.w3.org/2000/svg">
<g clip-path="url(#clip0_2128_492)">
<path d="M11.1771 2.25753L2.265 11.1696C0.153286 13.2813 0.153286 16.7051 2.265 18.8168L11.1771 27.7288C13.2888 29.8405 16.7125 29.8405 18.8242 27.7288L27.7363 18.8168C29.848 16.7051 29.848 13.2813 27.7363 11.1696L18.8242 2.25753C16.7125 0.145821 13.2888 0.14582 11.1771 2.25753Z" stroke="#C94B32" stroke-miterlimit="10" stroke-linecap="round"/>
<path d="M17.3286 11.9072L14.9936 7.18253L12.6586 11.9072L7.44238 12.6718L11.2248 16.3587L10.3372 21.5612L15.0072 19.1033L19.6772 21.5612L18.7897 16.3587L22.5721 12.6718L17.3559 11.9072H17.3286Z" stroke="#C94B32" stroke-linecap="round" stroke-linejoin="round"/>
</g>
<defs>
<clipPath id="clip0_2128_492">
<rect width="30" height="30" fill="white"/>
</clipPath>
</defs>
</svg>
