<svg width="40" height="30" viewBox="0 0 40 30" fill="none" xmlns="http://www.w3.org/2000/svg">
<g clip-path="url(#clip0_2128_248)">
<path d="M33.3531 16.9379V21.9506H0.611328V3.61131H33.3531V7.92716" stroke="#76808D" stroke-linecap="round" stroke-linejoin="round"/>
<path d="M37.6197 9.7733V26.3887H4.87793V22.4029" stroke="#76808D" stroke-linecap="round" stroke-linejoin="round"/>
<path d="M6.40625 10.0545H19.2682" stroke="#76808D" stroke-linecap="round" stroke-linejoin="round"/>
<path d="M6.40625 15.5074H24.1587" stroke="#76808D" stroke-linecap="round" stroke-linejoin="round"/>
<path d="M32.2525 17.5492L28.8047 19.3464L28.8903 15.4218C28.8903 15.1651 28.9759 14.9083 29.1103 14.6882L35.0767 5.31075C35.2723 4.99287 35.6269 4.80948 35.9937 4.80948H37.3263C37.7543 4.80948 38.1455 5.06623 38.3289 5.45747L38.8424 6.61895C38.9891 6.94906 38.9646 7.3403 38.769 7.64595L32.7904 17.0479C32.6559 17.2557 32.4725 17.4269 32.2402 17.5492H32.2525Z" stroke="#76808D" stroke-linecap="round" stroke-linejoin="round"/>
<path d="M37.7175 5.2374L31.6289 14.8105" stroke="#76808D" stroke-linecap="round" stroke-linejoin="round"/>
<path d="M32.4847 17.0968L31.9834 15.8253C31.7511 15.2506 31.1887 14.8961 30.5774 14.9205L29.1836 14.9939" stroke="#76808D" stroke-linecap="round" stroke-linejoin="round"/>
</g>
<defs>
<clipPath id="clip0_2128_248">
<rect width="39.5639" height="24" fill="white" transform="translate(0 3)"/>
</clipPath>
</defs>
</svg>
