<svg width="27" height="30" viewBox="0 0 27 30" fill="none" xmlns="http://www.w3.org/2000/svg">
<g clip-path="url(#clip0_2128_421)">
<path fill-rule="evenodd" clip-rule="evenodd" d="M23.175 0C24.875 0 26.25 1.375 26.25 3.0875V30L23.025 27.15L21.2125 25.475L19.2875 23.6875L20.0875 26.4625H3.075C1.375 26.4625 0 25.0875 0 23.375V3.0875C0 1.375 1.375 0 3.075 0H23.175ZM17.3875 19.5875C20.7 19.4875 21.975 17.3125 21.975 17.3125C21.975 12.4875 19.8125 8.5625 19.8125 8.5625C17.65 6.9375 15.6 6.9875 15.6 6.9875L15.3875 7.225C17.9375 8 19.125 9.125 19.125 9.125C17.5625 8.275 16.0375 7.85 14.6125 7.6875C13.5375 7.5625 12.5 7.6 11.5875 7.7125L11.3375 7.7375C10.8125 7.7875 9.5375 7.975 7.9375 8.6875C7.3875 8.9375 7.05 9.125 7.05 9.125C7.05 9.125 8.3 7.9375 11 7.1625L10.85 6.9875C10.85 6.9875 8.8 6.9375 6.6375 8.5625C6.6375 8.5625 4.475 12.475 4.475 17.3125C4.475 17.3125 5.7375 19.4875 9.05 19.5875C9.05 19.5875 9.6 18.9125 10.05 18.3375C8.15 17.7625 7.425 16.5625 7.425 16.5625L7.85 16.8125L7.9125 16.8625L7.975 16.9H7.9875L8.05 16.9375C8.425 17.15 8.8 17.3125 9.15 17.45C9.7625 17.6875 10.5 17.925 11.35 18.1C12.475 18.3125 13.8 18.3875 15.2375 18.1125C15.9375 17.9875 16.6625 17.7875 17.4125 17.4625C17.9375 17.2625 18.525 16.9875 19.1375 16.575C19.1375 16.575 18.3875 17.8 16.425 18.3625C16.875 18.9375 17.4125 19.575 17.4125 19.575L17.3875 19.5875ZM10.4125 12.5875C9.5625 12.5875 8.8875 13.3375 8.8875 14.25C8.8875 15.1625 9.575 15.9125 10.4125 15.9125C11.25 15.9125 11.9375 15.1625 11.9375 14.25C11.95 13.3375 11.2625 12.5875 10.4125 12.5875ZM15.8875 12.5875C15.0375 12.5875 14.3625 13.3375 14.3625 14.25C14.3625 15.1625 15.05 15.9125 15.8875 15.9125C16.725 15.9125 17.4125 15.1625 17.4125 14.25C17.4125 13.3375 16.7375 12.5875 15.8875 12.5875Z" fill="#76808D"/>
</g>
<defs>
<clipPath id="clip0_2128_421">
<rect width="26.25" height="30" fill="white"/>
</clipPath>
</defs>
</svg>
