<svg width="21" height="21" viewBox="0 0 21 21" fill="none" xmlns="http://www.w3.org/2000/svg">
<g id="Notion-logo 1" clip-path="url(#clip0_2886_7044)">
<path id="Vector" fill-rule="evenodd" clip-rule="evenodd" d="M12.2832 0.371566L1.21658 1.18897C0.323784 1.26617 0.0131836 1.84957 0.0131836 2.54877V14.6808C0.0131836 15.2254 0.206584 15.6914 0.673184 16.3142L3.27458 19.6968C3.70198 20.2414 4.09058 20.3582 4.90658 20.3194L17.758 19.5414C18.8446 19.464 19.156 18.958 19.156 18.1028V4.45417C19.156 4.01217 18.9814 3.88477 18.4674 3.50757L14.8466 0.954766C13.992 0.333366 13.6426 0.254766 12.2832 0.371366V0.371566ZM5.19718 4.23077C4.14778 4.30137 3.90978 4.31737 3.31378 3.83277L1.79858 2.62757C1.64458 2.47157 1.72198 2.27697 2.10998 2.23817L12.7486 1.46077C13.642 1.38277 14.1072 1.69417 14.4566 1.96617L16.2812 3.28817C16.3592 3.32757 16.5532 3.56017 16.3198 3.56017L5.33318 4.22157L5.19718 4.23097V4.23077ZM3.97378 17.9862V6.39957C3.97378 5.89357 4.12918 5.66017 4.59438 5.62097L17.2132 4.88217C17.6412 4.84357 17.8346 5.11557 17.8346 5.62077V17.1302C17.8346 17.6362 17.7566 18.0642 17.058 18.1028L4.98258 18.8028C4.28398 18.8414 3.97398 18.6088 3.97398 17.9862H3.97378ZM15.8938 7.02077C15.9712 7.37077 15.8938 7.72077 15.5438 7.76077L14.9618 7.87617V16.4308C14.4564 16.7028 13.9912 16.8582 13.6024 16.8582C12.981 16.8582 12.8258 16.6636 12.3604 16.0808L8.55438 10.0928V15.8862L9.75838 16.1588C9.75838 16.1588 9.75838 16.8588 8.78698 16.8588L6.10898 17.0142C6.03098 16.8582 6.10898 16.4696 6.38038 16.3922L7.07978 16.1982V8.53817L6.10918 8.45957C6.03118 8.10957 6.22518 7.60417 6.76918 7.56497L9.64258 7.37157L13.6026 13.437V8.07097L12.5932 7.95497C12.5152 7.52637 12.8258 7.21497 13.2138 7.17697L15.8938 7.02097V7.02077Z" fill="#76808D"/>
</g>
<defs>
<clipPath id="clip0_2886_7044">
<rect width="20" height="20" fill="white" transform="translate(0.0131836 0.326172)"/>
</clipPath>
</defs>
</svg>
