<svg width="107" height="62" viewBox="0 0 107 62" fill="none" xmlns="http://www.w3.org/2000/svg">
<g clip-path="url(#clip0_2886_9639)">
<path d="M79.1808 8.71411H27.6672" stroke="#C94B32" stroke-linecap="round" stroke-linejoin="round"/>
<path d="M16.4075 54.3164H16.4638C16.4638 54.4853 16.4075 54.6823 16.4075 54.8512C16.4075 58.1166 19.0535 60.7626 22.3189 60.7626H84.3323C87.5976 60.7626 90.2437 58.1166 90.2437 54.8512C90.2437 54.6542 90.2155 54.4853 90.1874 54.3164H90.2437" stroke="#C94B32" stroke-linecap="round" stroke-linejoin="round"/>
<path d="M27.2169 2.60571H22.3189C19.0535 2.60571 16.4075 5.25177 16.4075 8.51711C16.4075 8.57341 16.4075 8.65786 16.4075 8.71416V54.3164H16.4638C16.7453 51.3044 19.2506 48.9398 22.3189 48.9398H27.2169V2.60571Z" stroke="#C94B32" stroke-linecap="round" stroke-linejoin="round"/>
<path d="M90.2437 8.51711C90.2437 5.25177 87.5977 2.60571 84.3323 2.60571H79.4343V48.968H84.3323C87.4006 48.968 89.9059 51.3325 90.1874 54.3445H90.2437V8.71416C90.2437 8.71416 90.2437 8.57341 90.2437 8.51711Z" stroke="#C94B32" stroke-linecap="round" stroke-linejoin="round"/>
<path d="M51.7634 47.1945L43.8252 51.3325L44.0222 42.2965C44.0222 41.7054 44.2193 41.1142 44.5289 40.6075L58.2659 19.045C58.7163 18.3131 59.5326 17.8909 60.3771 17.8909H63.4454C64.4306 17.8909 65.3314 18.482 65.7537 19.3828L66.9359 22.057C67.2737 22.817 67.2174 23.7178 66.767 24.4216L53.0019 46.0685C52.6923 46.5471 52.2701 46.9412 51.7352 47.2227L51.7634 47.1945Z" stroke="#C94B32" stroke-linecap="round" stroke-linejoin="round"/>
<path d="M64.3742 18.8479L50.3276 40.889" stroke="#C94B32" stroke-linecap="round" stroke-linejoin="round"/>
<path d="M52.2981 46.1811L51.144 43.2535C50.6092 41.9305 49.3143 41.1142 47.9068 41.1705L44.6978 41.3394" stroke="#C94B32" stroke-linecap="round" stroke-linejoin="round"/>
</g>
<defs>
<clipPath id="clip0_2886_9639">
<rect width="107" height="61" fill="white" transform="translate(0 0.891357)"/>
</clipPath>
</defs>
</svg>
