<svg width="138" height="81" viewBox="0 0 138 81" fill="none" xmlns="http://www.w3.org/2000/svg">
<g clip-path="url(#clip0_1193_5525)">
<path d="M4.44196 53.5957V72.107C4.39172 72.9884 4.53021 73.8703 4.84815 74.6938C5.17108 75.3039 5.6696 75.8028 6.27912 76.1261L8.67026 77.4944L6.70579 80.9999C4.22894 79.8047 2.49199 78.6646 1.49494 77.5795C0.497886 76.4945 -0.000426182 74.9413 2.73486e-07 72.9202V53.5957H4.44196Z" fill="#C94B32"/>
<path d="M10.2513 66.0775C10.7774 64.7322 11.5711 63.508 12.5843 62.4792C13.5975 61.4504 14.8091 60.6385 16.1454 60.0927C17.6496 59.479 19.2618 59.1742 20.886 59.1963C22.5105 59.1743 24.1228 59.4791 25.6274 60.0927C26.9635 60.6388 28.1749 61.4508 29.1881 62.4796C30.2012 63.5083 30.9951 64.7324 31.5214 66.0775C32.5466 68.6584 32.5466 71.5341 31.5214 74.115C30.9952 75.4602 30.2015 76.6845 29.1883 77.7133C28.1751 78.7422 26.9636 79.5543 25.6274 80.1004C24.1228 80.7136 22.5105 81.0185 20.886 80.9968C19.2618 81.0186 17.6497 80.7138 16.1454 80.1004C14.8089 79.5546 13.5973 78.7426 12.5841 77.7137C11.5709 76.6847 10.7772 75.4604 10.2513 74.115C9.22612 71.5341 9.22612 68.6584 10.2513 66.0775ZM16.1025 74.8628C16.7232 75.4991 17.4684 76.0003 18.2915 76.335C19.1146 76.6697 19.9979 76.8307 20.886 76.808C21.778 76.8349 22.6657 76.6759 23.493 76.341C24.3202 76.0061 25.0688 75.5027 25.6913 74.8628C26.9115 73.5762 27.5918 71.8699 27.5918 70.0959C27.5918 68.3219 26.9115 66.6156 25.6913 65.329C25.0683 64.6901 24.3194 64.1877 23.4923 63.8536C22.6651 63.5195 21.7776 63.3611 20.886 63.3883C19.5615 63.3972 18.2689 63.7959 17.1691 64.5348C16.0694 65.2737 15.2111 66.3201 14.7012 67.5437C14.1912 68.7673 14.0522 70.1141 14.3014 71.4162C14.5506 72.7183 15.1769 73.9183 16.1025 74.8667" fill="#C94B32"/>
<path d="M36.3896 67.4899C36.3896 64.954 37.1227 62.9377 38.5889 61.4411C39.2783 60.7158 40.1108 60.1417 41.0336 59.7552C41.9564 59.3688 42.9493 59.1785 43.9494 59.1963C45.3276 59.1549 46.6895 59.503 47.879 60.2009C48.9114 60.8125 49.7087 61.7534 50.1428 62.8728H50.2279C50.6655 61.7489 51.4714 60.8068 52.5135 60.2009C53.6967 59.5083 55.0498 59.1603 56.42 59.1963C57.42 59.1787 58.4128 59.3691 59.3354 59.7555C60.258 60.1419 61.0905 60.7159 61.7799 61.4411C63.2461 62.9373 63.9794 64.9535 63.9798 67.4899V80.4436H59.5391V67.5328C59.5951 66.4931 59.2425 65.4727 58.5566 64.69C58.2488 64.3521 57.8724 64.084 57.4526 63.9036C57.0328 63.7233 56.5793 63.6349 56.1226 63.6444C55.6189 63.62 55.1159 63.7046 54.6478 63.8925C54.1798 64.0803 53.7577 64.367 53.4103 64.7329C52.7404 65.4585 52.4058 66.5916 52.4067 68.1321V80.4442H47.9641V68.1315C47.9641 66.5948 47.6295 65.4617 46.9604 64.7322C46.613 64.3665 46.191 64.08 45.7231 63.8922C45.2552 63.7043 44.7523 63.6196 44.2488 63.6437C43.7917 63.6344 43.3379 63.723 42.9179 63.9037C42.4979 64.0843 42.1213 64.3529 41.8135 64.6912C41.1278 65.4741 40.7754 66.4945 40.8316 67.5341V80.4448H36.3896V67.4899Z" fill="#C94B32"/>
<path d="M85.678 77.9228H85.5891C84.831 78.8981 83.8416 79.6684 82.7106 80.1638C81.4836 80.7222 80.1499 81.0063 78.8021 80.9962C77.2724 81.0155 75.7569 80.702 74.3601 80.0774C73.0624 79.4966 71.8982 78.6541 70.9404 77.6027C70.0086 76.5753 69.2836 75.3776 68.8051 74.0754C68.3279 72.804 68.082 71.4573 68.0791 70.0992C68.0872 68.7724 68.3477 67.4592 68.8467 66.2299C69.3661 64.9225 70.1184 63.7204 71.0671 62.6821C72.0487 61.6034 73.2409 60.7376 74.57 60.1383C75.9647 59.5052 77.4806 59.1843 79.0119 59.1977C80.3772 59.1724 81.7297 59.465 82.9626 60.0525C84.0222 60.5424 84.9298 61.3101 85.5891 62.2743H85.6749V59.7522H90.1168V80.4436H85.6749L85.678 77.9228ZM73.2919 72.6859C73.6276 73.4899 74.113 74.2226 74.7222 74.845C75.3241 75.4648 76.0429 75.9588 76.837 76.2984C77.6328 76.6399 78.4902 76.8143 79.3561 76.8107C80.2109 76.8083 81.0565 76.6329 81.8419 76.2951C82.6274 75.9573 83.3365 75.4641 83.9266 74.845C84.5241 74.2178 85.0011 73.486 85.3339 72.6859C86.0171 71.0295 86.0171 69.1696 85.3339 67.5131C85.0013 66.713 84.5242 65.9811 83.9266 65.354C83.0334 64.4179 81.8759 63.7771 80.6089 63.5174C79.342 63.2576 78.026 63.3913 76.837 63.9006C76.0427 64.2402 75.3239 64.7344 74.7222 65.3547C74.1128 65.977 73.6274 66.7097 73.2919 67.5137C72.6078 69.17 72.6078 71.0303 73.2919 72.6866" fill="#C94B32"/>
<path d="M111.816 77.9227H111.731C110.972 78.8999 109.981 79.6716 108.848 80.1676C107.621 80.7261 106.287 81.0102 104.94 80.9999C103.41 81.0192 101.895 80.7057 100.498 80.0811C99.201 79.4987 98.0377 78.6547 97.081 77.6019C96.1493 76.5745 95.4243 75.3769 94.9458 74.0746C94.4685 72.8032 94.2226 71.4566 94.2197 70.0984C94.2282 68.7716 94.4887 67.4585 94.9873 66.2292C95.5065 64.9216 96.2588 63.7195 97.2077 62.6814C98.1893 61.6026 99.3815 60.7368 100.711 60.1375C102.105 59.5046 103.621 59.1836 105.152 59.1969C106.517 59.1715 107.87 59.4642 109.103 60.0517C110.163 60.5422 111.07 61.3103 111.73 62.2748H111.815V53.5957H116.257V80.4435H111.816V77.9227ZM99.4306 72.6858C99.766 73.4899 100.251 74.2226 100.861 74.8449C101.463 75.4646 102.182 75.9587 102.976 76.2983C103.772 76.6398 104.629 76.8141 105.495 76.8105C106.347 76.8111 107.191 76.6368 107.973 76.2983C108.762 75.9615 109.474 75.4669 110.065 74.8449C110.662 74.2174 111.139 73.4856 111.473 72.6858C112.156 71.0293 112.156 69.1694 111.473 67.513C111.14 66.7131 110.662 65.9813 110.065 65.3539C109.172 64.4181 108.015 63.7774 106.748 63.5177C105.482 63.258 104.166 63.3915 102.977 63.9005C102.183 64.24 101.464 64.7343 100.862 65.3545C100.253 65.9766 99.7671 66.7094 99.4319 67.5136C98.7478 69.1699 98.7478 71.0301 99.4319 72.6865" fill="#C94B32"/>
<path d="M122.965 74.2879C123.83 75.1985 124.859 75.9371 125.998 76.4649C127.072 77.0062 128.255 77.2985 129.457 77.3203C130.503 77.3648 131.536 77.0732 132.405 76.4879C132.726 76.3072 132.998 76.0514 133.198 75.7425C133.399 75.4335 133.522 75.0805 133.556 74.7137C133.567 74.4139 133.509 74.1156 133.387 73.8416C133.265 73.5676 133.082 73.325 132.853 73.1322C132.276 72.6882 131.591 72.4076 130.87 72.3196L128.349 71.849C125.559 71.3368 123.623 70.6171 122.541 69.69C122.005 69.2304 121.58 68.6549 121.298 68.0069C121.017 67.3589 120.886 66.6554 120.915 65.9494C120.911 65.0423 121.106 64.1454 121.486 63.3218C121.866 62.4983 122.422 61.7683 123.115 61.1832C124.581 59.8599 126.553 59.1983 129.03 59.1983C130.44 59.1914 131.84 59.4226 133.173 59.8821C134.622 60.4118 135.988 61.1448 137.231 62.0591L134.711 65.1798C133.857 64.4136 132.874 63.8064 131.807 63.387C130.961 63.0628 130.064 62.8894 129.158 62.8748C128.22 62.8513 127.294 63.0956 126.489 63.5791C126.146 63.7639 125.859 64.0386 125.66 64.3737C125.46 64.7089 125.356 65.0919 125.357 65.482C125.357 66.6217 126.254 67.3474 128.048 67.659L132.533 68.5138C136.177 69.1968 137.999 71.0352 138 74.0292C137.993 74.8605 137.819 75.6819 137.488 76.4444C137.118 77.298 136.58 78.0685 135.907 78.7103C135.118 79.4556 134.179 80.0232 133.153 80.3751C131.896 80.8097 130.573 81.0195 129.244 80.9949C125.801 80.964 122.489 79.6713 119.934 77.3613L122.965 74.2879Z" fill="#C94B32"/>
<path d="M68.8718 3.98006C70.1793 3.97359 71.4751 4.22685 72.6842 4.72517C73.8932 5.22349 74.9915 5.95697 75.9153 6.88312L81.0437 12.0169L87.6625 18.6413C89.5277 20.5125 90.5752 23.0479 90.5752 25.6912C90.5752 28.3345 89.5277 30.8698 87.6625 32.7411L81.487 38.9224L75.9153 44.4993C74.042 46.3589 71.5105 47.4023 68.8721 47.4023C66.2337 47.4023 63.7022 46.3589 61.8289 44.4993L55.6412 38.3058L50.0811 32.7411C48.2232 30.866 47.1808 28.3321 47.1808 25.6912C47.1808 23.0503 48.2232 20.5164 50.0811 18.6413L56.4063 12.3108L61.8289 6.88312C62.7526 5.95701 63.8508 5.22356 65.0597 4.72524C66.2687 4.22692 67.5644 3.97364 68.8718 3.98006ZM68.8718 4.46655e-05C67.0431 -0.00410412 65.2315 0.353138 63.5411 1.05128C61.8506 1.74943 60.3144 2.77474 59.0207 4.06842L53.5981 9.49612L47.2729 15.8273C44.6694 18.4486 43.208 21.9946 43.208 25.6909C43.208 29.3871 44.6694 32.9332 47.2729 35.5545L52.833 41.1198L59.0207 47.314C61.6396 49.9198 65.1823 51.3824 68.875 51.3824C72.5677 51.3824 76.1104 49.9198 78.7293 47.314L84.3016 41.7364L90.4777 35.5545C93.0811 32.9331 94.5424 29.3871 94.5424 25.6909C94.5424 21.9947 93.0811 18.4486 90.4777 15.8273L83.8557 9.20223L78.7261 4.06842C77.432 2.7743 75.8954 1.74873 74.2043 1.05057C72.5132 0.352409 70.7011 -0.0045959 68.8718 4.46655e-05Z" fill="#C94B32"/>
<path d="M68.8716 13.8258C69.6217 13.8221 70.3652 13.9673 71.0589 14.2531C71.7526 14.5388 72.3828 14.9594 72.9131 15.4905L79.0604 21.6437C80.1308 22.7174 80.7318 24.1722 80.7318 25.689C80.7318 27.2058 80.1308 28.6606 79.0604 29.7343L72.9131 35.8875C71.8384 36.955 70.3857 37.5541 68.8716 37.5541C67.3575 37.5541 65.9047 36.955 64.8301 35.8875L58.6827 29.7343C57.6124 28.6606 57.0113 27.2058 57.0113 25.689C57.0113 24.1722 57.6124 22.7174 58.6827 21.6437L64.8301 15.4905C65.3604 14.9594 65.9906 14.5389 66.6843 14.2531C67.378 13.9674 68.1214 13.8221 68.8716 13.8258ZM68.8716 12.2475C67.9139 12.2447 66.9652 12.4314 66.0798 12.7967C65.1945 13.1621 64.39 13.6989 63.7125 14.3764L57.5652 20.5296C56.203 21.9014 55.4385 23.7571 55.4385 25.6912C55.4385 27.6254 56.203 29.481 57.5652 30.8529L63.7125 37.0054C65.083 38.369 66.9369 39.1344 68.8693 39.1344C70.8017 39.1344 72.6556 38.369 74.0261 37.0054L80.1728 30.8529C81.535 29.481 82.2996 27.6254 82.2996 25.6912C82.2996 23.7571 81.535 21.9014 80.1728 20.5296L74.0261 14.3764C73.3489 13.6992 72.5447 13.1625 71.6597 12.7971C70.7747 12.4318 69.8263 12.245 68.869 12.2475" fill="#C94B32"/>
<path d="M70.1732 9.58895C71.4088 9.58718 72.6273 9.87763 73.7295 10.4366C74.8317 10.9956 75.7863 11.8074 76.5156 12.8057L83.483 22.4286C84.69 24.1093 85.1844 26.1994 84.8583 28.2434C84.5323 30.2873 83.4123 32.1194 81.7425 33.3404L72.1287 40.3156C70.8038 41.2796 69.2069 41.7967 67.569 41.7921C66.3334 41.7936 65.115 41.5028 64.0129 40.9436C62.9109 40.3844 61.9564 39.5725 61.2272 38.5741L54.2604 28.9512C53.0478 27.2724 52.55 25.1806 52.8762 23.1349C53.2024 21.0892 54.3259 19.2565 56.0004 18.0388L65.6142 11.0661C66.9393 10.1022 68.5363 9.58489 70.1745 9.58895M70.1745 7.43375C68.0837 7.43118 66.0459 8.09152 64.3533 9.32003L54.7364 16.294C52.6042 17.8507 51.1742 20.1887 50.7585 22.7973C50.3429 25.4058 50.9754 28.0731 52.5179 30.2164L59.4834 39.8386C61.0377 41.9739 63.3734 43.4063 65.9798 43.8229C68.5862 44.2395 71.2514 43.6063 73.3927 42.0617L83.0065 35.0877C85.1389 33.5313 86.5694 31.1935 86.9854 28.5849C87.4014 25.9763 86.7692 23.3089 85.2268 21.1653L78.26 11.5425C77.3328 10.2662 76.1164 9.22831 74.7106 8.51406C73.3048 7.7998 71.7497 7.42956 70.1732 7.43375" fill="#C94B32"/>
<path d="M70.7495 19.5121C71.4332 19.494 72.1052 19.6927 72.6694 20.0798C73.2336 20.4668 73.6611 21.0225 73.891 21.6673L73.898 21.6929L73.905 21.7172L75.2951 26.3958C75.4753 27.1298 75.3588 27.9053 74.971 28.5538C74.5831 29.2023 73.9552 29.6714 73.2238 29.8591L69.0607 30.9258C68.8309 30.9851 68.5944 31.015 68.3571 31.0148C67.7202 31.0159 67.1012 30.8045 66.5977 30.4141C66.0943 30.0237 65.7351 29.4765 65.577 28.859L65.5706 28.834L65.5636 28.8097L64.1729 24.1311C63.9959 23.3972 64.1138 22.6231 64.5012 21.9753C64.8885 21.3276 65.5144 20.8578 66.2442 20.6672L66.2589 20.6633L66.2743 20.6588L70.0362 19.5985C70.2699 19.5412 70.5096 19.5126 70.7501 19.5134M70.7501 18.2097C70.3962 18.2084 70.0436 18.2514 69.7004 18.3378L65.9224 19.4032C64.8536 19.6792 63.9374 20.3674 63.374 21.3175C62.8106 22.2677 62.6459 23.4024 62.9159 24.4737L64.3143 29.1791C64.5462 30.076 65.0687 30.8705 65.8001 31.4383C66.5314 32.006 67.4303 32.3149 68.3558 32.3165C68.701 32.3169 69.0448 32.2739 69.3793 32.1885L73.5443 31.123C74.6131 30.8471 75.5293 30.1588 76.0927 29.2087C76.656 28.2586 76.8207 27.1239 76.5508 26.0526L75.1524 21.3471C74.6727 19.4686 72.6916 18.2097 70.7488 18.2097" fill="#C94B32"/>
</g>
<defs>
<clipPath id="clip0_1193_5525">
<rect width="138" height="81" fill="white"/>
</clipPath>
</defs>
</svg>