<svg width="24" height="31" viewBox="0 0 24 31" fill="none" xmlns="http://www.w3.org/2000/svg">
<g clip-path="url(#clip0_2353_8772)">
<path d="M11.8439 15.5C13.7995 15.5 15.3848 13.9147 15.3848 11.9591C15.3848 10.0035 13.7995 8.41821 11.8439 8.41821C9.88829 8.41821 8.30298 10.0035 8.30298 11.9591C8.30298 13.9147 9.88829 15.5 11.8439 15.5Z" stroke="white" stroke-linecap="round" stroke-linejoin="round"/>
<path d="M16.5697 23.2231C16.5697 20.5604 14.4089 18.3997 11.7463 18.3997C9.08363 18.3997 6.92285 20.5604 6.92285 23.2231" stroke="white" stroke-linecap="round" stroke-linejoin="round"/>
<path d="M18.6328 1.19702H5.06868C2.74354 1.19702 0.858643 3.08192 0.858643 5.40706V25.5929C0.858643 27.9181 2.74354 29.803 5.06868 29.803H18.6328C20.9579 29.803 22.8428 27.9181 22.8428 25.5929V5.40706C22.8428 3.08192 20.9579 1.19702 18.6328 1.19702Z" stroke="white" stroke-linecap="round" stroke-linejoin="round"/>
</g>
<defs>
<clipPath id="clip0_2353_8772">
<rect width="23.3783" height="30" fill="white" transform="translate(0.161621 0.5)"/>
</clipPath>
</defs>
</svg>
