<svg width="31" height="30" viewBox="0 0 31 30" fill="none" xmlns="http://www.w3.org/2000/svg">
<mask id="path-1-inside-1_2081_8836" fill="white">
<path d="M10.0698 21L21.3198 9.75L10.0698 21Z"/>
</mask>
<path d="M10.0698 21L21.3198 9.75L10.0698 21Z" fill="#76808D"/>
<path d="M10.7769 21.7071L22.0269 10.4571L20.6127 9.04289L9.36272 20.2929L10.7769 21.7071ZM20.6127 9.04289L9.36272 20.2929L10.7769 21.7071L22.0269 10.4571L20.6127 9.04289Z" fill="#76808D" mask="url(#path-1-inside-1_2081_8836)"/>
<path d="M10.0698 21L21.3198 9.75" stroke="#76808D" stroke-linecap="round"/>
<mask id="path-4-inside-2_2081_8836" fill="white">
<path d="M21.3198 21L10.0698 9.75L21.3198 21Z"/>
</mask>
<path d="M21.3198 21L10.0698 9.75L21.3198 21Z" fill="#76808D"/>
<path d="M22.0269 20.2929L10.7769 9.04289L9.36272 10.4571L20.6127 21.7071L22.0269 20.2929ZM9.36272 10.4571L20.6127 21.7071L22.0269 20.2929L10.7769 9.04289L9.36272 10.4571Z" fill="#76808D" mask="url(#path-4-inside-2_2081_8836)"/>
<path d="M21.3198 21L10.0698 9.75" stroke="#76808D" stroke-linecap="round"/>
</svg>
