<svg width="77" height="61" viewBox="0 0 77 61" fill="none" xmlns="http://www.w3.org/2000/svg">
<g clip-path="url(#clip0_1855_4311)">
<path d="M22.7558 5.01503L4.93167 22.8391C0.708245 27.0626 0.708245 33.9101 4.93167 38.1335L22.7558 55.9576C26.9792 60.181 33.8267 60.181 38.0501 55.9576L55.8743 38.1335C60.0977 33.9101 60.0977 27.0626 55.8743 22.8392L38.0501 5.01504C33.8267 0.791615 26.9792 0.791612 22.7558 5.01503Z" stroke="#C94B32" stroke-miterlimit="10" stroke-linecap="round"/>
<path d="M22.7558 5.01503L4.93167 22.8391C0.708245 27.0626 0.708245 33.9101 4.93167 38.1335L22.7558 55.9576C26.9792 60.181 33.8267 60.181 38.0501 55.9576L55.8743 38.1335C60.0977 33.9101 60.0977 27.0626 55.8743 22.8392L38.0501 5.01504C33.8267 0.791615 26.9792 0.791612 22.7558 5.01503Z" stroke="#C94B32" stroke-miterlimit="10" stroke-linecap="round"/>
<path d="M20.5847 23.2223V37.7785C20.5847 39.1812 21.7218 40.3184 23.1245 40.3184H37.6807C39.0834 40.3184 40.2205 39.1812 40.2205 37.7785V23.2223C40.2205 21.8196 39.0834 20.6825 37.6807 20.6825H23.1245C21.7218 20.6825 20.5847 21.8196 20.5847 23.2223Z" stroke="#C94B32" stroke-miterlimit="10" stroke-linecap="round"/>
<path d="M38.937 55.9663C43.17 60.1994 50.0248 60.1994 54.2578 55.9663L72.0639 38.1602C74.1668 36.0573 75.2319 33.299 75.2319 30.5134C75.2319 27.7551 74.1668 24.9695 72.0639 22.8666L54.2578 5.06053C50.0248 0.827481 43.17 0.827481 38.937 5.06053" stroke="#C94B32" stroke-miterlimit="10" stroke-linecap="round"/>
</g>
<defs>
<clipPath id="clip0_1855_4311">
<rect width="76.1948" height="60" fill="white" transform="translate(0.402588 0.5)"/>
</clipPath>
</defs>
</svg>
