<svg width="17" height="22" viewBox="0 0 17 22" fill="none" xmlns="http://www.w3.org/2000/svg">
<path d="M9.63794 11.4181L9.13794 11.9181C8.90374 12.1523 8.6256 12.3381 8.31958 12.4649C8.01356 12.5917 7.68548 12.6569 7.35425 12.6569C7.02301 12.6569 6.69518 12.5917 6.38916 12.4649C6.08314 12.3381 5.805 12.1523 5.5708 11.9181L4.37085 10.718C4.13661 10.4839 3.95075 10.2058 3.82397 9.89981C3.6972 9.5938 3.63208 9.26581 3.63208 8.93457C3.63208 8.60333 3.6972 8.27535 3.82397 7.96933C3.95075 7.66331 4.13661 7.38526 4.37085 7.15106L10.2808 1.24106C10.515 1.00682 10.7931 0.821018 11.0991 0.694244C11.4051 0.567471 11.7332 0.502197 12.0645 0.502197C12.3957 0.502197 12.7235 0.567471 13.0295 0.694244C13.3356 0.821018 13.6137 1.00682 13.8479 1.24106L15.0479 2.44107C15.2822 2.6752 15.4681 2.95322 15.595 3.25925C15.7218 3.56527 15.7871 3.89328 15.7871 4.22455C15.7871 4.55582 15.7218 4.88386 15.595 5.18988C15.4681 5.49591 15.2822 5.77393 15.0479 6.00806L11.4399 9.61505" stroke="#C94B32" stroke-linecap="round"/>
<path d="M5.16284 11.076L7.14697 9.09C7.62008 8.61717 8.26154 8.35156 8.93042 8.35156C9.5993 8.35156 10.2408 8.61717 10.7139 9.09L11.9138 10.29C12.3866 10.7631 12.6523 11.4046 12.6523 12.0735C12.6523 12.7424 12.3866 13.3839 11.9138 13.857L6.00391 19.767C5.53084 20.2395 4.88958 20.5049 4.22095 20.5049C3.55231 20.5049 2.91106 20.2395 2.43799 19.767L1.23804 18.567C1.00383 18.3329 0.817922 18.0549 0.691162 17.749C0.564402 17.4431 0.499268 17.1152 0.499268 16.784C0.499268 16.4528 0.564402 16.1249 0.691162 15.819C0.817922 15.5131 1.00383 15.2351 1.23804 15.001L3.41504 12.825" stroke="#C94B32" stroke-linecap="round"/>
</svg>