<svg width="107" height="61" viewBox="0 0 107 61" fill="none" xmlns="http://www.w3.org/2000/svg">
<g clip-path="url(#clip0_1671_1050)">
<path d="M79.1808 7.82275H27.6672" stroke="#C94B32" stroke-linecap="round" stroke-linejoin="round"/>
<path d="M16.4075 53.425H16.4638C16.4638 53.5939 16.4075 53.791 16.4075 53.9599C16.4075 57.2252 19.0535 59.8713 22.3189 59.8713H84.3323C87.5976 59.8713 90.2437 57.2252 90.2437 53.9599C90.2437 53.7628 90.2155 53.5939 90.1874 53.425H90.2437" stroke="#C94B32" stroke-linecap="round" stroke-linejoin="round"/>
<path d="M27.2169 1.71436H22.3189C19.0535 1.71436 16.4075 4.36041 16.4075 7.62575C16.4075 7.68205 16.4075 7.7665 16.4075 7.8228V53.425H16.4638C16.7453 50.413 19.2506 48.0485 22.3189 48.0485H27.2169V1.71436Z" stroke="#C94B32" stroke-linecap="round" stroke-linejoin="round"/>
<path d="M90.2437 7.62575C90.2437 4.36041 87.5977 1.71436 84.3323 1.71436H79.4343V48.0766H84.3323C87.4006 48.0766 89.9059 50.4412 90.1874 53.4532H90.2437V7.8228C90.2437 7.8228 90.2437 7.68205 90.2437 7.62575Z" stroke="#C94B32" stroke-linecap="round" stroke-linejoin="round"/>
<path d="M51.7634 46.3032L43.8252 50.4411L44.0222 41.4051C44.0222 40.814 44.2193 40.2229 44.5289 39.7162L58.2659 18.1536C58.7163 17.4218 59.5326 16.9995 60.3771 16.9995H63.4454C64.4306 16.9995 65.3314 17.5907 65.7537 18.4914L66.9359 21.1656C67.2737 21.9257 67.2174 22.8265 66.767 23.5302L53.0019 45.1772C52.6923 45.6557 52.2701 46.0498 51.7352 46.3313L51.7634 46.3032Z" stroke="#C94B32" stroke-linecap="round" stroke-linejoin="round"/>
<path d="M64.3742 17.9567L50.3276 39.9977" stroke="#C94B32" stroke-linecap="round" stroke-linejoin="round"/>
<path d="M52.2981 45.2898L51.144 42.3623C50.6092 41.0393 49.3143 40.2229 47.9068 40.2792L44.6978 40.4481" stroke="#C94B32" stroke-linecap="round" stroke-linejoin="round"/>
</g>
<defs>
<clipPath id="clip0_1671_1050">
<rect width="107" height="61" fill="white"/>
</clipPath>
</defs>
</svg>