<svg width="37" height="37" viewBox="0 0 37 37" fill="none" xmlns="http://www.w3.org/2000/svg">
<g clip-path="url(#clip0_1924_6861)">
<path d="M0 0H37V37H0V0Z" fill="url(#paint0_linear_1924_6861)"/>
<g clip-path="url(#clip1_1924_6861)">
<path d="M21.476 11.2339H25.227C25.4362 11.2286 25.6443 11.2653 25.8391 11.3417C26.0339 11.418 26.2114 11.5327 26.3612 11.6787C26.511 11.8248 26.6301 11.9994 26.7114 12.1922C26.7927 12.385 26.8346 12.5922 26.8346 12.8014C26.8346 13.0106 26.7927 13.2178 26.7114 13.4106C26.6301 13.6034 26.511 13.778 26.3612 13.9241C26.2114 14.0701 26.0339 14.1847 25.8391 14.2611C25.6443 14.3375 25.4362 14.3742 25.227 14.3689H24.783L23.601 26.2469C23.5543 26.8577 23.2794 27.4286 22.831 27.8461C22.3826 28.2635 21.7936 28.4969 21.181 28.4999H14.101C13.4891 28.4964 12.901 28.263 12.4532 27.846C12.0055 27.429 11.7309 26.8589 11.684 26.2489L10.508 14.3709H10.068C9.65238 14.3709 9.25381 14.2058 8.95994 13.9119C8.66607 13.6181 8.50098 13.2195 8.50098 12.8039C8.50098 12.3883 8.66607 11.9897 8.95994 11.6959C9.25381 11.402 9.65238 11.2369 10.068 11.2369H13.816" stroke="#C94B32" stroke-miterlimit="10" stroke-linecap="round"/>
<path d="M13.8179 11.2368H21.4779" stroke="#C94B32" stroke-miterlimit="10" stroke-linecap="round"/>
<path d="M10.5107 14.3721H24.7857" stroke="#C94B32" stroke-miterlimit="10" stroke-linecap="round"/>
<path d="M21.5968 11.157H13.6968V9.87898C13.6968 9.69785 13.7325 9.5185 13.8019 9.35118C13.8712 9.18386 13.9729 9.03186 14.1011 8.90388C14.2293 8.77589 14.3814 8.67443 14.5488 8.6053C14.7162 8.53616 14.8956 8.50072 15.0768 8.50098H20.2178C20.5832 8.50098 20.9337 8.64616 21.1922 8.90458C21.4506 9.16301 21.5958 9.51351 21.5958 9.87898L21.5968 11.157Z" stroke="#C94B32" stroke-miterlimit="10" stroke-linecap="round"/>
</g>
</g>
<defs>
<linearGradient id="paint0_linear_1924_6861" x1="18.5" y1="0" x2="18.5" y2="37" gradientUnits="userSpaceOnUse">
<stop stop-color="#FBF4F2"/>
<stop offset="1" stop-color="#EEF1F5"/>
</linearGradient>
<clipPath id="clip0_1924_6861">
<rect width="37" height="37" rx="5" fill="white"/>
</clipPath>
<clipPath id="clip1_1924_6861">
<rect width="19.296" height="21" fill="white" transform="translate(8 8)"/>
</clipPath>
</defs>
</svg>
