<svg width="22" height="24" viewBox="0 0 22 24" fill="none" xmlns="http://www.w3.org/2000/svg">
<g clip-path="url(#clip0_2430_2394)">
<path fill-rule="evenodd" clip-rule="evenodd" d="M19.29 0C20.65 0 21.75 1.1 21.75 2.47V24L19.17 21.72L17.72 20.38L16.18 18.95L16.82 21.17H3.21C1.85 21.17 0.75 20.07 0.75 18.7V2.47C0.75 1.1 1.85 0 3.21 0H19.29ZM14.66 15.67C17.31 15.59 18.33 13.85 18.33 13.85C18.33 9.99 16.6 6.85 16.6 6.85C14.87 5.55 13.23 5.59 13.23 5.59L13.06 5.78C15.1 6.4 16.05 7.3 16.05 7.3C14.8 6.62 13.58 6.28 12.44 6.15C11.58 6.05 10.75 6.08 10.02 6.17L9.82 6.19C9.4 6.23 8.38 6.38 7.1 6.95C6.66 7.15 6.39 7.3 6.39 7.3C6.39 7.3 7.39 6.35 9.55 5.73L9.43 5.59C9.43 5.59 7.79 5.55 6.06 6.85C6.06 6.85 4.33 9.98 4.33 13.85C4.33 13.85 5.34 15.59 7.99 15.67C7.99 15.67 8.43 15.13 8.79 14.67C7.27 14.21 6.69 13.25 6.69 13.25L7.03 13.45L7.08 13.49L7.13 13.52H7.14L7.19 13.55C7.49 13.72 7.79 13.85 8.07 13.96C8.56 14.15 9.15 14.34 9.83 14.48C10.73 14.65 11.79 14.71 12.94 14.49C13.5 14.39 14.08 14.23 14.68 13.97C15.1 13.81 15.57 13.59 16.06 13.26C16.06 13.26 15.46 14.24 13.89 14.69C14.25 15.15 14.68 15.66 14.68 15.66L14.66 15.67ZM9.08 10.07C8.4 10.07 7.86 10.67 7.86 11.4C7.86 12.13 8.41 12.73 9.08 12.73C9.75 12.73 10.3 12.13 10.3 11.4C10.31 10.67 9.76 10.07 9.08 10.07ZM13.46 10.07C12.78 10.07 12.24 10.67 12.24 11.4C12.24 12.13 12.79 12.73 13.46 12.73C14.13 12.73 14.68 12.13 14.68 11.4C14.68 10.67 14.14 10.07 13.46 10.07Z" fill="#C94B32"/>
</g>
<defs>
<clipPath id="clip0_2430_2394">
<rect width="21" height="24" fill="white" transform="translate(0.75)"/>
</clipPath>
</defs>
</svg>
