<svg width="25" height="19" viewBox="0 0 25 19" fill="none" xmlns="http://www.w3.org/2000/svg">
<path d="M20.3384 1.82476C18.7613 1.10292 17.0965 0.590894 15.3864 0.301758C15.1525 0.719956 14.9408 1.15022 14.7524 1.59076C12.9293 1.3158 11.0754 1.3158 9.25235 1.59076C9.0654 1.15037 8.85545 0.720114 8.62335 0.301758C6.91205 0.593393 5.24604 1.10671 3.66735 1.82876C0.871135 5.78588 -0.39385 10.6234 0.107353 15.4428C1.94312 16.799 3.99792 17.8303 6.18235 18.4918C6.67396 17.8296 7.10883 17.1271 7.48235 16.3918C6.77231 16.1265 6.087 15.7992 5.43435 15.4138C5.60635 15.2888 5.77435 15.1608 5.93435 15.0358C7.8336 15.929 9.90655 16.3921 12.0054 16.3921C14.1042 16.3921 16.1771 15.929 18.0764 15.0358C18.2404 15.1698 18.4084 15.2978 18.5764 15.4138C17.9224 15.7999 17.2357 16.1278 16.5244 16.3938C16.8973 17.1294 17.3322 17.8319 17.8244 18.4938C20.0123 17.8348 22.0701 16.8033 23.9074 15.4448C24.4086 10.6222 23.1402 5.7818 20.3384 1.82476ZM8.02035 12.7018C7.41707 12.6659 6.85217 12.3939 6.44777 11.9448C6.04338 11.4957 5.83201 10.9055 5.85935 10.3018C5.8433 10.0024 5.8864 9.70289 5.98619 9.42024C6.08598 9.13759 6.2405 8.87738 6.44092 8.65449C6.64134 8.43159 6.88373 8.25039 7.15422 8.12123C7.42472 7.99207 7.71802 7.91749 8.01735 7.90176C8.31752 7.91568 8.61194 7.989 8.88357 8.11748C9.1552 8.24597 9.39865 8.42706 9.59982 8.65027C9.80098 8.87348 9.95588 9.13437 10.0555 9.41785C10.1552 9.70133 10.1976 10.0018 10.1804 10.3018C10.2095 10.9058 9.99895 11.4969 9.5944 11.9464C9.18985 12.3959 8.62411 12.6674 8.02035 12.7018ZM15.9944 12.7018C15.3906 12.6674 14.8249 12.3959 14.4203 11.9464C14.0158 11.4969 13.8052 10.9058 13.8344 10.3018C13.8183 10.0023 13.8615 9.70258 13.9614 9.4198C14.0613 9.13702 14.216 8.87673 14.4166 8.65381C14.6173 8.43089 14.8599 8.24972 15.1306 8.12068C15.4013 7.99163 15.6948 7.91724 15.9944 7.90176C16.2944 7.91553 16.5886 7.98879 16.8601 8.11729C17.1315 8.24579 17.3747 8.42696 17.5755 8.65028C17.7763 8.87359 17.9307 9.13459 18.0297 9.4181C18.1287 9.70162 18.1704 10.002 18.1524 10.3018C18.1821 10.9056 17.9719 11.4967 17.5677 11.9463C17.1635 12.3958 16.5979 12.6674 15.9944 12.7018Z" fill="#5865F2"/>
</svg>
