<svg width="15" height="21" viewBox="0 0 15 21" fill="none" xmlns="http://www.w3.org/2000/svg">
<path d="M5.226 18.039L0.479004 20.521L0.597004 15.111C0.604505 14.7505 0.711061 14.399 0.905004 14.095L9.124 1.179C9.25926 0.964481 9.44669 0.787752 9.66879 0.665336C9.89089 0.542919 10.1404 0.478811 10.394 0.479004H12.237C12.5281 0.479206 12.8128 0.563752 13.0569 0.722413C13.3009 0.881074 13.4937 1.10705 13.612 1.373L14.324 2.979C14.4253 3.20574 14.4688 3.45408 14.4505 3.70175C14.4321 3.94941 14.3526 4.18866 14.219 4.398L5.979 17.349C5.79292 17.6411 5.53322 17.8791 5.226 18.039V18.039Z" stroke="#C94B32" stroke-linecap="round" stroke-linejoin="round"/>
<path d="M12.7612 1.0708L4.36719 14.2648" stroke="#C94B32" stroke-linecap="round" stroke-linejoin="round"/>
<path d="M5.54619 17.426L4.84619 15.676C4.69299 15.2924 4.42328 14.9665 4.07507 14.7442C3.72685 14.5219 3.31768 14.4145 2.90519 14.437L0.992188 14.537" stroke="#C94B32" stroke-linecap="round" stroke-linejoin="round"/>
</svg>
