<svg width="173" height="164" viewBox="0 0 173 164" fill="none" xmlns="http://www.w3.org/2000/svg">
<g clip-path="url(#clip0_1522_4859)">
<path fill-rule="evenodd" clip-rule="evenodd" d="M87.5915 76.4391C83.0125 62.4751 100.545 55.9651 101.54 40.9391C100.578 30.0851 114.533 26.7591 128.92 31.4011C135.492 33.5151 151.488 43.4431 147.581 48.2231C143.122 53.6931 155.591 65.9331 156.372 70.7591C157.659 78.7111 135.336 107.539 115.985 102.023C89.0055 94.3971 95.5195 87.9671 87.5915 76.4391Z" fill="#0D5263"/>
<path fill-rule="evenodd" clip-rule="evenodd" d="M117.505 73.1111C132.399 73.6941 129.259 69.2391 135.721 75.5331C142.183 81.8271 153.006 81.7031 153.006 81.7031L157.294 64.5721L133.045 52.0061L117.505 73.1111Z" fill="#FF5C13"/>
<path fill-rule="evenodd" clip-rule="evenodd" d="M71.2386 55.854C71.2386 55.854 66.0095 67.209 88.0725 86.368C103.02 95.721 131.121 101.547 145.31 120.786C145.31 120.786 153.079 88.491 155.952 70.833C153.405 69.8756 150.692 69.4413 147.974 69.556C135.691 68.84 141.135 74.545 121.629 78.219C91.4495 83.904 71.2386 55.854 71.2386 55.854Z" fill="#FF8200"/>
<path fill-rule="evenodd" clip-rule="evenodd" d="M162.866 102.724C141.91 98.4691 94.2555 101.614 73.6435 63.7571C73.6435 63.7571 72.6815 90.0971 133.767 115.495C137.908 119.635 159.532 109.142 162.866 102.724Z" fill="#FF5C13"/>
<path fill-rule="evenodd" clip-rule="evenodd" d="M111.285 40.5832C103.808 36.8832 102.358 55.8582 107.735 65.2342C116.835 81.1832 129.016 68.9112 133.382 62.2932C138.438 54.6632 134.669 44.6932 128.188 48.3662C111.552 57.8082 115.7 42.4752 111.285 40.5832Z" fill="#FF8200"/>
<path d="M91.4485 163.225C79.6428 163.196 68.3245 158.514 59.9485 150.194L22.9625 113.208C14.6425 104.832 9.96023 93.5137 9.93152 81.7079C9.96023 69.9021 14.6425 58.5837 22.9625 50.2079L59.9495 13.2209C68.3255 4.9011 79.6438 0.218979 91.4495 0.189941C103.255 0.218979 114.574 4.9011 122.95 13.2209L159.937 50.2079C168.257 58.5837 172.939 69.9021 172.968 81.7079C172.939 93.5137 168.257 104.832 159.937 113.208C156.156 116.989 152.126 121.008 148.011 125.116C139.5 133.608 130.699 142.389 122.978 150.167C114.597 158.502 103.268 163.194 91.4485 163.225ZM91.4485 22.1549C85.4664 22.1661 79.73 24.5354 75.4835 28.7489L38.4965 65.7359C34.2828 69.9826 31.9135 75.7195 31.9025 81.7019C31.9135 87.6843 34.2828 93.4212 38.4965 97.6679L75.4825 134.655C79.7293 138.868 85.4661 141.238 91.4485 141.249C97.431 141.238 103.168 138.869 107.415 134.655C115.145 126.868 123.965 118.068 132.494 109.555C136.603 105.455 140.627 101.439 144.403 97.6649C148.616 93.4182 150.986 87.6814 150.997 81.6989C150.986 75.7165 148.616 69.9796 144.403 65.7329L107.417 28.7459C103.169 24.5331 97.4312 22.1649 91.4485 22.1549Z" fill="#188C7C"/>
<path d="M84.6505 163.225C78.8848 163.2 73.1821 162.024 67.8772 159.765C62.5723 157.506 57.7721 154.21 53.7585 150.071L17.9155 113.085C9.83106 104.637 5.31553 93.3964 5.30853 81.7031C5.31635 70.0111 9.83184 58.7723 17.9155 50.325L53.7585 13.3391C57.7721 9.1996 62.5723 5.90369 67.8772 3.64484C73.1821 1.38598 78.8848 0.209723 84.6505 0.185059C90.4163 0.209555 96.119 1.38573 101.424 3.64459C106.729 5.90346 111.529 9.19947 115.543 13.3391L151.387 50.326C159.471 58.7742 163.987 70.0146 163.994 81.708C163.987 93.4013 159.471 104.642 151.387 113.09C147.734 116.859 143.841 120.868 139.866 124.96C131.606 133.46 123.066 142.26 115.572 150.047C111.556 154.193 106.752 157.495 101.442 159.758C96.1316 162.021 90.4227 163.2 84.6505 163.225ZM84.6505 22.155C81.8275 22.1728 79.0365 22.7545 76.4413 23.8659C73.8462 24.9773 71.4993 26.596 69.5385 28.627L33.6955 65.613C29.5674 69.9515 27.2708 75.7145 27.2835 81.7031C27.2708 87.6911 29.5674 93.4534 33.6955 97.791L69.5385 134.778C71.4994 136.809 73.8463 138.428 76.4414 139.539C79.0365 140.65 81.8275 141.232 84.6505 141.25C87.4735 141.232 90.2645 140.65 92.8596 139.539C95.4547 138.428 97.8016 136.809 99.7625 134.778C107.263 126.978 115.824 118.168 124.102 109.645C128.072 105.558 131.96 101.555 135.607 97.791C139.735 93.4534 142.031 87.6911 142.019 81.7031C142.031 75.7148 139.735 69.952 135.607 65.614L99.7655 28.6251C97.8042 26.5941 95.4567 24.9755 92.8611 23.8644C90.2654 22.7533 87.4739 22.1721 84.6505 22.155Z" fill="#2A618D"/>
<path d="M75.3686 54.4719L62.9596 17.4859C60.7916 11.0229 55.5206 0.180908 44.5796 0.180908C33.6386 0.180908 26.3726 1.26491 24.2046 7.72791L13.7906 54.4729C11.2996 61.8979 9.92755 71.5729 9.92755 81.7039C9.92755 91.8349 11.2996 101.51 13.7906 108.934L24.2046 156.713C26.3726 163.176 33.6386 163.227 44.5796 163.227C55.5206 163.227 60.7916 152.385 62.9676 145.898C65.5676 138.091 68.5406 129.252 71.3906 120.774C72.7636 116.692 74.1075 112.694 75.3695 108.934C77.8605 101.509 79.2325 91.8339 79.2325 81.7039C79.2325 71.5739 77.8596 61.8969 75.3686 54.4719Z" fill="#E64460"/>
<path d="M65.4715 54.292L53.0625 17.306C50.8945 10.843 45.6235 0.000976562 34.6825 0.000976562C23.7415 0.000976562 18.4705 10.844 16.3025 17.306L3.89352 54.292C1.40152 61.717 0.029541 71.392 0.029541 81.5229C0.029541 91.6539 1.40155 101.329 3.89255 108.753L16.3015 145.739C18.4695 152.202 23.7416 163.045 34.6815 163.045C45.6215 163.045 50.8936 152.202 53.0695 145.716C55.6695 137.909 58.6425 129.069 61.4935 120.592C62.8655 116.511 64.2105 112.512 65.4715 108.752C67.9625 101.327 69.3345 91.652 69.3345 81.522C69.3345 71.392 67.9625 61.716 65.4715 54.292Z" fill="#B51C48"/>
<path d="M50.6706 104.766C54.0351 104.766 56.7626 100.321 56.7626 94.8379C56.7626 89.3548 54.0351 84.9099 50.6706 84.9099C47.306 84.9099 44.5786 89.3548 44.5786 94.8379C44.5786 100.321 47.306 104.766 50.6706 104.766Z" fill="#0D5263"/>
<path d="M46.8346 96.2959C52.3176 96.2959 56.7626 91.851 56.7626 86.3679C56.7626 80.8849 52.3176 76.4399 46.8346 76.4399C41.3515 76.4399 36.9066 80.8849 36.9066 86.3679C36.9066 91.851 41.3515 96.2959 46.8346 96.2959Z" fill="#E64460"/>
</g>
<defs>
<clipPath id="clip0_1522_4859">
<rect width="172.941" height="163.225" fill="white" transform="translate(0.029541)"/>
</clipPath>
</defs>
</svg>
