<svg width="107" height="62" viewBox="0 0 107 62" fill="none" xmlns="http://www.w3.org/2000/svg">
<g clip-path="url(#clip0_1691_1451)">
<path d="M22.748 5.26883L4.60912 23.3325C0.31112 27.6126 0.31112 34.5522 4.60912 38.8323L22.748 56.896C27.046 61.1761 34.0144 61.1761 38.3124 56.896L56.4512 38.8323C60.7492 34.5522 60.7492 27.6126 56.4512 23.3325L38.3124 5.26883C34.0144 0.988657 27.046 0.988656 22.748 5.26883Z" stroke="#C94B32" stroke-miterlimit="10" stroke-linecap="round"/>
<path d="M22.748 5.26883L4.60912 23.3325C0.31112 27.6126 0.31112 34.5522 4.60912 38.8323L22.748 56.896C27.046 61.1761 34.0144 61.1761 38.3124 56.896L56.4512 38.8323C60.7492 34.5522 60.7492 27.6126 56.4512 23.3325L38.3124 5.26883C34.0144 0.988657 27.046 0.988656 22.748 5.26883Z" stroke="#C94B32" stroke-miterlimit="10" stroke-linecap="round"/>
<path d="M20.5383 23.7204V38.4722C20.5383 39.8937 21.6955 41.0461 23.123 41.0461H37.9363C39.3637 41.0461 40.5209 39.8937 40.5209 38.4722V23.7204C40.5209 22.2988 39.3637 21.1464 37.9363 21.1464H23.123C21.6955 21.1464 20.5383 22.2988 20.5383 23.7204Z" stroke="#C94B32" stroke-miterlimit="10" stroke-linecap="round"/>
<path d="M50.6375 17.6315C55.5289 8.44273 65.2562 2.18774 76.4286 2.18774C92.5481 2.18774 105.61 15.1959 105.61 31.2485C105.61 47.3012 92.5481 60.3093 76.4286 60.3093C65.2562 60.3093 55.5289 54.0543 50.6375 44.8656" stroke="#C94B32" stroke-miterlimit="10" stroke-linecap="round"/>
<path d="M76.6787 36.5348C81.7593 36.5348 85.8779 32.4332 85.8779 27.3737C85.8779 22.3142 81.7593 18.2126 76.6787 18.2126C71.5981 18.2126 67.4795 22.3142 67.4795 27.3737C67.4795 32.4332 71.5981 36.5348 76.6787 36.5348Z" stroke="#C94B32" stroke-miterlimit="10" stroke-linecap="round"/>
<path d="M88.9073 56.4622C88.9073 49.5983 83.321 44.0076 76.4008 44.0076C69.4805 44.0076 63.8943 49.5706 63.8943 56.4622" stroke="#C94B32" stroke-miterlimit="10" stroke-linecap="round"/>
</g>
<defs>
<clipPath id="clip0_1691_1451">
<rect width="107" height="61" fill="white" transform="translate(0 0.693115)"/>
</clipPath>
</defs>
</svg>
