<svg width="25" height="25" viewBox="0 0 25 25" fill="none" xmlns="http://www.w3.org/2000/svg">
<path fill-rule="evenodd" clip-rule="evenodd" d="M12.3035 0.734375C5.50583 0.734375 0 6.2402 0 13.0379C0 18.4822 3.52188 23.0807 8.41254 24.7109C9.02771 24.8185 9.2584 24.4494 9.2584 24.1265C9.2584 23.8342 9.24302 22.8653 9.24302 21.8349C6.15176 22.404 5.35203 21.0813 5.10596 20.3893C4.96755 20.0355 4.36775 18.9436 3.84485 18.6514C3.41423 18.4207 2.79905 17.8517 3.82947 17.8363C4.79838 17.8209 5.49045 18.7283 5.72114 19.0974C6.82846 20.9583 8.59709 20.4354 9.30454 20.1124C9.4122 19.3127 9.73516 18.7744 10.0889 18.4668C7.35136 18.1592 4.49079 17.0981 4.49079 12.392C4.49079 11.054 4.96755 9.94664 5.7519 9.08539C5.62886 8.7778 5.19824 7.51669 5.87493 5.82496C5.87493 5.82496 6.90535 5.50199 9.2584 7.08607C10.2427 6.80924 11.2885 6.67083 12.3343 6.67083C13.3801 6.67083 14.4259 6.80924 15.4102 7.08607C17.7632 5.48661 18.7936 5.82496 18.7936 5.82496C19.4703 7.51669 19.0397 8.7778 18.9167 9.08539C19.701 9.94664 20.1778 11.0386 20.1778 12.392C20.1778 17.1134 17.3018 18.1592 14.5643 18.4668C15.0103 18.8513 15.3948 19.5895 15.3948 20.743C15.3948 22.3886 15.3794 23.7112 15.3794 24.1265C15.3794 24.4494 15.6101 24.8339 16.2253 24.7109C21.0852 23.0807 24.6071 18.4668 24.6071 13.0379C24.6071 6.2402 19.1012 0.734375 12.3035 0.734375Z" fill="rgb(201, 75, 50)"/>
</svg>
