<svg width="16" height="16" viewBox="0 0 16 16" fill="none" xmlns="http://www.w3.org/2000/svg">
<path d="M8 1.077C9.60069 1.07854 11.1513 1.63494 12.3878 2.65143C13.6243 3.66793 14.4702 5.08165 14.7814 6.65179C15.0925 8.22194 14.8497 9.8514 14.0943 11.2626C13.339 12.6739 12.1177 13.7796 10.6386 14.3915C9.15947 15.0033 7.51397 15.0835 5.98237 14.6183C4.45077 14.1532 3.12779 13.1714 2.23878 11.8403C1.34977 10.5092 0.949712 8.91108 1.10675 7.31812C1.26378 5.72515 1.96819 4.2359 3.1 3.104C3.74196 2.45866 4.50564 1.94718 5.34678 1.59922C6.18791 1.25127 7.08975 1.07376 8 1.077ZM8 0C6.41775 0 4.87103 0.469192 3.55544 1.34824C2.23985 2.22729 1.21447 3.47672 0.608967 4.93853C0.00346625 6.40034 -0.15496 8.00887 0.153721 9.56072C0.462403 11.1126 1.22433 12.538 2.34315 13.6569C3.46197 14.7757 4.88743 15.5376 6.43928 15.8463C7.99113 16.155 9.59966 15.9965 11.0615 15.391C12.5233 14.7855 13.7727 13.7602 14.6518 12.4446C15.5308 11.129 16 9.58225 16 8C16 5.87827 15.1571 3.84344 13.6569 2.34315C12.1566 0.842855 10.1217 0 8 0Z" fill="#D1D4D9"/>
<path d="M8.02609 4.30816C9.46809 4.30816 10.4611 5.10816 10.4611 6.25816C10.4622 6.61622 10.361 6.96715 10.1695 7.2697C9.97802 7.57226 9.70415 7.81388 9.38008 7.96616C8.71108 8.35416 8.48009 8.63916 8.48009 9.13116V9.43116H7.15009L7.13809 9.10016C7.08598 8.75786 7.14632 8.40789 7.31004 8.1028C7.47377 7.79771 7.73204 7.55397 8.04609 7.40816C8.69609 7.02016 8.96909 6.77316 8.96909 6.29616C8.95578 6.17376 8.91841 6.05519 8.85912 5.94728C8.79982 5.83937 8.71978 5.74425 8.62359 5.6674C8.5274 5.59054 8.41696 5.53346 8.29863 5.49943C8.1803 5.46541 8.05641 5.45512 7.93409 5.46916C7.80376 5.46133 7.67319 5.47981 7.55015 5.52351C7.42712 5.5672 7.31413 5.6352 7.21793 5.72348C7.12173 5.81175 7.04428 5.91848 6.99019 6.03731C6.9361 6.15614 6.90647 6.28464 6.90309 6.41516H5.53809C5.5484 6.10823 5.62287 5.80685 5.75669 5.53043C5.89051 5.25401 6.08072 5.00867 6.31508 4.8102C6.54944 4.61173 6.82275 4.46453 7.11744 4.37806C7.41212 4.29159 7.72164 4.26778 8.02609 4.30816ZM7.01409 10.9002C7.0073 10.7354 7.04999 10.5724 7.13666 10.432C7.22333 10.2917 7.35002 10.1806 7.50041 10.1129C7.65079 10.0452 7.81799 10.0241 7.98048 10.0523C8.14297 10.0805 8.29331 10.1566 8.41214 10.271C8.53097 10.3853 8.61285 10.5326 8.64723 10.6939C8.68162 10.8552 8.66694 11.0231 8.60508 11.176C8.54322 11.3289 8.43702 11.4597 8.30015 11.5517C8.16327 11.6437 8.002 11.6926 7.83709 11.6922C7.73107 11.6943 7.62568 11.6755 7.52695 11.6368C7.42822 11.5981 7.33809 11.5403 7.26173 11.4667C7.18537 11.3932 7.12428 11.3053 7.08195 11.208C7.03963 11.1108 7.01691 11.0062 7.01509 10.9002H7.01409Z" fill="#D1D4D9"/>
</svg>
