<svg width="57" height="57" viewBox="0 0 57 57" fill="none" xmlns="http://www.w3.org/2000/svg">
<path d="M26.9868 35.4528H24.0083V29.0758C24.0083 27.5003 23.4224 26.7125 22.2505 26.7125C21.4172 26.7125 20.8149 26.9957 20.4438 27.5621C20.0728 28.1285 19.8872 29.0465 19.8872 30.316V35.4528H16.9087V20.2574H19.8872V23.3531C19.8872 23.594 19.8644 24.1604 19.8188 25.0524L19.7505 25.9313H19.9067C20.5708 24.8636 21.6255 24.3297 23.0708 24.3297C24.3534 24.3297 25.3267 24.6748 25.9907 25.3649C26.6548 26.055 26.9868 27.0446 26.9868 28.3336V35.4528ZM32.9146 29.5153L34.2134 27.8551L37.27 24.5348H40.6294L36.2935 29.2711L40.8931 35.4528H37.4556L34.311 31.0289L33.0317 32.0543V35.4528H30.0532V20.2574H33.0317V27.0348L32.8755 29.5153H32.9146Z" fill="#76808D"/>
<path d="M21.9001 6.79853L6.78633 21.8496C3.20513 25.4159 3.20513 31.1981 6.78633 34.7644L21.9001 49.8155C25.4812 53.3818 31.2875 53.3818 34.8687 49.8155L49.9824 34.7644C53.5636 31.1981 53.5636 25.4159 49.9824 21.8496L34.8687 6.79853C31.2875 3.23218 25.4812 3.23218 21.9001 6.79853Z" stroke="#76808D" stroke-miterlimit="10" stroke-linecap="round"/>
</svg>
