<svg width="17" height="22" viewBox="0 0 17 22" fill="none" xmlns="http://www.w3.org/2000/svg">
<g clip-path="url(#clip0_34_2284)">
<path d="M9.63794 11.9181L9.13794 12.4181C8.90374 12.6523 8.6256 12.8381 8.31958 12.9649C8.01356 13.0917 7.68548 13.1569 7.35425 13.1569C7.02301 13.1569 6.69518 13.0917 6.38916 12.9649C6.08314 12.8381 5.805 12.6523 5.5708 12.4181L4.37085 11.218C4.13661 10.9839 3.95075 10.7058 3.82397 10.3998C3.6972 10.0938 3.63208 9.76581 3.63208 9.43457C3.63208 9.10333 3.6972 8.77535 3.82397 8.46933C3.95075 8.16331 4.13661 7.88526 4.37085 7.65106L10.2808 1.74106C10.515 1.50682 10.7931 1.32102 11.0991 1.19424C11.4051 1.06747 11.7332 1.0022 12.0645 1.0022C12.3957 1.0022 12.7235 1.06747 13.0295 1.19424C13.3356 1.32102 13.6137 1.50682 13.8479 1.74106L15.0479 2.94107C15.2822 3.1752 15.4681 3.45322 15.595 3.75925C15.7218 4.06527 15.7871 4.39328 15.7871 4.72455C15.7871 5.05582 15.7218 5.38386 15.595 5.68988C15.4681 5.99591 15.2822 6.27393 15.0479 6.50806L11.4399 10.1151" stroke="#C94B32" stroke-linecap="round"/>
<path d="M5.16284 11.576L7.14697 9.59C7.62008 9.11717 8.26154 8.85156 8.93042 8.85156C9.5993 8.85156 10.2408 9.11717 10.7139 9.59L11.9138 10.79C12.3866 11.2631 12.6523 11.9046 12.6523 12.5735C12.6523 13.2424 12.3866 13.8839 11.9138 14.357L6.00391 20.267C5.53084 20.7395 4.88958 21.0049 4.22095 21.0049C3.55231 21.0049 2.91106 20.7395 2.43799 20.267L1.23804 19.067C1.00383 18.8329 0.817922 18.5549 0.691162 18.249C0.564402 17.9431 0.499268 17.6152 0.499268 17.284C0.499268 16.9528 0.564402 16.6249 0.691162 16.319C0.817922 16.0131 1.00383 15.7351 1.23804 15.501L3.41504 13.325" stroke="#C94B32" stroke-linecap="round"/>
</g>
<defs>
<clipPath id="clip0_34_2284">
<rect width="16.29" height="21.183" fill="white" transform="translate(0 0.5)"/>
</clipPath>
</defs>
</svg>
