<svg width="64" height="57" viewBox="0 0 64 57" fill="none" xmlns="http://www.w3.org/2000/svg">
<path d="M42.0348 25.0351C41.8174 24.2422 41.503 23.4791 41.0988 22.7632L42.9178 18.9511C42.2371 18.1208 41.4761 17.3598 40.6458 16.6792L36.8338 18.4982C36.1178 18.0942 35.3547 17.7802 34.5618 17.5631L33.1478 13.5752C32.6168 13.5252 32.0888 13.4751 31.5578 13.4751C31.026 13.4699 30.4946 13.5033 29.9678 13.5752L28.5528 17.5591C27.7613 17.7805 26.9988 18.0944 26.2808 18.4941L22.4688 16.6751C21.638 17.3553 20.8769 18.1164 20.1968 18.9471L22.0138 22.7591C21.6109 23.4755 21.2972 24.2385 21.0798 25.0311L17.0918 26.4451C17.0398 26.9761 16.9918 27.5041 16.9918 28.0351C16.9865 28.5669 17.0199 29.0983 17.0918 29.6252L21.0798 31.0391C21.2969 31.8319 21.6106 32.5949 22.0138 33.3111L20.1968 37.1232C20.8764 37.9544 21.6375 38.7155 22.4688 39.3951L26.2808 37.5781C26.997 37.9813 27.76 38.295 28.5528 38.5121L29.9668 42.5002C30.4958 42.5522 31.0258 42.6001 31.5568 42.6001C32.0885 42.6054 32.6199 42.572 33.1468 42.5002L34.5608 38.5121C35.3534 38.2947 36.1164 37.981 36.8328 37.5781L40.6448 39.3951C41.4756 38.715 42.2366 37.954 42.9168 37.1232L41.0978 33.3111C41.5024 32.5954 41.8168 31.8322 42.0338 31.0391L46.0218 29.6252C46.0718 29.0962 46.1218 28.5661 46.1218 28.0351C46.1271 27.5034 46.0936 26.972 46.0218 26.4451L42.0338 25.0311L42.0348 25.0351ZM26.6838 28.2412C26.6834 29.2001 26.9674 30.1376 27.4998 30.9351C28.0323 31.7326 28.7893 32.3543 29.6751 32.7215C30.5609 33.0888 31.5358 33.1851 32.4763 32.9982C33.4169 32.8114 34.2809 32.3498 34.9591 31.6719C35.6373 30.994 36.0992 30.1302 36.2865 29.1897C36.4737 28.2492 36.3778 27.2743 36.0109 26.3884C35.644 25.5024 35.0227 24.7451 34.2254 24.2123C33.4281 23.6795 32.4907 23.3951 31.5318 23.3951C30.2464 23.3954 29.0138 23.906 28.1047 24.8147C27.1956 25.7234 26.6846 26.9558 26.6838 28.2412Z" stroke="#C94B32" stroke-miterlimit="10" stroke-linecap="round"/>
<mask id="mask0_236_3162" style="mask-type:luminance" maskUnits="userSpaceOnUse" x="31" y="0" width="29" height="29">
<path d="M59.858 0H31.835V28.023H59.858V0Z" fill="white"/>
</mask>
<g mask="url(#mask0_236_3162)">
<path d="M31.8345 55.546C47.0351 55.546 59.3575 43.2235 59.3575 28.023C59.3575 12.8225 47.0351 0.5 31.8345 0.5C16.634 0.5 4.31152 12.8225 4.31152 28.023C4.31152 43.2235 16.634 55.546 31.8345 55.546Z" stroke="#C94B32"/>
</g>
<path d="M55.4779 24.8418L59.0779 28.5758L62.6709 24.8418" stroke="#C94B32" stroke-linecap="round"/>
<mask id="mask1_236_3162" style="mask-type:luminance" maskUnits="userSpaceOnUse" x="3" y="28" width="29" height="29">
<path d="M3.81396 56.0449H31.835L31.835 28.0199L3.81396 28.0199L3.81396 56.0449Z" fill="white"/>
</mask>
<g mask="url(#mask1_236_3162)">
<path d="M31.8354 0.494923C16.636 0.494923 4.31445 12.8183 4.31445 28.0199C4.31445 43.2216 16.636 55.5449 31.8354 55.5449C47.0349 55.5449 59.3564 43.2216 59.3564 28.0199C59.3564 12.8183 47.0349 0.494923 31.8354 0.494923Z" stroke="#C94B32"/>
</g>
<path d="M8.192 31.2012L4.592 27.4672L1 31.2012" stroke="#C94B32" stroke-linecap="round"/>
</svg>
