<svg width="24" height="24" viewBox="0 0 24 24" fill="none" xmlns="http://www.w3.org/2000/svg">
<path d="M24 2.8842C24 2.50544 23.9254 2.13039 23.7805 1.78046C23.6355 1.43054 23.4231 1.11259 23.1552 0.844763C22.8874 0.57694 22.5695 0.364491 22.2195 0.219547C21.8696 0.0746021 21.4946 0 21.1158 0H2.8842C2.11926 0 1.38566 0.30387 0.844763 0.844763C0.30387 1.38566 0 2.11926 0 2.8842V21.1158C0 21.4946 0.0746021 21.8696 0.219547 22.2195C0.364491 22.5695 0.57694 22.8874 0.844763 23.1552C1.11259 23.4231 1.43054 23.6355 1.78046 23.7805C2.13039 23.9254 2.50544 24 2.8842 24H21.1158C21.4946 24 21.8696 23.9254 22.2195 23.7805C22.5695 23.6355 22.8874 23.4231 23.1552 23.1552C23.4231 22.8874 23.6355 22.5695 23.7805 22.2195C23.9254 21.8696 24 21.4946 24 21.1158V2.8842ZM10.86 18.7698C10.8539 18.9399 10.8139 19.1071 10.7423 19.2616C10.6707 19.416 10.569 19.5546 10.4432 19.6692C10.3173 19.7838 10.1698 19.8722 10.0094 19.929C9.84894 19.9859 9.67875 20.0102 9.5088 20.0004H4.2978C4.13317 20.0085 3.96867 19.9823 3.81467 19.9236C3.66067 19.8648 3.52052 19.7748 3.40307 19.6591C3.28563 19.5435 3.19344 19.4048 3.13232 19.2517C3.07121 19.0986 3.04249 18.9345 3.048 18.7698V4.2342C3.03167 3.8857 3.15397 3.54492 3.38816 3.28632C3.62235 3.02773 3.9494 2.87237 4.2978 2.8542H9.5064C9.86557 2.86723 10.206 3.01768 10.4575 3.27448C10.7089 3.53129 10.8521 3.87484 10.8576 4.2342L10.86 18.7698ZM21.336 6.1098V12.1848C21.3397 12.3571 21.3093 12.5284 21.2467 12.689C21.1842 12.8496 21.0905 12.9962 20.9712 13.1206C20.8519 13.245 20.7093 13.3446 20.5515 13.4138C20.3936 13.4831 20.2237 13.5205 20.0514 13.524H14.8428C14.4911 13.5185 14.1557 13.375 13.9087 13.1245C13.6618 12.874 13.5232 12.5365 13.5228 12.1848V4.1652C13.5235 3.99262 13.5582 3.82187 13.625 3.66271C13.6917 3.50356 13.7891 3.35911 13.9117 3.23764C14.0343 3.11616 14.1796 3.02004 14.3394 2.95476C14.4992 2.88948 14.6702 2.85633 14.8428 2.8572H20.0484C20.2191 2.85717 20.3881 2.89116 20.5455 2.95717C20.7029 3.02319 20.8455 3.11991 20.9651 3.24169C21.0847 3.36346 21.1789 3.50785 21.242 3.66642C21.3052 3.82498 21.3361 3.99455 21.333 4.1652L21.336 6.1098Z" fill="#23719F"/>
</svg>
