<svg width="32" height="24" viewBox="0 0 32 24" fill="none" xmlns="http://www.w3.org/2000/svg">
<path d="M26.8321 2.01003C24.7516 1.05752 22.5553 0.381757 20.2993 0C19.9906 0.551954 19.7113 1.11984 19.4625 1.70128C17.0594 1.33917 14.6156 1.33917 12.2125 1.70128C11.9633 1.11988 11.6837 0.552004 11.3749 0C9.1172 0.384852 6.91927 1.06214 4.83655 2.01478C1.14801 7.23628 -0.520114 13.619 0.142002 19.9776C2.56325 21.7665 5.27332 23.127 8.1544 24C8.80341 23.1263 9.37755 22.1994 9.87073 21.2292C8.93369 20.8792 8.02929 20.4474 7.16799 19.9388C7.39441 19.7741 7.61608 19.6047 7.83062 19.4408C10.3365 20.6193 13.0715 21.2303 15.8406 21.2303C18.6098 21.2303 21.3448 20.6193 23.8507 19.4408C24.0676 19.6174 24.2893 19.7868 24.5133 19.9388C23.6504 20.4482 22.7444 20.8808 21.8058 21.2316C22.2976 22.2013 22.871 23.1274 23.5198 24C26.4041 23.1307 29.117 21.7708 31.5393 19.9799C32.2009 13.6174 30.528 7.23114 26.8321 2.01003ZM10.5801 16.3613C9.78483 16.3152 9.03977 15.9577 8.50631 15.3662C7.97285 14.7746 7.69396 13.9967 7.73007 13.2009C7.70786 12.8053 7.76406 12.4091 7.89543 12.0352C8.02681 11.6612 8.23077 11.317 8.4956 11.0221C8.76043 10.7273 9.08091 10.4877 9.43863 10.3171C9.79635 10.1465 10.1843 10.0482 10.5801 10.028C10.9767 10.0464 11.3657 10.1433 11.7245 10.3133C12.0833 10.4832 12.4048 10.7227 12.6703 11.0179C12.9358 11.3131 13.14 11.6581 13.2711 12.0328C13.4022 12.4076 13.4576 12.8046 13.434 13.2009C13.4709 13.9975 13.1918 14.7765 12.6573 15.3683C12.1228 15.9602 11.3763 16.317 10.5801 16.3613ZM21.1004 16.3613C20.3049 16.316 19.5594 15.9587 19.0257 15.367C18.4921 14.7753 18.2135 13.9969 18.2505 13.2009C18.2283 12.8053 18.2844 12.4091 18.4158 12.0352C18.5472 11.6612 18.7512 11.317 19.016 11.0221C19.2808 10.7273 19.6013 10.4877 19.959 10.3171C20.3167 10.1465 20.7046 10.0482 21.1004 10.028C21.497 10.0458 21.8861 10.1424 22.245 10.3123C22.6039 10.4821 22.9253 10.7216 23.1906 11.017C23.4559 11.3124 23.6597 11.6576 23.7902 12.0325C23.9206 12.4075 23.9751 12.8047 23.9504 13.2009C23.988 13.9969 23.7097 14.7755 23.1761 15.3674C22.6426 15.9592 21.8968 16.3164 21.1012 16.3613H21.1004Z" fill="#5865F2"/>
</svg>
