<svg width="25" height="24" viewBox="0 0 25 24" fill="none" xmlns="http://www.w3.org/2000/svg">
<path fill-rule="evenodd" clip-rule="evenodd" d="M12.2216 0C9.31104 0.0220572 6.50239 1.0743 4.29383 2.97009C2.08527 4.86587 0.619572 7.48264 0.156727 10.3562C-0.306118 13.2298 0.26381 16.1745 1.76541 18.6678C3.26702 21.1612 5.60323 23.0421 8.35965 23.977C8.96609 24.099 9.18877 23.7122 9.18877 23.3864C9.18877 23.1015 9.16864 22.1235 9.16864 21.1046C5.7716 21.8367 5.06388 19.6404 5.06388 19.6404C4.8485 18.8963 4.36596 18.258 3.70885 17.8479C2.59725 17.0944 3.78999 17.0944 3.78999 17.0944C4.17924 17.1467 4.55124 17.2878 4.87728 17.5068C5.20331 17.7258 5.47465 18.0168 5.67032 18.3573C5.8341 18.6607 6.05689 18.9284 6.32559 19.1445C6.59429 19.3605 6.90348 19.5207 7.23499 19.6156C7.56649 19.7105 7.91361 19.7381 8.25595 19.6969C8.59828 19.6557 8.92892 19.5464 9.22843 19.3756C9.28 18.7525 9.5524 18.1683 9.99655 17.7283C7.28709 17.4434 4.4367 16.3861 4.4367 11.6584C4.42223 10.4397 4.86999 9.2608 5.68985 8.35899C5.3191 7.29593 5.36267 6.13219 5.81187 5.09983C5.81187 5.09983 6.84294 4.77404 9.16742 6.36274C11.1665 5.81951 13.2743 5.81951 15.2733 6.36274C17.5984 4.77648 18.6289 5.09983 18.6289 5.09983C19.0781 6.13218 19.1217 7.29594 18.7509 8.35899C19.5783 9.25402 20.0277 10.4342 20.0053 11.6529C20.0053 16.3788 17.1549 17.4172 14.4247 17.7228C14.7183 18.0214 14.9443 18.3797 15.0873 18.7732C15.2304 19.1668 15.2871 19.5865 15.2538 20.004C15.2538 21.6513 15.2337 22.9776 15.2337 23.3852C15.2337 23.711 15.4563 24.0984 16.0628 23.9763C18.8165 23.0412 21.1504 21.1618 22.6513 18.6709C24.1522 16.1799 24.7231 13.2383 24.2631 10.3667C23.8031 7.4952 22.3417 4.87911 20.1378 2.98172C17.9339 1.08433 15.1296 0.0280796 12.2216 0Z" fill="#24292F"/>
</svg>
