<svg width="58" height="26" viewBox="0 0 58 26" fill="none" xmlns="http://www.w3.org/2000/svg">
<g clip-path="url(#clip0_1934_1557)">
<path d="M11.4632 0.968376L0.638184 7.21838V19.7184L11.4632 25.9684L22.2882 19.7184V7.21838L11.4632 0.968376ZM10.7132 24.2496C10.5819 24.3059 10.4632 24.3746 10.3507 24.4621L2.50068 19.9246C2.59443 19.1059 2.14443 18.3246 1.38818 17.9934V8.93713C1.51943 8.88088 1.63818 8.81213 1.75068 8.72463L9.60068 13.2559C9.50693 14.0746 9.96318 14.8559 10.7132 15.1871V24.2496ZM10.3444 11.9559L2.49443 7.42463C2.51318 7.28713 2.51318 7.14338 2.49443 7.00588L10.3444 2.47463C11.0069 2.96213 11.9069 2.96213 12.5694 2.47463L20.4194 7.00588C20.4007 7.14338 20.4069 7.28713 20.4194 7.42463L12.5694 11.9559C11.9069 11.4684 11.0069 11.4684 10.3444 11.9559ZM21.5382 17.9496C20.7819 18.2809 20.3319 19.0621 20.4257 19.8809L12.5757 24.4121C12.4632 24.3309 12.3382 24.2559 12.2132 24.1996V15.1871C12.9569 14.8559 13.4069 14.0746 13.3194 13.2559L21.1757 8.67463C21.2882 8.75588 21.4132 8.83088 21.5382 8.88713V17.9496Z" fill="white"/>
<path d="M27.5757 7.18088H26.1069V19.6559H27.5757V7.18088Z" fill="white"/>
<path d="M33.9946 13.1621C33.4321 13.1621 31.8259 13.1434 31.8259 13.1434V8.49338H34.4071C35.9446 8.49338 37.0571 9.09338 37.0571 10.5621C37.0571 11.8121 36.8321 13.1621 34.0009 13.1621H33.9946ZM31.8259 19.6559V14.3246C32.4571 14.3746 33.3446 14.4434 33.8571 14.4434C37.5509 14.4434 38.5571 12.8559 38.5571 10.5309C38.5571 8.20588 36.7446 7.18088 34.3696 7.18088H30.3384V19.6559H31.8259Z" fill="white"/>
<path d="M46.7569 12.6684H41.6132V8.46213H46.9257L47.0444 7.18088H40.1382V19.6559H41.6069V13.8621H46.7507V12.6684H46.7569Z" fill="white"/>
<path d="M48.8196 17.6246C49.9321 18.1746 51.3634 18.5809 52.9571 18.5809C54.7321 18.5809 55.6759 17.7934 55.6759 16.1059C55.6759 15.0996 55.2634 14.4121 53.6759 14.0184L51.2134 13.4059C49.4884 12.9809 48.4134 12.0559 48.4134 10.3996C48.4134 7.97463 50.2259 6.93088 52.9571 6.93088C54.4759 6.93088 55.8446 7.30588 56.7009 7.83713L56.2759 8.99963C55.6071 8.64338 54.2946 8.21213 52.9446 8.21213C50.9634 8.21213 49.9196 8.88088 49.9196 10.3121C49.9196 11.2871 50.5696 11.8184 51.7634 12.1059L54.1071 12.6684C55.9696 13.1121 57.1634 14.0184 57.1634 16.0496C57.1634 18.6496 55.4196 19.8434 52.8759 19.8434C50.7071 19.8434 49.1509 19.2809 48.4009 18.8184L48.8259 17.6246H48.8196Z" fill="white"/>
</g>
<defs>
<clipPath id="clip0_1934_1557">
<rect width="56.5188" height="25" fill="white" transform="translate(0.638184 0.968376)"/>
</clipPath>
</defs>
</svg>
