<svg width="138" height="81" viewBox="0 0 138 81" fill="none" xmlns="http://www.w3.org/2000/svg">
<g opacity="0.3" clip-path="url(#clip0_1111_3344)">
<path d="M4.44196 53.5957V72.107C4.39172 72.9884 4.53021 73.8703 4.84815 74.6938C5.17108 75.3039 5.6696 75.8028 6.27912 76.1261L8.67026 77.4944L6.70579 80.9999C4.22894 79.8047 2.49199 78.6646 1.49494 77.5795C0.497886 76.4945 -0.000426182 74.9413 2.73486e-07 72.9202V53.5957H4.44196Z" fill="#C94B32"/>
<path d="M10.2508 66.0775C10.7769 64.7322 11.5706 63.508 12.5838 62.4792C13.597 61.4504 14.8086 60.6385 16.1449 60.0927C17.6491 59.479 19.2613 59.1742 20.8856 59.1963C22.51 59.1743 24.1224 59.4791 25.6269 60.0927C26.963 60.6388 28.1744 61.4508 29.1876 62.4796C30.2008 63.5083 30.9946 64.7324 31.5209 66.0775C32.5461 68.6584 32.5461 71.5341 31.5209 74.115C30.9948 75.4602 30.201 76.6845 29.1878 77.7133C28.1746 78.7422 26.9631 79.5543 25.6269 80.1004C24.1223 80.7136 22.51 81.0185 20.8856 80.9968C19.2613 81.0186 17.6492 80.7138 16.1449 80.1004C14.8085 79.5546 13.5968 78.7426 12.5836 77.7137C11.5704 76.6847 10.7767 75.4604 10.2508 74.115C9.22563 71.5341 9.22563 68.6584 10.2508 66.0775ZM16.102 74.8628C16.7227 75.4991 17.4679 76.0003 18.291 76.335C19.1141 76.6697 19.9974 76.8307 20.8856 76.808C21.7775 76.8349 22.6652 76.6759 23.4925 76.341C24.3197 76.0061 25.0683 75.5027 25.6908 74.8628C26.911 73.5762 27.5913 71.8699 27.5913 70.0959C27.5913 68.3219 26.911 66.6156 25.6908 65.329C25.0678 64.6901 24.319 64.1877 23.4918 63.8536C22.6646 63.5195 21.7771 63.3611 20.8856 63.3883C19.561 63.3972 18.2684 63.7959 17.1687 64.5348C16.0689 65.2737 15.2106 66.3201 14.7007 67.5437C14.1907 68.7673 14.0517 70.1141 14.3009 71.4162C14.5501 72.7183 15.1764 73.9183 16.102 74.8667" fill="#C94B32"/>
<path d="M36.3896 67.4899C36.3896 64.954 37.1227 62.9377 38.5889 61.4411C39.2783 60.7158 40.1108 60.1417 41.0336 59.7552C41.9564 59.3688 42.9493 59.1785 43.9494 59.1963C45.3276 59.1549 46.6895 59.503 47.879 60.2009C48.9114 60.8125 49.7087 61.7534 50.1428 62.8728H50.2279C50.6655 61.7489 51.4714 60.8068 52.5135 60.2009C53.6967 59.5083 55.0498 59.1603 56.42 59.1963C57.42 59.1787 58.4128 59.3691 59.3354 59.7555C60.258 60.1419 61.0905 60.7159 61.7799 61.4411C63.2461 62.9373 63.9794 64.9535 63.9798 67.4899V80.4436H59.5391V67.5328C59.5951 66.4931 59.2425 65.4727 58.5566 64.69C58.2488 64.3521 57.8724 64.084 57.4526 63.9036C57.0328 63.7233 56.5793 63.6349 56.1226 63.6444C55.6189 63.62 55.1159 63.7046 54.6478 63.8925C54.1798 64.0803 53.7577 64.367 53.4103 64.7329C52.7404 65.4585 52.4058 66.5916 52.4067 68.1321V80.4442H47.9641V68.1315C47.9641 66.5948 47.6295 65.4617 46.9604 64.7322C46.613 64.3665 46.191 64.08 45.7231 63.8922C45.2552 63.7043 44.7523 63.6196 44.2488 63.6437C43.7917 63.6344 43.3379 63.723 42.9179 63.9037C42.4979 64.0843 42.1213 64.3529 41.8135 64.6912C41.1278 65.4741 40.7754 66.4945 40.8316 67.5341V80.4448H36.3896V67.4899Z" fill="#C94B32"/>
<path d="M85.6785 77.9228H85.5896C84.8315 78.8981 83.842 79.6684 82.711 80.1638C81.4841 80.7222 80.1504 81.0063 78.8026 80.9962C77.2729 81.0155 75.7573 80.702 74.3606 80.0774C73.0629 79.4966 71.8987 78.6541 70.9409 77.6027C70.0091 76.5753 69.2841 75.3776 68.8056 74.0754C68.3284 72.804 68.0825 71.4573 68.0796 70.0992C68.0877 68.7724 68.3482 67.4592 68.8472 66.2299C69.3666 64.9225 70.1189 63.7204 71.0675 62.6821C72.0492 61.6034 73.2413 60.7376 74.5704 60.1383C75.9652 59.5052 77.481 59.1843 79.0124 59.1977C80.3777 59.1724 81.7301 59.465 82.9631 60.0525C84.0227 60.5424 84.9303 61.3101 85.5896 62.2743H85.6753V59.7522H90.1173V80.4436H85.6753L85.6785 77.9228ZM73.2924 72.6859C73.6281 73.4899 74.1135 74.2226 74.7227 74.845C75.3246 75.4648 76.0434 75.9588 76.8375 76.2984C77.6333 76.6399 78.4907 76.8143 79.3566 76.8107C80.2114 76.8083 81.057 76.6329 81.8424 76.2951C82.6278 75.9573 83.3369 75.4641 83.9271 74.845C84.5246 74.2178 85.0016 73.486 85.3344 72.6859C86.0176 71.0295 86.0176 69.1696 85.3344 67.5131C85.0018 66.713 84.5247 65.9811 83.9271 65.354C83.0339 64.4179 81.8764 63.7771 80.6094 63.5174C79.3424 63.2576 78.0265 63.3913 76.8375 63.9006C76.0432 64.2402 75.3243 64.7344 74.7227 65.3547C74.1133 65.977 73.6279 66.7097 73.2924 67.5137C72.6083 69.17 72.6083 71.0303 73.2924 72.6866" fill="#C94B32"/>
<path d="M111.817 77.9227H111.732C110.973 78.8999 109.981 79.6716 108.848 80.1676C107.622 80.7261 106.288 81.0102 104.94 80.9999C103.411 81.0192 101.895 80.7057 100.499 80.0811C99.2015 79.4987 98.0382 78.6547 97.0815 77.6019C96.1498 76.5745 95.4248 75.3769 94.9463 74.0746C94.469 72.8032 94.2231 71.4566 94.2202 70.0984C94.2286 68.7716 94.4891 67.4585 94.9878 66.2292C95.5069 64.9216 96.2593 63.7195 97.2082 62.6814C98.1898 61.6026 99.382 60.7368 100.711 60.1375C102.106 59.5046 103.621 59.1836 105.152 59.1969C106.518 59.1715 107.871 59.4642 109.104 60.0517C110.163 60.5422 111.071 61.3103 111.73 62.2748H111.815V53.5957H116.258V80.4435H111.817V77.9227ZM99.4311 72.6858C99.7665 73.4899 100.252 74.2226 100.861 74.8449C101.463 75.4646 102.182 75.9587 102.976 76.2983C103.772 76.6398 104.629 76.8141 105.495 76.8105C106.348 76.8111 107.191 76.6368 107.973 76.2983C108.762 75.9615 109.474 75.4669 110.066 74.8449C110.663 74.2174 111.14 73.4856 111.473 72.6858C112.156 71.0293 112.156 69.1694 111.473 67.513C111.14 66.7131 110.663 65.9813 110.066 65.3539C109.173 64.4181 108.015 63.7774 106.749 63.5177C105.482 63.258 104.166 63.3915 102.977 63.9005C102.183 64.24 101.464 64.7343 100.863 65.3545C100.253 65.9766 99.7676 66.7094 99.4323 67.5136C98.7483 69.1699 98.7483 71.0301 99.4323 72.6865" fill="#C94B32"/>
<path d="M122.966 74.2879C123.83 75.1985 124.859 75.9371 125.998 76.4649C127.073 77.0062 128.255 77.2985 129.458 77.3203C130.504 77.3648 131.537 77.0732 132.405 76.4879C132.726 76.3072 132.998 76.0514 133.199 75.7425C133.399 75.4335 133.522 75.0805 133.557 74.7137C133.567 74.4139 133.509 74.1156 133.387 73.8416C133.265 73.5676 133.083 73.325 132.853 73.1322C132.277 72.6882 131.592 72.4076 130.87 72.3196L128.35 71.849C125.559 71.3368 123.623 70.6171 122.541 69.69C122.005 69.2304 121.58 68.6549 121.299 68.0069C121.017 67.3589 120.886 66.6554 120.916 65.9494C120.912 65.0423 121.107 64.1454 121.487 63.3218C121.867 62.4983 122.423 61.7683 123.115 61.1832C124.581 59.8599 126.553 59.1983 129.03 59.1983C130.44 59.1914 131.841 59.4226 133.174 59.8821C134.622 60.4118 135.989 61.1448 137.232 62.0591L134.711 65.1798C133.858 64.4136 132.874 63.8064 131.807 63.387C130.961 63.0628 130.065 62.8894 129.159 62.8748C128.22 62.8513 127.295 63.0956 126.49 63.5791C126.146 63.7639 125.86 64.0386 125.66 64.3737C125.461 64.7089 125.356 65.0919 125.357 65.482C125.357 66.6217 126.254 67.3474 128.048 67.659L132.533 68.5138C136.177 69.1968 138 71.0352 138 74.0292C137.993 74.8605 137.819 75.6819 137.488 76.4444C137.118 77.298 136.581 78.0685 135.908 78.7103C135.119 79.4556 134.179 80.0232 133.153 80.3751C131.897 80.8097 130.574 81.0195 129.245 80.9949C125.802 80.964 122.489 79.6713 119.934 77.3613L122.966 74.2879Z" fill="#C94B32"/>
<path d="M68.8713 3.98006C70.1788 3.97359 71.4746 4.22685 72.6837 4.72517C73.8927 5.22349 74.991 5.95697 75.9149 6.88312L81.0432 12.0169L87.662 18.6413C89.5272 20.5125 90.5747 23.0479 90.5747 25.6912C90.5747 28.3345 89.5272 30.8698 87.662 32.7411L81.4865 38.9224L75.9149 44.4993C74.0415 46.3589 71.51 47.4023 68.8716 47.4023C66.2332 47.4023 63.7017 46.3589 61.8284 44.4993L55.6408 38.3058L50.0806 32.7411C48.2227 30.866 47.1803 28.3321 47.1803 25.6912C47.1803 23.0503 48.2227 20.5164 50.0806 18.6413L56.4058 12.3108L61.8284 6.88312C62.7522 5.95701 63.8503 5.22356 65.0592 4.72524C66.2682 4.22692 67.5639 3.97364 68.8713 3.98006ZM68.8713 4.46655e-05C67.0426 -0.00410412 65.231 0.353138 63.5406 1.05128C61.8501 1.74943 60.3139 2.77474 59.0202 4.06842L53.5976 9.49612L47.2724 15.8273C44.6689 18.4486 43.2075 21.9946 43.2075 25.6909C43.2075 29.3871 44.6689 32.9332 47.2724 35.5545L52.8325 41.1198L59.0202 47.314C61.6391 49.9198 65.1818 51.3824 68.8745 51.3824C72.5672 51.3824 76.1099 49.9198 78.7288 47.314L84.3011 41.7364L90.4772 35.5545C93.0806 32.9331 94.5419 29.3871 94.5419 25.6909C94.5419 21.9947 93.0806 18.4486 90.4772 15.8273L83.8552 9.20223L78.7256 4.06842C77.4315 2.7743 75.8949 1.74873 74.2038 1.05057C72.5127 0.352409 70.7006 -0.0045959 68.8713 4.46655e-05Z" fill="#C94B32"/>
<path d="M68.8713 13.8258C69.6215 13.8221 70.3649 13.9673 71.0586 14.2531C71.7523 14.5388 72.3826 14.9594 72.9128 15.4905L79.0602 21.6437C80.1305 22.7174 80.7316 24.1722 80.7316 25.689C80.7316 27.2058 80.1305 28.6606 79.0602 29.7343L72.9128 35.8875C71.8382 36.955 70.3854 37.5541 68.8713 37.5541C67.3572 37.5541 65.9045 36.955 64.8298 35.8875L58.6825 29.7343C57.6122 28.6606 57.0111 27.2058 57.0111 25.689C57.0111 24.1722 57.6122 22.7174 58.6825 21.6437L64.8298 15.4905C65.3601 14.9594 65.9904 14.5389 66.6841 14.2531C67.3778 13.9674 68.1212 13.8221 68.8713 13.8258ZM68.8713 12.2475C67.9137 12.2447 66.9649 12.4314 66.0796 12.7967C65.1942 13.1621 64.3897 13.6989 63.7123 14.3764L57.5649 20.5296C56.2028 21.9014 55.4382 23.7571 55.4382 25.6912C55.4382 27.6254 56.2028 29.481 57.5649 30.8529L63.7123 37.0054C65.0828 38.369 66.9367 39.1344 68.8691 39.1344C70.8015 39.1344 72.6554 38.369 74.0259 37.0054L80.1726 30.8529C81.5348 29.481 82.2993 27.6254 82.2993 25.6912C82.2993 23.7571 81.5348 21.9014 80.1726 20.5296L74.0259 14.3764C73.3487 13.6992 72.5445 13.1625 71.6595 12.7971C70.7745 12.4318 69.8261 12.245 68.8688 12.2475" fill="#C94B32"/>
<path d="M70.1732 9.58895C71.4088 9.58718 72.6273 9.87763 73.7295 10.4366C74.8317 10.9956 75.7863 11.8074 76.5156 12.8057L83.483 22.4286C84.69 24.1093 85.1844 26.1994 84.8583 28.2434C84.5323 30.2873 83.4123 32.1194 81.7425 33.3404L72.1287 40.3156C70.8038 41.2796 69.2069 41.7967 67.569 41.7921C66.3334 41.7936 65.115 41.5028 64.0129 40.9436C62.9109 40.3844 61.9564 39.5725 61.2272 38.5741L54.2604 28.9512C53.0478 27.2724 52.55 25.1806 52.8762 23.1349C53.2024 21.0892 54.3259 19.2565 56.0004 18.0388L65.6142 11.0661C66.9393 10.1022 68.5363 9.58489 70.1745 9.58895M70.1745 7.43375C68.0837 7.43118 66.0459 8.09152 64.3533 9.32003L54.7364 16.294C52.6042 17.8507 51.1742 20.1887 50.7585 22.7973C50.3429 25.4058 50.9754 28.0731 52.5179 30.2164L59.4834 39.8386C61.0377 41.9739 63.3734 43.4063 65.9798 43.8229C68.5862 44.2395 71.2514 43.6063 73.3927 42.0617L83.0065 35.0877C85.1389 33.5313 86.5694 31.1935 86.9854 28.5849C87.4014 25.9763 86.7692 23.3089 85.2268 21.1653L78.26 11.5425C77.3328 10.2662 76.1164 9.22831 74.7106 8.51406C73.3048 7.7998 71.7497 7.42956 70.1732 7.43375" fill="#C94B32"/>
<path d="M70.7487 19.5121C71.4325 19.494 72.1045 19.6927 72.6687 20.0798C73.2329 20.4668 73.6604 21.0225 73.8902 21.6673L73.8973 21.6929L73.9043 21.7172L75.2943 26.3958C75.4746 27.1298 75.3581 27.9053 74.9703 28.5538C74.5824 29.2023 73.9545 29.6714 73.223 29.8591L69.06 30.9258C68.8301 30.9851 68.5937 31.015 68.3563 31.0148C67.7195 31.0159 67.1004 30.8045 66.597 30.4141C66.0935 30.0237 65.7344 29.4765 65.5763 28.859L65.5699 28.834L65.5628 28.8097L64.1722 24.1311C63.9952 23.3972 64.1131 22.6231 64.5004 21.9753C64.8878 21.3276 65.5137 20.8578 66.2435 20.6672L66.2582 20.6633L66.2735 20.6588L70.0355 19.5985C70.2691 19.5412 70.5089 19.5126 70.7494 19.5134M70.7494 18.2097C70.3955 18.2084 70.0429 18.2514 69.6997 18.3378L65.9217 19.4032C64.8529 19.6792 63.9366 20.3674 63.3733 21.3175C62.8099 22.2677 62.6452 23.4024 62.9152 24.4737L64.3135 29.1791C64.5454 30.076 65.068 30.8705 65.7993 31.4383C66.5307 32.006 67.4295 32.3149 68.3551 32.3165C68.7002 32.3169 69.0441 32.2739 69.3786 32.1885L73.5435 31.123C74.6124 30.8471 75.5286 30.1588 76.0919 29.2087C76.6553 28.2586 76.82 27.1239 76.55 26.0526L75.1517 21.3471C74.6719 19.4686 72.6908 18.2097 70.7481 18.2097" fill="#C94B32"/>
</g>
<defs>
<clipPath id="clip0_1111_3344">
<rect width="138" height="81" fill="white"/>
</clipPath>
</defs>
</svg>
