<svg width="120" height="31" viewBox="0 0 120 31" fill="none" xmlns="http://www.w3.org/2000/svg">
<g clip-path="url(#clip0_1934_1566)">
<path d="M39.5071 7.21875V18.3645C39.4767 18.895 39.5601 19.4258 39.7516 19.9215C39.9464 20.2888 40.2468 20.5892 40.6141 20.784L42.0549 21.609L40.8706 23.7195C39.7106 23.2235 38.6475 22.5263 37.7304 21.66C37.0837 20.8739 36.7618 19.8705 36.8304 18.855V7.21875H39.5071Z" fill="white"/>
<path d="M43.0107 14.7338C43.3281 13.9244 43.8066 13.188 44.4172 12.5692C45.0278 11.9503 45.7577 11.462 46.5627 11.1338C48.3992 10.4126 50.4404 10.4126 52.2769 11.1338C53.0818 11.4621 53.8117 11.9505 54.4223 12.5694C55.0328 13.1882 55.5114 13.9245 55.8289 14.7338C56.4467 16.2876 56.4467 18.0189 55.8289 19.5727C55.5118 20.3827 55.0335 21.1198 54.4229 21.7393C53.8123 22.3588 53.0822 22.8477 52.2769 23.1765C50.4403 23.8971 48.3993 23.8971 46.5627 23.1765C45.7573 22.8479 45.0271 22.359 44.4165 21.7395C43.8059 21.12 43.3276 20.3828 43.0107 19.5727C42.3929 18.0189 42.3929 16.2876 43.0107 14.7338ZM46.5357 20.0235C47.3101 20.7744 48.3464 21.1944 49.4251 21.1944C50.5038 21.1944 51.5401 20.7744 52.3144 20.0235C53.0499 19.2489 53.46 18.2214 53.46 17.1533C53.46 16.0851 53.0499 15.0576 52.3144 14.283C51.5401 13.5319 50.5038 13.1118 49.4251 13.1118C48.3463 13.1118 47.31 13.5319 46.5357 14.283C45.7926 15.0538 45.3774 16.0827 45.3774 17.1533C45.3774 18.2239 45.7926 19.2528 46.5357 20.0235Z" fill="white"/>
<path d="M58.7638 15.5843C58.7299 14.9194 58.8297 14.2545 59.0573 13.6289C59.2849 13.0034 59.6358 12.4298 60.089 11.9423C60.5046 11.5057 61.0063 11.1603 61.5624 10.9279C62.1184 10.6955 62.7167 10.5812 63.3193 10.5922C64.1499 10.5671 64.9708 10.7766 65.6878 11.1967C66.31 11.5649 66.7905 12.1315 67.052 12.8055H67.1031C67.3669 12.1287 67.8526 11.5615 68.4808 11.1967C69.1941 10.7798 70.0098 10.5704 70.8358 10.5922C71.4384 10.5812 72.0367 10.6955 72.5927 10.9279C73.1488 11.1603 73.6505 11.5057 74.066 11.9423C74.5195 12.4298 74.8704 13.0033 75.0982 13.6288C75.326 14.2544 75.4259 14.9194 75.392 15.5843V23.3842H72.7153V15.6097C72.7489 14.9838 72.5362 14.3695 72.1228 13.8983C71.9374 13.6946 71.7106 13.5329 71.4575 13.4242C71.2045 13.3154 70.9312 13.262 70.6558 13.2675C70.3522 13.253 70.0491 13.3041 69.7671 13.4174C69.4851 13.5306 69.2308 13.7033 69.0215 13.9238C68.5713 14.5065 68.3557 15.2367 68.417 15.9705V23.3835H65.7395V15.9705C65.8008 15.2367 65.5851 14.5065 65.135 13.9238C64.9258 13.7034 64.6715 13.5308 64.3894 13.4175C64.1074 13.3043 63.8043 13.2531 63.5008 13.2675C63.2253 13.2619 62.9518 13.3152 62.6986 13.424C62.4455 13.5328 62.2185 13.6945 62.033 13.8983C61.6199 14.3696 61.4075 14.9839 61.4413 15.6097V23.3835H58.7645L58.7638 15.5843Z" fill="white"/>
<path d="M88.4683 21.8647H88.4165C87.9591 22.4525 87.362 22.9166 86.6795 23.2148C85.9401 23.5512 85.1361 23.7224 84.3238 23.7165C83.402 23.728 82.4887 23.5391 81.647 23.163C80.8652 22.8124 80.1641 22.3043 79.5875 21.6705C79.0258 21.0519 78.5888 20.3307 78.3005 19.5465C78.013 18.781 77.8649 17.9702 77.8633 17.1525C77.8685 16.3536 78.0258 15.563 78.3268 14.823C78.6398 14.0359 79.0931 13.3121 79.6648 12.687C80.2564 12.0375 80.975 11.5163 81.776 11.1555C82.6165 10.7744 83.53 10.5812 84.4528 10.5892C85.2758 10.5739 86.091 10.7504 86.834 11.1045C87.4728 11.3995 88.0199 11.8618 88.4173 12.4425H88.469V10.9238H91.1458V23.382H88.469L88.4683 21.8647ZM81.0035 18.7148C81.2058 19.1987 81.4982 19.6398 81.8653 20.0145C82.2282 20.3855 82.6611 20.6809 83.1388 20.8838C83.6184 21.0893 84.135 21.1942 84.6568 21.192C85.172 21.1904 85.6816 21.0848 86.1549 20.8814C86.6283 20.678 87.0557 20.3811 87.4115 20.0085C87.7721 19.6311 88.0602 19.1905 88.2613 18.7088C88.6731 17.7113 88.6731 16.5914 88.2613 15.594C88.0603 15.1122 87.7722 14.6716 87.4115 14.2942C86.8732 13.7299 86.1752 13.3436 85.4111 13.1872C84.647 13.0308 83.8534 13.1116 83.1365 13.419C82.6578 13.6235 82.2244 13.921 81.8615 14.2942C81.4944 14.6689 81.2019 15.11 80.9998 15.594C80.5875 16.5913 80.5875 17.7114 80.9998 18.7088" fill="white"/>
<path d="M104.221 21.8647H104.17C103.712 22.4526 103.115 22.9167 102.432 23.2148C101.693 23.5513 100.889 23.7225 100.076 23.7165C99.1544 23.7281 98.2411 23.5392 97.3995 23.163C96.6177 22.8124 95.9166 22.3043 95.34 21.6705C94.7783 21.0519 94.3413 20.3307 94.053 19.5465C93.7655 18.781 93.6174 17.9702 93.6157 17.1525C93.6211 16.3536 93.7784 15.5631 94.0792 14.823C94.3921 14.0358 94.8454 13.312 95.4172 12.687C96.0089 12.0375 96.7274 11.5163 97.5285 11.1555C98.369 10.7744 99.2824 10.5812 100.205 10.5892C101.028 10.574 101.843 10.7504 102.586 11.1045C103.226 11.4005 103.773 11.8642 104.17 12.4463H104.221V7.21875H106.898V23.3835H104.221V21.8647ZM96.7567 18.7148C96.9588 19.1988 97.2513 19.6399 97.6185 20.0145C97.9813 20.3878 98.4147 20.6853 98.8935 20.8897C99.373 21.0953 99.8897 21.2002 100.411 21.198C100.927 21.1964 101.436 21.0908 101.91 20.8874C102.383 20.684 102.81 20.3871 103.166 20.0145C103.527 19.6369 103.815 19.1963 104.016 18.7148C104.428 17.7173 104.428 16.5974 104.016 15.6C103.815 15.1184 103.527 14.6778 103.166 14.3002C102.81 13.9257 102.381 13.6279 101.905 13.425C101.434 13.2213 100.926 13.1163 100.412 13.1167C99.8905 13.1145 99.3738 13.2194 98.8942 13.425C98.4155 13.6295 97.9821 13.927 97.6192 14.3002C97.2519 14.6748 96.9595 15.1159 96.7575 15.6C96.3452 16.5973 96.3452 17.7174 96.7575 18.7148" fill="white"/>
<path d="M110.939 19.677C111.46 20.2258 112.08 20.6712 112.767 20.9895C113.414 21.3155 114.127 21.4916 114.852 21.5047C115.483 21.5314 116.105 21.3556 116.629 21.003C116.822 20.8943 116.986 20.7403 117.107 20.5543C117.228 20.3684 117.302 20.1558 117.323 19.935C117.329 19.7544 117.294 19.5747 117.221 19.4097C117.147 19.2447 117.037 19.0986 116.899 18.9825C116.55 18.7143 116.135 18.5453 115.699 18.4935L114.18 18.21C112.924 18.0698 111.722 17.6235 110.68 16.9102C110.358 16.6333 110.103 16.2869 109.934 15.8972C109.765 15.5075 109.687 15.0846 109.705 14.6602C109.702 14.1141 109.82 13.5741 110.049 13.0783C110.278 12.5825 110.613 12.143 111.03 11.7908C112.023 10.9529 113.297 10.5239 114.595 10.5907C115.444 10.5867 116.288 10.7259 117.091 11.0025C117.965 11.322 118.788 11.7639 119.537 12.315L118.018 14.1937C117.504 13.7319 116.911 13.3659 116.268 13.113C115.758 12.9176 115.218 12.813 114.672 12.804C114.106 12.79 113.548 12.9372 113.063 13.2285C112.856 13.3398 112.683 13.5052 112.563 13.707C112.443 13.9089 112.38 14.1396 112.381 14.3745C112.381 15.061 112.921 15.4985 114.002 15.687L116.702 16.2022C118.899 16.6137 119.997 17.7205 119.997 19.5225C119.993 20.0231 119.887 20.5177 119.688 20.9767C119.465 21.4906 119.141 21.9545 118.735 22.341C118.26 22.7905 117.694 23.133 117.076 23.3452C116.318 23.6076 115.521 23.7345 114.72 23.7202C112.645 23.7017 110.648 22.9234 109.108 21.5325L110.939 19.677Z" fill="white"/>
<path d="M15.4686 2.39626C16.2566 2.39249 17.0376 2.54505 17.7662 2.84514C18.4949 3.14523 19.1568 3.58688 19.7136 4.1445L22.8044 7.23526L26.7936 11.2238C27.9177 12.3504 28.5489 13.8769 28.5489 15.4684C28.5489 17.0599 27.9177 18.5864 26.7936 19.713L23.0721 23.4345L19.7144 26.7922C18.5854 27.9119 17.0598 28.5402 15.4697 28.5402C13.8797 28.5402 12.3541 27.9119 11.2251 26.7922L7.49612 23.0633L4.14512 19.713C3.02545 18.584 2.3972 17.0584 2.3972 15.4684C2.3972 13.8784 3.02545 12.3527 4.14512 11.2238L7.95737 7.41225L11.2251 4.1445C11.7818 3.58694 12.4436 3.14532 13.1721 2.84523C13.9007 2.54515 14.6815 2.39255 15.4694 2.39626H15.4686ZM15.4694 -0.00375002C14.367 -0.00648396 13.275 0.208485 12.2559 0.628834C11.2368 1.04918 10.3107 1.66663 9.53087 2.44574L6.26313 5.71424L2.45088 9.52575C0.881744 11.104 0.000976562 13.2391 0.000976562 15.4646C0.000976562 17.6902 0.881744 19.8253 2.45088 21.4035L5.80187 24.7545L9.53087 28.4835C11.1092 30.0525 13.2443 30.9331 15.4697 30.9331C17.6952 30.9331 19.8303 30.0525 21.4086 28.4835L24.7671 25.125L28.4894 21.4027C30.0583 19.8244 30.939 17.6894 30.939 15.4639C30.939 13.2384 30.0583 11.1034 28.4894 9.52501L24.5001 5.5365L21.4086 2.44501C20.6288 1.66586 19.7027 1.04838 18.6837 0.628033C17.6646 0.207682 16.5725 -0.0072803 15.4701 -0.00450533" fill="white"/>
<path d="M15.4684 8.32424C15.9207 8.3221 16.3688 8.40971 16.787 8.58196C17.2051 8.75421 17.5849 9.0077 17.9044 9.32775L21.6094 13.0328C22.254 13.6794 22.616 14.5553 22.616 15.4684C22.616 16.3815 22.254 17.2573 21.6094 17.904L17.9044 21.609C17.2565 22.2528 16.3803 22.6141 15.4669 22.6141C14.5536 22.6141 13.6773 22.2528 13.0294 21.609L9.32442 17.904C8.6798 17.2573 8.31783 16.3815 8.31783 15.4684C8.31783 14.5553 8.6798 13.6794 9.32442 13.0328L13.0294 9.32775C13.349 9.00773 13.7288 8.75426 14.1469 8.58201C14.5651 8.40976 15.0132 8.32214 15.4654 8.32424H15.4684ZM15.4654 7.37399C14.8886 7.37255 14.3172 7.48504 13.784 7.705C13.2508 7.92496 12.7662 8.24806 12.3582 8.65575L8.65317 12.3608C7.83231 13.1867 7.37158 14.3039 7.37158 15.4684C7.37158 16.6329 7.83231 17.75 8.65317 18.576L12.3582 22.281C13.1841 23.1019 14.3013 23.5626 15.4658 23.5626C16.6303 23.5626 17.7475 23.1019 18.5734 22.281L22.2777 18.576C23.0985 17.75 23.5593 16.6329 23.5593 15.4684C23.5593 14.3039 23.0985 13.1867 22.2777 12.3608L18.5734 8.65575C18.1653 8.24801 17.6806 7.92487 17.1473 7.70491C16.6139 7.48495 16.0423 7.3725 15.4654 7.37399Z" fill="white"/>
<path d="M16.2548 5.77425C17 5.77267 17.7349 5.94736 18.3997 6.28404C19.0644 6.62072 19.6402 7.10986 20.0798 7.71151L24.2798 13.5052C25.0065 14.5175 25.3039 15.7759 25.1072 17.0064C24.9106 18.2369 24.2358 19.3399 23.2298 20.0752L17.4361 24.2753C16.6376 24.8557 15.6752 25.1669 14.6881 25.164C13.9429 25.1656 13.2079 24.9909 12.5432 24.6542C11.8784 24.3175 11.3027 23.8284 10.863 23.2267L6.66305 17.433C5.93245 16.422 5.6327 15.1626 5.82955 13.9309C6.02639 12.6992 6.70376 11.5959 7.71305 10.863L13.5068 6.663C14.3052 6.08258 15.2677 5.77131 16.2548 5.77425ZM16.2548 4.47601C14.9942 4.47405 13.7654 4.87155 12.7448 5.61149L6.95105 9.8115C5.66707 10.7484 4.80573 12.1551 4.55493 13.7247C4.30413 15.2943 4.68423 16.8993 5.6123 18.1897L9.8123 23.9835C10.749 25.2693 12.1566 26.1319 13.7274 26.3827C15.2983 26.6336 16.9045 26.2523 18.195 25.3222L23.9888 21.1222C25.2739 20.1851 26.136 18.7775 26.3867 17.2068C26.6374 15.6362 26.2564 14.0301 25.3268 12.7395L21.1268 6.94576C20.5679 6.177 19.8346 5.5518 18.9872 5.12155C18.1397 4.69129 17.2022 4.46824 16.2518 4.47075" fill="white"/>
<path d="M16.6011 11.748C17.0132 11.7373 17.4181 11.8571 17.758 12.0902C18.098 12.3234 18.3556 12.658 18.4941 13.0462L18.4986 13.0613L18.5031 13.0762L19.3408 15.8932C19.4502 16.3352 19.3804 16.8025 19.1466 17.1933C18.9128 17.584 18.534 17.8664 18.0928 17.979L15.5826 18.6202C15.4444 18.6557 15.3023 18.6736 15.1596 18.6735C14.7756 18.6744 14.4024 18.5472 14.0989 18.3121C13.7954 18.0769 13.5791 17.7472 13.4841 17.3752L13.4803 17.3602L13.4758 17.346L12.6373 14.5312C12.5302 14.0894 12.601 13.6231 12.8344 13.2329C13.0679 12.8428 13.4453 12.56 13.8853 12.4455H13.8943H13.9033L16.1706 11.8072C16.3115 11.7728 16.456 11.7557 16.6011 11.7562V11.748ZM16.6011 10.9717C16.388 10.9702 16.1756 10.9954 15.9688 11.0467L13.6918 11.688C13.0479 11.8544 12.496 12.269 12.1567 12.8411C11.8175 13.4132 11.7185 14.0964 11.8813 14.7412L12.7243 17.5747C12.8642 18.1147 13.1792 18.593 13.6201 18.9347C14.0609 19.2764 14.6026 19.4623 15.1603 19.4632C15.3684 19.4642 15.5758 19.439 15.7776 19.3882L18.2878 18.747C18.9317 18.5804 19.4835 18.1658 19.8227 17.5937C20.1619 17.0216 20.261 16.3386 20.0983 15.6937L19.2553 12.861C19.0737 12.3035 18.7178 11.8191 18.2401 11.4791C17.7624 11.1391 17.1881 10.9615 16.6018 10.9725" fill="white"/>
</g>
<defs>
<clipPath id="clip0_1934_1566">
<rect width="120" height="30.9368" fill="white"/>
</clipPath>
</defs>
</svg>
