<svg width="120" height="26" viewBox="0 0 120 26" fill="none" xmlns="http://www.w3.org/2000/svg">
<g opacity="0.6" clip-path="url(#clip0_1522_4558)">
<path d="M39.507 6.09131V15.2098C39.4766 15.6438 39.56 16.0781 39.7515 16.4836C39.9462 16.7841 40.2467 17.0299 40.614 17.1892L42.0547 17.8642L40.8705 19.5908C39.7105 19.1851 38.6474 18.6146 37.7302 17.9059C37.0836 17.2628 36.7617 16.4419 36.8302 15.6111V6.09131H39.507Z" fill="#76808D"/>
<path d="M43.011 12.2395C43.3284 11.5773 43.8069 10.9749 44.4175 10.4686C45.0281 9.96232 45.758 9.5628 46.563 9.29427C48.3995 8.70432 50.4407 8.70432 52.2772 9.29427C53.0821 9.56293 53.812 9.96249 54.4226 10.4687C55.0331 10.975 55.5117 11.5774 55.8292 12.2395C56.447 13.5107 56.447 14.9271 55.8292 16.1983C55.5122 16.861 55.0338 17.464 54.4232 17.9708C53.8126 18.4776 53.0825 18.8776 52.2772 19.1466C50.4406 19.7361 48.3996 19.7361 46.563 19.1466C45.7576 18.8778 45.0275 18.4778 44.4168 17.971C43.8062 17.4641 43.3279 16.861 43.011 16.1983C42.3932 14.9271 42.3932 13.5107 43.011 12.2395ZM46.536 16.5671C47.3104 17.1814 48.3467 17.525 49.4254 17.525C50.5041 17.525 51.5404 17.1814 52.3147 16.5671C53.0503 15.9334 53.4603 15.0928 53.4603 14.2189C53.4603 13.345 53.0503 12.5045 52.3147 11.8707C51.5405 11.2562 50.5041 10.9126 49.4254 10.9126C48.3466 10.9126 47.3103 11.2562 46.536 11.8707C45.7929 12.5013 45.3777 13.343 45.3777 14.2189C45.3777 15.0948 45.7929 15.9365 46.536 16.5671Z" fill="#76808D"/>
<path d="M58.764 12.9353C58.7301 12.3914 58.8299 11.8474 59.0575 11.3356C59.2851 10.8238 59.636 10.3546 60.0893 9.95573C60.5048 9.59861 61.0065 9.31601 61.5626 9.12589C62.1186 8.93576 62.7169 8.84225 63.3195 8.85126C64.1501 8.8307 64.971 9.00211 65.688 9.34581C66.3102 9.64702 66.7907 10.1105 67.0523 10.662H67.1033C67.3671 10.1083 67.8529 9.64425 68.481 9.34581C69.1943 9.00467 70.01 8.83338 70.836 8.85126C71.4386 8.84225 72.0369 8.93576 72.5929 9.12589C73.149 9.31601 73.6507 9.59861 74.0663 9.95573C74.5197 10.3546 74.8707 10.8237 75.0984 11.3355C75.3262 11.8473 75.4261 12.3913 75.3923 12.9353V19.3166H72.7155V12.9562C72.7491 12.444 72.5365 11.9415 72.123 11.556C71.9376 11.3893 71.7108 11.2571 71.4578 11.1681C71.2047 11.0791 70.9314 11.0354 70.656 11.0399C70.3525 11.0281 70.0493 11.0699 69.7673 11.1625C69.4853 11.2552 69.231 11.3965 69.0218 11.5768C68.5715 12.0536 68.3559 12.6509 68.4173 13.2513V19.316H65.7398V13.2513C65.801 12.651 65.5853 12.0536 65.1353 11.5768C64.926 11.3966 64.6717 11.2553 64.3897 11.1627C64.1077 11.07 63.8046 11.0282 63.501 11.0399C63.2255 11.0353 62.952 11.079 62.6989 11.168C62.4457 11.257 62.2187 11.3893 62.0333 11.556C61.6201 11.9416 61.4077 12.4441 61.4415 12.9562V19.316H58.7648L58.764 12.9353Z" fill="#76808D"/>
<path d="M88.4685 18.0735H88.4167C87.9593 18.5544 87.3622 18.934 86.6797 19.178C85.9403 19.4533 85.1364 19.5933 84.324 19.5885C83.4022 19.5979 82.4889 19.4434 81.6472 19.1357C80.8654 18.8488 80.1643 18.4331 79.5878 17.9146C79.0261 17.4086 78.5891 16.8185 78.3008 16.1769C78.0132 15.5507 77.8651 14.8874 77.8635 14.2184C77.8687 13.5648 78.026 12.918 78.327 12.3126C78.64 11.6686 79.0933 11.0765 79.665 10.5651C80.2566 10.0337 80.9752 9.60732 81.7763 9.31215C82.6167 9.00039 83.5302 8.8423 84.453 8.84889C85.276 8.83638 86.0912 8.98071 86.8342 9.27043C87.473 9.51179 88.0201 9.89003 88.4175 10.3651H88.4692V9.12256H91.146V19.3148H88.4692L88.4685 18.0735ZM81.0038 15.4965C81.206 15.8924 81.4984 16.2533 81.8655 16.5598C82.2285 16.8633 82.6613 17.105 83.139 17.271C83.6186 17.4391 84.1352 17.5249 84.657 17.5231C85.1722 17.5219 85.6818 17.4354 86.1552 17.2691C86.6285 17.1027 87.0559 16.8598 87.4117 16.5549C87.7724 16.2462 88.0604 15.8857 88.2615 15.4916C88.6733 14.6756 88.6733 13.7593 88.2615 12.9434C88.0605 12.5492 87.7725 12.1887 87.4117 11.88C86.8734 11.4183 86.1754 11.1023 85.4113 10.9743C84.6472 10.8463 83.8536 10.9125 83.1367 11.164C82.658 11.3312 82.2246 11.5746 81.8617 11.88C81.4946 12.1865 81.2022 12.5474 81 12.9434C80.5877 13.7593 80.5877 14.6757 81 15.4916" fill="#76808D"/>
<path d="M104.221 18.0734H104.17C103.712 18.5543 103.115 18.934 102.432 19.1779C101.693 19.4532 100.889 19.5933 100.076 19.5884C99.1544 19.5978 98.2411 19.4433 97.3995 19.1355C96.6177 18.8487 95.9166 18.433 95.34 17.9145C94.7783 17.4084 94.3413 16.8184 94.053 16.1768C93.7655 15.5505 93.6174 14.8872 93.6158 14.2182C93.6212 13.5647 93.7785 12.9179 94.0793 12.3125C94.3921 11.6684 94.8455 11.0763 95.4173 10.565C96.0089 10.0336 96.7275 9.60718 97.5285 9.31201C98.369 9.00023 99.2825 8.84214 100.205 8.84875C101.028 8.83626 101.843 8.98059 102.587 9.27029C103.226 9.51249 103.773 9.89183 104.17 10.368H104.221V6.09131H106.898V19.3159H104.221V18.0734ZM96.7567 15.4963C96.9589 15.8923 97.2513 16.2532 97.6185 16.5597C97.9813 16.8651 98.4147 17.1085 98.8935 17.2757C99.3731 17.4439 99.8897 17.5297 100.412 17.5279C100.927 17.5266 101.436 17.4402 101.91 17.2738C102.383 17.1074 102.81 16.8645 103.166 16.5597C103.527 16.2508 103.815 15.8903 104.016 15.4963C104.428 14.6803 104.428 13.7641 104.016 12.9481C103.815 12.5541 103.527 12.1937 103.166 11.8848C102.81 11.5784 102.381 11.3347 101.906 11.1687C101.434 11.002 100.926 10.9162 100.412 10.9165C99.8905 10.9147 99.3738 11.0006 98.8942 11.1687C98.4155 11.336 97.9821 11.5794 97.6192 11.8848C97.252 12.1912 96.9595 12.5521 96.7575 12.9481C96.3452 13.764 96.3452 14.6804 96.7575 15.4963" fill="#76808D"/>
<path d="M110.939 16.2836C111.46 16.7326 112.08 17.097 112.767 17.3574C113.415 17.6241 114.127 17.7682 114.852 17.7789C115.483 17.8008 116.105 17.6569 116.629 17.3684C116.822 17.2795 116.986 17.1536 117.107 17.0014C117.228 16.8492 117.302 16.6754 117.323 16.4947C117.33 16.3469 117.295 16.2 117.221 16.0649C117.147 15.9299 117.037 15.8104 116.899 15.7154C116.55 15.496 116.136 15.3578 115.699 15.3154L114.18 15.0835C112.924 14.9688 111.723 14.6036 110.68 14.0201C110.358 13.7935 110.103 13.5102 109.934 13.1914C109.765 12.8725 109.687 12.5265 109.705 12.1794C109.702 11.7326 109.82 11.2908 110.049 10.8852C110.278 10.4795 110.613 10.12 111.03 9.83178C112.023 9.14629 113.297 8.79532 114.595 8.85004C115.444 8.84673 116.288 8.9606 117.092 9.18689C117.965 9.44832 118.788 9.80985 119.537 10.2607L118.019 11.7977C117.504 11.4198 116.911 11.1204 116.268 10.9135C115.758 10.7537 115.218 10.6681 114.672 10.6607C114.106 10.6493 113.548 10.7697 113.063 11.008C112.856 11.0991 112.684 11.2344 112.563 11.3995C112.443 11.5646 112.38 11.7534 112.381 11.9456C112.381 12.5072 112.921 12.8651 114.002 13.0193L116.702 13.4409C118.899 13.7775 119.997 14.683 119.997 16.1572C119.993 16.5668 119.888 16.9714 119.688 17.347C119.465 17.7674 119.141 18.1469 118.736 18.4631C118.26 18.8309 117.694 19.111 117.076 19.2847C116.319 19.4993 115.521 19.6031 114.72 19.5915C112.645 19.5763 110.649 18.9396 109.109 17.8016L110.939 16.2836Z" fill="#76808D"/>
<path d="M15.4687 2.146C16.2568 2.14292 17.0377 2.26774 17.7664 2.51324C18.495 2.75875 19.1569 3.12007 19.7137 3.57627L22.8045 6.10486L26.7937 9.3679C27.9178 10.2896 28.5491 11.5385 28.5491 12.8405C28.5491 14.1425 27.9178 15.3913 26.7937 16.3131L23.0722 19.3577L19.7145 22.1047C18.5855 23.0207 17.0599 23.5347 15.4699 23.5347C13.8798 23.5347 12.3542 23.0207 11.2252 22.1047L7.49625 19.054L4.14524 16.3131C3.02557 15.3895 2.39733 14.1413 2.39733 12.8405C2.39733 11.5397 3.02557 10.2915 4.14524 9.3679L7.95749 6.24966L11.2252 3.57627C11.782 3.12011 12.4437 2.75882 13.1723 2.51332C13.9008 2.26781 14.6816 2.14297 15.4695 2.146H15.4687ZM15.4695 0.182524C14.3671 0.180288 13.2751 0.356157 12.256 0.70005C11.2369 1.04394 10.3109 1.54908 9.53099 2.18649L6.26325 4.86049L2.451 7.97874C0.881866 9.26992 0.00109863 11.0167 0.00109863 12.8374C0.00109863 14.6582 0.881866 16.4049 2.451 17.6961L5.80199 20.4376L9.53099 23.4883C11.1093 24.7719 13.2444 25.4924 15.4699 25.4924C17.6954 25.4924 19.8304 24.7719 21.4087 23.4883L24.7672 20.7407L28.4895 17.6955C30.0584 16.4042 30.9391 14.6575 30.9391 12.8368C30.9391 11.0161 30.0584 9.2694 28.4895 7.97814L24.5002 4.71508L21.4087 2.18589C20.6289 1.54846 19.7029 1.04329 18.6838 0.699394C17.6647 0.3555 16.5726 0.179636 15.4702 0.181906" fill="#76808D"/>
<path d="M15.4688 6.99569C15.921 6.99394 16.3691 7.06561 16.7873 7.20653C17.2054 7.34745 17.5853 7.55483 17.9048 7.81667L21.6098 10.8478C22.2544 11.3768 22.6164 12.0934 22.6164 12.8404C22.6164 13.5874 22.2544 14.304 21.6098 14.833L17.9048 17.8641C17.2569 18.3908 16.3806 18.6864 15.4673 18.6864C14.5539 18.6864 13.6777 18.3908 13.0298 17.8641L9.32476 14.833C8.68014 14.304 8.31817 13.5874 8.31817 12.8404C8.31817 12.0934 8.68014 11.3768 9.32476 10.8478L13.0298 7.81667C13.3493 7.55486 13.7291 7.34749 14.1472 7.20657C14.5654 7.06565 15.0135 6.99397 15.4658 6.99569H15.4688ZM15.4658 6.21827C14.8889 6.2171 14.3175 6.30913 13.7843 6.48908C13.2511 6.66903 12.7666 6.93336 12.3585 7.2669L8.65351 10.298C7.83264 10.9737 7.37192 11.8877 7.37192 12.8404C7.37192 13.7931 7.83264 14.7071 8.65351 15.3828L12.3585 18.4139C13.1845 19.0855 14.3017 19.4624 15.4661 19.4624C16.6306 19.4624 17.7478 19.0855 18.5738 18.4139L22.278 15.3828C23.0989 14.7071 23.5596 13.7931 23.5596 12.8404C23.5596 11.8877 23.0989 10.9737 22.278 10.298L18.5738 7.2669C18.1656 6.93332 17.6809 6.66895 17.1476 6.489C16.6142 6.30905 16.0427 6.21705 15.4658 6.21827Z" fill="#76808D"/>
<path d="M16.2547 4.90969C16.9999 4.9084 17.7349 5.05131 18.3996 5.32676C19.0644 5.6022 19.6401 6.00237 20.0797 6.49459L24.2797 11.2345C25.0064 12.0627 25.3038 13.0922 25.1072 14.0989C24.9105 15.1056 24.2357 16.0079 23.2297 16.6095L17.436 20.0456C16.6375 20.5205 15.6751 20.7751 14.688 20.7727C13.9428 20.774 13.2079 20.6311 12.5431 20.3556C11.8783 20.0802 11.3026 19.68 10.863 19.1878L6.66299 14.4479C5.93239 13.6208 5.63264 12.5904 5.82949 11.5828C6.02633 10.5751 6.7037 9.67246 7.71299 9.07287L13.5067 5.63679C14.3052 5.16194 15.2676 4.90729 16.2547 4.90969ZM16.2547 3.84759C14.9941 3.84598 13.7653 4.17118 12.7447 4.77654L6.95099 8.21262C5.66701 8.97915 4.80567 10.13 4.55487 11.4141C4.30407 12.6982 4.68416 14.0113 5.61224 15.067L9.81224 19.8069C10.7489 20.8588 12.1565 21.5645 13.7274 21.7698C15.2982 21.975 16.9045 21.6631 18.195 20.9022L23.9887 17.4661C25.2739 16.6994 26.136 15.5478 26.3867 14.2628C26.6373 12.9779 26.2563 11.6639 25.3267 10.6081L21.1267 5.86812C20.5679 5.23919 19.8346 4.72771 18.9871 4.37571C18.1396 4.02371 17.2022 3.84123 16.2517 3.84328" fill="#76808D"/>
<path d="M16.6013 9.79674C17.0133 9.788 17.4183 9.88599 17.7582 10.0767C18.0982 10.2675 18.3558 10.5412 18.4943 10.8588L18.4988 10.8711L18.5033 10.8834L19.341 13.188C19.4504 13.5496 19.3805 13.9319 19.1468 14.2516C18.913 14.5712 18.5342 14.8023 18.093 14.8944L15.5828 15.419C15.4446 15.4481 15.3024 15.4627 15.1598 15.4626C14.7758 15.4633 14.4026 15.3593 14.0991 15.1669C13.7956 14.9745 13.5792 14.7048 13.4843 14.4005L13.4805 14.3882L13.476 14.3765L12.6375 12.0738C12.5304 11.7123 12.6012 11.3308 12.8346 11.0116C13.0681 10.6924 13.4455 10.461 13.8855 10.3674H13.8945H13.9035L16.1708 9.8452C16.3116 9.81703 16.4562 9.80302 16.6013 9.80348V9.79674ZM16.6013 9.16167C16.3882 9.16044 16.1758 9.18105 15.969 9.22304L13.692 9.74764C13.048 9.88381 12.4961 10.223 12.1569 10.691C11.8176 11.1591 11.7186 11.718 11.8815 12.2456L12.7245 14.5637C12.8644 15.0054 13.1794 15.3967 13.6202 15.6763C14.061 15.9559 14.6027 16.1079 15.1605 16.1087C15.3686 16.1094 15.576 16.0888 15.7778 16.0473L18.288 15.5227C18.9319 15.3864 19.4836 15.0472 19.8229 14.5792C20.1621 14.1112 20.2612 13.5524 20.0985 13.0248L19.2555 10.7073C19.0739 10.2512 18.718 9.85487 18.2403 9.57672C17.7625 9.29856 17.1883 9.15329 16.602 9.16229" fill="#76808D"/>
</g>
<defs>
<clipPath id="clip0_1522_4558">
<rect width="120" height="25.3098" fill="white" transform="translate(0 0.185547)"/>
</clipPath>
</defs>
</svg>
