<svg width="138" height="81" viewBox="0 0 138 81" fill="none" xmlns="http://www.w3.org/2000/svg">
<g opacity="0.3" clip-path="url(#clip0_2324_3210)">
<path d="M4.44196 53.5957V72.107C4.39172 72.9884 4.53021 73.8703 4.84815 74.6938C5.17108 75.3039 5.6696 75.8028 6.27912 76.1261L8.67026 77.4944L6.70579 80.9999C4.22894 79.8047 2.49199 78.6646 1.49494 77.5795C0.497886 76.4945 -0.000426182 74.9413 2.73486e-07 72.9202V53.5957H4.44196Z" fill="white"/>
<path d="M10.2508 66.0776C10.7769 64.7323 11.5706 63.5082 12.5838 62.4794C13.597 61.4506 14.8086 60.6386 16.1449 60.0928C17.6491 59.4791 19.2613 59.1743 20.8856 59.1964C22.51 59.1744 24.1224 59.4792 25.6269 60.0928C26.963 60.6389 28.1744 61.4509 29.1876 62.4797C30.2008 63.5084 30.9946 64.7325 31.5209 66.0776C32.5461 68.6585 32.5461 71.5342 31.5209 74.1151C30.9948 75.4604 30.201 76.6846 29.1878 77.7135C28.1746 78.7424 26.9631 79.5545 25.6269 80.1005C24.1223 80.7138 22.51 81.0186 20.8856 80.9969C19.2613 81.0187 17.6492 80.7139 16.1449 80.1005C14.8085 79.5547 13.5968 78.7427 12.5836 77.7138C11.5704 76.6849 10.7767 75.4605 10.2508 74.1151C9.22563 71.5342 9.22563 68.6585 10.2508 66.0776ZM16.102 74.8629C16.7227 75.4992 17.4679 76.0004 18.291 76.3351C19.1141 76.6698 19.9974 76.8309 20.8856 76.8081C21.7775 76.835 22.6652 76.676 23.4925 76.3411C24.3197 76.0062 25.0683 75.5029 25.6908 74.8629C26.911 73.5763 27.5913 71.87 27.5913 70.096C27.5913 68.322 26.911 66.6157 25.6908 65.3291C25.0678 64.6902 24.319 64.1878 23.4918 63.8537C22.6646 63.5197 21.7771 63.3612 20.8856 63.3884C19.561 63.3973 18.2684 63.796 17.1687 64.5349C16.0689 65.2738 15.2106 66.3202 14.7007 67.5439C14.1907 68.7675 14.0517 70.1142 14.3009 71.4163C14.5501 72.7184 15.1764 73.9184 16.102 74.8668" fill="white"/>
<path d="M36.3896 67.4898C36.3896 64.9538 37.1227 62.9376 38.5889 61.441C39.2783 60.7156 40.1108 60.1415 41.0336 59.7551C41.9564 59.3687 42.9493 59.1783 43.9494 59.1962C45.3276 59.1547 46.6895 59.5029 47.879 60.2008C48.9114 60.8123 49.7087 61.7533 50.1428 62.8727H50.2279C50.6655 61.7487 51.4714 60.8067 52.5135 60.2008C53.6967 59.5082 55.0498 59.1602 56.42 59.1962C57.42 59.1786 58.4128 59.369 59.3354 59.7554C60.258 60.1418 61.0905 60.7158 61.7799 61.441C63.2461 62.9372 63.9794 64.9534 63.9798 67.4898V80.4434H59.5391V67.5327C59.5951 66.493 59.2425 65.4726 58.5566 64.6898C58.2488 64.352 57.8724 64.0839 57.4526 63.9035C57.0328 63.7232 56.5793 63.6348 56.1226 63.6442C55.6189 63.6199 55.1159 63.7045 54.6478 63.8924C54.1798 64.0802 53.7577 64.3668 53.4103 64.7327C52.7404 65.4584 52.4058 66.5915 52.4067 68.132V80.4441H47.9641V68.1314C47.9641 66.5947 47.6295 65.4616 46.9604 64.7321C46.613 64.3664 46.191 64.0799 45.7231 63.892C45.2552 63.7042 44.7523 63.6195 44.2488 63.6436C43.7917 63.6342 43.3379 63.7229 42.9179 63.9035C42.4979 64.0842 42.1213 64.3528 41.8135 64.6911C41.1278 65.474 40.7754 66.4944 40.8316 67.534V80.4447H36.3896V67.4898Z" fill="white"/>
<path d="M85.6785 77.923H85.5896C84.8315 78.8982 83.842 79.6685 82.711 80.164C81.4841 80.7224 80.1504 81.0064 78.8026 80.9963C77.2729 81.0156 75.7573 80.7022 74.3606 80.0775C73.0629 79.4967 71.8987 78.6543 70.9409 77.6028C70.0091 76.5754 69.2841 75.3778 68.8056 74.0755C68.3284 72.8041 68.0825 71.4575 68.0796 70.0993C68.0877 68.7725 68.3482 67.4593 68.8472 66.2301C69.3666 64.9226 70.1189 63.7205 71.0675 62.6822C72.0492 61.6035 73.2413 60.7377 74.5704 60.1384C75.9652 59.5054 77.481 59.1844 79.0124 59.1978C80.3777 59.1725 81.7301 59.4651 82.9631 60.0526C84.0227 60.5426 84.9303 61.3103 85.5896 62.2744H85.6753V59.7523H90.1173V80.4438H85.6753L85.6785 77.923ZM73.2924 72.6861C73.6281 73.49 74.1135 74.2227 74.7227 74.8451C75.3246 75.4649 76.0434 75.9589 76.8375 76.2986C77.6333 76.6401 78.4907 76.8144 79.3566 76.8108C80.2114 76.8084 81.057 76.633 81.8424 76.2952C82.6278 75.9574 83.3369 75.4642 83.9271 74.8451C84.5246 74.218 85.0016 73.4861 85.3344 72.6861C86.0176 71.0296 86.0176 69.1697 85.3344 67.5132C85.0018 66.7131 84.5247 65.9812 83.9271 65.3541C83.0339 64.418 81.8764 63.7772 80.6094 63.5175C79.3424 63.2578 78.0265 63.3915 76.8375 63.9007C76.0432 64.2403 75.3243 64.7346 74.7227 65.3548C74.1133 65.9771 73.6279 66.7098 73.2924 67.5138C72.6083 69.1702 72.6083 71.0304 73.2924 72.6867" fill="white"/>
<path d="M111.817 77.9227H111.732C110.973 78.8999 109.981 79.6716 108.848 80.1676C107.622 80.7261 106.288 81.0102 104.94 80.9999C103.411 81.0192 101.895 80.7057 100.499 80.0811C99.2015 79.4987 98.0382 78.6547 97.0815 77.6019C96.1498 76.5745 95.4248 75.3769 94.9463 74.0746C94.469 72.8032 94.2231 71.4566 94.2202 70.0984C94.2286 68.7716 94.4891 67.4585 94.9878 66.2292C95.5069 64.9216 96.2593 63.7195 97.2082 62.6814C98.1898 61.6026 99.382 60.7368 100.711 60.1375C102.106 59.5046 103.621 59.1836 105.152 59.1969C106.518 59.1715 107.871 59.4642 109.104 60.0517C110.163 60.5422 111.071 61.3103 111.73 62.2748H111.815V53.5957H116.258V80.4435H111.817V77.9227ZM99.4311 72.6858C99.7665 73.4899 100.252 74.2226 100.861 74.8449C101.463 75.4646 102.182 75.9587 102.976 76.2983C103.772 76.6398 104.629 76.8141 105.495 76.8105C106.348 76.8111 107.191 76.6368 107.973 76.2983C108.762 75.9615 109.474 75.4669 110.066 74.8449C110.663 74.2174 111.14 73.4856 111.473 72.6858C112.156 71.0293 112.156 69.1694 111.473 67.513C111.14 66.7131 110.663 65.9813 110.066 65.3539C109.173 64.4181 108.015 63.7774 106.749 63.5177C105.482 63.258 104.166 63.3915 102.977 63.9005C102.183 64.24 101.464 64.7343 100.863 65.3545C100.253 65.9766 99.7676 66.7094 99.4323 67.5136C98.7483 69.1699 98.7483 71.0301 99.4323 72.6865" fill="white"/>
<path d="M122.966 74.288C123.83 75.1986 124.859 75.9372 125.998 76.465C127.073 77.0063 128.255 77.2986 129.458 77.3204C130.504 77.365 131.537 77.0733 132.405 76.488C132.726 76.3073 132.998 76.0516 133.199 75.7426C133.399 75.4336 133.522 75.0806 133.557 74.7138C133.567 74.414 133.509 74.1158 133.387 73.8417C133.265 73.5677 133.083 73.3251 132.853 73.1323C132.277 72.6883 131.592 72.4077 130.87 72.3198L128.35 71.8492C125.559 71.3369 123.623 70.6172 122.541 69.6901C122.005 69.2305 121.58 68.655 121.299 68.007C121.017 67.3591 120.886 66.6555 120.916 65.9496C120.912 65.0424 121.107 64.1455 121.487 63.322C121.867 62.4984 122.423 61.7684 123.115 61.1833C124.581 59.86 126.553 59.1984 129.03 59.1984C130.44 59.1916 131.841 59.4228 133.174 59.8822C134.622 60.412 135.989 61.1449 137.232 62.0592L134.711 65.1799C133.858 64.4137 132.874 63.8065 131.807 63.3871C130.961 63.0629 130.065 62.8895 129.159 62.8749C128.22 62.8514 127.295 63.0957 126.49 63.5792C126.146 63.7641 125.86 64.0387 125.66 64.3739C125.461 64.709 125.356 65.0921 125.357 65.4822C125.357 66.6219 126.254 67.3475 128.048 67.6591L132.533 68.5139C136.177 69.1969 138 71.0354 138 74.0293C137.993 74.8606 137.819 75.682 137.488 76.4445C137.118 77.2981 136.581 78.0686 135.908 78.7105C135.119 79.4557 134.179 80.0234 133.153 80.3752C131.897 80.8098 130.574 81.0197 129.245 80.995C125.802 80.9641 122.489 79.6714 119.934 77.3614L122.966 74.288Z" fill="white"/>
<path d="M68.8713 3.98006C70.1788 3.97359 71.4746 4.22685 72.6837 4.72517C73.8927 5.22349 74.991 5.95697 75.9149 6.88312L81.0432 12.0169L87.662 18.6413C89.5272 20.5125 90.5747 23.0479 90.5747 25.6912C90.5747 28.3345 89.5272 30.8698 87.662 32.7411L81.4865 38.9224L75.9149 44.4993C74.0415 46.3589 71.51 47.4023 68.8716 47.4023C66.2332 47.4023 63.7017 46.3589 61.8284 44.4993L55.6408 38.3058L50.0806 32.7411C48.2227 30.866 47.1803 28.3321 47.1803 25.6912C47.1803 23.0503 48.2227 20.5164 50.0806 18.6413L56.4058 12.3108L61.8284 6.88312C62.7522 5.95701 63.8503 5.22356 65.0592 4.72524C66.2682 4.22692 67.5639 3.97364 68.8713 3.98006ZM68.8713 4.46655e-05C67.0426 -0.00410412 65.231 0.353138 63.5406 1.05128C61.8501 1.74943 60.3139 2.77474 59.0202 4.06842L53.5976 9.49612L47.2724 15.8273C44.6689 18.4486 43.2075 21.9946 43.2075 25.6909C43.2075 29.3871 44.6689 32.9332 47.2724 35.5545L52.8325 41.1198L59.0202 47.314C61.6391 49.9198 65.1818 51.3824 68.8745 51.3824C72.5672 51.3824 76.1099 49.9198 78.7288 47.314L84.3011 41.7364L90.4772 35.5545C93.0806 32.9331 94.5419 29.3871 94.5419 25.6909C94.5419 21.9947 93.0806 18.4486 90.4772 15.8273L83.8552 9.20223L78.7256 4.06842C77.4315 2.7743 75.8949 1.74873 74.2038 1.05057C72.5127 0.352409 70.7006 -0.0045959 68.8713 4.46655e-05Z" fill="white"/>
<path d="M68.8711 13.8259C69.6212 13.8222 70.3647 13.9675 71.0584 14.2532C71.7521 14.539 72.3823 14.9595 72.9126 15.4906L79.06 21.6438C80.1303 22.7175 80.7314 24.1723 80.7314 25.6891C80.7314 27.2059 80.1303 28.6607 79.06 29.7344L72.9126 35.8876C71.8379 36.9552 70.3852 37.5542 68.8711 37.5542C67.357 37.5542 65.9043 36.9552 64.8296 35.8876L58.6822 29.7344C57.6119 28.6607 57.0108 27.2059 57.0108 25.6891C57.0108 24.1723 57.6119 22.7175 58.6822 21.6438L64.8296 15.4906C65.3599 14.9596 65.9901 14.539 66.6838 14.2533C67.3775 13.9675 68.1209 13.8223 68.8711 13.8259ZM68.8711 12.2476C67.9134 12.2448 66.9647 12.4315 66.0793 12.7968C65.194 13.1622 64.3895 13.699 63.712 14.3765L57.5647 20.5297C56.2025 21.9016 55.438 23.7572 55.438 25.6913C55.438 27.6255 56.2025 29.4811 57.5647 30.853L63.712 37.0055C65.0826 38.3691 66.9364 39.1345 68.8688 39.1345C70.8013 39.1345 72.6551 38.3691 74.0257 37.0055L80.1724 30.853C81.5345 29.4811 82.2991 27.6255 82.2991 25.6913C82.2991 23.7572 81.5345 21.9016 80.1724 20.5297L74.0257 14.3765C73.3484 13.6993 72.5442 13.1626 71.6592 12.7972C70.7742 12.4319 69.8258 12.2451 68.8685 12.2476" fill="white"/>
<path d="M70.1732 9.58883C71.4088 9.58705 72.6273 9.8775 73.7295 10.4365C74.8317 10.9955 75.7863 11.8073 76.5156 12.8056L83.483 22.4285C84.69 24.1092 85.1844 26.1993 84.8583 28.2432C84.5323 30.2872 83.4123 32.1193 81.7425 33.3402L72.1287 40.3155C70.8038 41.2795 69.2069 41.7966 67.569 41.792C66.3334 41.7934 65.115 41.5027 64.0129 40.9435C62.9109 40.3842 61.9564 39.5723 61.2272 38.5739L54.2604 28.9511C53.0478 27.2722 52.55 25.1805 52.8762 23.1348C53.2024 21.089 54.3259 19.2563 56.0004 18.0387L65.6142 11.066C66.9393 10.1021 68.5363 9.58477 70.1745 9.58883M70.1745 7.43363C68.0837 7.43106 66.0459 8.0914 64.3533 9.31991L54.7364 16.2939C52.6042 17.8506 51.1742 20.1885 50.7585 22.7971C50.3429 25.4057 50.9754 28.073 52.5179 30.2163L59.4834 39.8385C61.0377 41.9737 63.3734 43.4062 65.9798 43.8228C68.5862 44.2394 71.2514 43.6061 73.3927 42.0616L83.0065 35.0876C85.1389 33.5312 86.5694 31.1934 86.9854 28.5848C87.4014 25.9762 86.7692 23.3088 85.2268 21.1652L78.26 11.5423C77.3328 10.2661 76.1164 9.22819 74.7106 8.51393C73.3048 7.79968 71.7497 7.42944 70.1732 7.43363" fill="white"/>
<path d="M70.749 19.5123C71.4327 19.4943 72.1047 19.6929 72.6689 20.08C73.2331 20.4671 73.6606 21.0227 73.8905 21.6675L73.8975 21.6931L73.9045 21.7175L75.2946 26.396C75.4748 27.13 75.3584 27.9056 74.9705 28.5541C74.5826 29.2026 73.9548 29.6717 73.2233 29.8594L69.0602 30.9261C68.8304 30.9854 68.5939 31.0153 68.3566 31.0151C67.7197 31.0161 67.1007 30.8047 66.5972 30.4143C66.0938 30.0239 65.7346 29.4767 65.5765 28.8592L65.5701 28.8343L65.5631 28.8099L64.1724 24.1314C63.9954 23.3975 64.1133 22.6234 64.5007 21.9756C64.888 21.3278 65.5139 20.8581 66.2437 20.6674L66.2584 20.6636L66.2738 20.6591L70.0357 19.5988C70.2694 19.5415 70.5091 19.5129 70.7496 19.5136M70.7496 18.21C70.3958 18.2086 70.0431 18.2516 69.6999 18.338L65.9219 19.4035C64.8531 19.6794 63.9369 20.3677 63.3735 21.3178C62.8102 22.2679 62.6455 23.4026 62.9154 24.4739L64.3138 29.1794C64.5457 30.0762 65.0682 30.8708 65.7996 31.4385C66.5309 32.0063 67.4298 32.3151 68.3553 32.3168C68.7005 32.3171 69.0443 32.2741 69.3788 32.1887L73.5438 31.1233C74.6126 30.8473 75.5288 30.1591 76.0922 29.209C76.6556 28.2589 76.8203 27.1241 76.5503 26.0529L75.1519 21.3474C74.6722 19.4688 72.6911 18.21 70.7484 18.21" fill="white"/>
</g>
<defs>
<clipPath id="clip0_2324_3210">
<rect width="138" height="81" fill="white"/>
</clipPath>
</defs>
</svg>
