<svg width="150" height="39" viewBox="0 0 150 39" fill="none" xmlns="http://www.w3.org/2000/svg">
<path d="M49.3837 9.02344V22.9556C49.3458 23.6187 49.45 24.2823 49.6894 24.9019C49.9328 25.361 50.3084 25.7366 50.7675 25.98L52.5684 27.0112L51.0881 29.6494C49.6381 29.0294 48.3092 28.1579 47.1628 27.075C46.3545 26.0924 45.9521 24.8382 46.0378 23.5687V9.02344H49.3837Z" fill="#C94B32"/>
<path d="M53.7637 18.4172C54.1605 17.4055 54.7586 16.485 55.5219 15.7115C56.2851 14.9379 57.1975 14.3275 58.2038 13.9172C60.4994 13.0158 63.0509 13.0158 65.3465 13.9172C66.3527 14.3277 67.265 14.9382 68.0282 15.7117C68.7914 16.4852 69.3896 17.4056 69.7866 18.4172C70.5588 20.3595 70.5588 22.5236 69.7866 24.4659C69.3902 25.4784 68.7923 26.3997 68.029 27.1741C67.2658 27.9484 66.3532 28.5597 65.3465 28.9706C63.0508 29.8714 60.4995 29.8714 58.2038 28.9706C57.197 28.5599 56.2843 27.9487 55.5211 27.1743C54.7578 26.4 54.1599 25.4785 53.7637 24.4659C52.9915 22.5236 52.9915 20.3595 53.7637 18.4172ZM58.17 25.0294C59.138 25.968 60.4334 26.493 61.7817 26.493C63.1301 26.493 64.4255 25.968 65.3934 25.0294C66.3128 24.0611 66.8254 22.7768 66.8254 21.4416C66.8254 20.1063 66.3128 18.822 65.3934 17.8538C64.4256 16.9149 63.1301 16.3898 61.7817 16.3898C60.4333 16.3898 59.1379 16.9149 58.17 17.8538C57.2412 18.8172 56.7222 20.1033 56.7222 21.4416C56.7222 22.7798 57.2412 24.0659 58.17 25.0294Z" fill="#C94B32"/>
<path d="M73.455 19.4803C73.4126 18.6492 73.5373 17.8181 73.8219 17.0362C74.1064 16.2542 74.545 15.5373 75.1116 14.9278C75.631 14.3822 76.2581 13.9504 76.9532 13.6599C77.6483 13.3694 78.3961 13.2265 79.1494 13.2403C80.1876 13.2089 81.2138 13.4708 82.11 13.9959C82.8878 14.4561 83.4883 15.1644 83.8153 16.0069H83.8791C84.2089 15.1609 84.8161 14.4519 85.6012 13.9959C86.4929 13.4747 87.5125 13.213 88.545 13.2403C89.2982 13.2265 90.0461 13.3694 90.7412 13.6599C91.4362 13.9504 92.0634 14.3822 92.5828 14.9278C93.1496 15.5372 93.5883 16.2541 93.873 17.036C94.1577 17.818 94.2826 18.6492 94.2403 19.4803V29.2303H90.8944V19.5122C90.9364 18.7297 90.6706 17.9618 90.1537 17.3728C89.922 17.1182 89.6385 16.9162 89.3222 16.7802C89.0059 16.6442 88.6642 16.5774 88.32 16.5844C87.9405 16.5662 87.5616 16.6301 87.2091 16.7717C86.8566 16.9133 86.5387 17.1292 86.2772 17.4047C85.7144 18.1331 85.4448 19.0458 85.5216 19.9631V29.2294H82.1747V19.9631C82.2512 19.0459 81.9817 18.1332 81.4191 17.4047C81.1574 17.1293 80.8396 16.9134 80.4871 16.7719C80.1346 16.6303 79.7557 16.5664 79.3762 16.5844C79.0319 16.5773 78.69 16.644 78.3736 16.78C78.0571 16.916 77.7734 17.1181 77.5416 17.3728C77.0251 17.962 76.7596 18.7298 76.8019 19.5122V29.2294H73.4559L73.455 19.4803Z" fill="#C94B32"/>
<path d="M110.586 27.3309H110.521C109.949 28.0656 109.203 28.6457 108.35 29.0184C107.425 29.439 106.42 29.653 105.405 29.6456C104.253 29.66 103.111 29.4239 102.059 28.9537C101.082 28.5154 100.205 27.8803 99.4847 27.0881C98.7826 26.3149 98.2363 25.4134 97.8759 24.4331C97.5165 23.4762 97.3314 22.4627 97.3294 21.4406C97.3359 20.442 97.5325 19.4538 97.9088 18.5287C98.3 17.5448 98.8667 16.6401 99.5813 15.8587C100.321 15.0469 101.219 14.3953 102.22 13.9443C103.271 13.468 104.413 13.2265 105.566 13.2365C106.595 13.2174 107.614 13.4379 108.543 13.8806C109.341 14.2494 110.025 14.8273 110.522 15.5531H110.587V13.6547H113.932V29.2275H110.587L110.586 27.3309ZM101.255 23.3934C101.508 23.9984 101.873 24.5497 102.332 25.0181C102.786 25.4818 103.327 25.8511 103.924 26.1047C104.523 26.3616 105.169 26.4927 105.821 26.49C106.465 26.488 107.102 26.356 107.694 26.1017C108.286 25.8475 108.82 25.4764 109.265 25.0106C109.715 24.5388 110.076 23.9881 110.327 23.3859C110.842 22.1392 110.842 20.7392 110.327 19.4925C110.076 18.8902 109.716 18.3395 109.265 17.8678C108.592 17.1624 107.719 16.6795 106.764 16.484C105.809 16.2884 104.817 16.3895 103.921 16.7737C103.322 17.0293 102.781 17.4012 102.327 17.8678C101.868 18.3361 101.503 18.8875 101.25 19.4925C100.735 20.7391 100.735 22.1393 101.25 23.3859" fill="#C94B32"/>
<path d="M130.276 27.3309H130.212C129.64 28.0657 128.893 28.6458 128.04 29.0184C127.116 29.4391 126.111 29.6532 125.095 29.6456C123.943 29.6601 122.801 29.424 121.749 28.9538C120.772 28.5155 119.896 27.8804 119.175 27.0881C118.473 26.3149 117.927 25.4134 117.566 24.4331C117.207 23.4762 117.022 22.4628 117.02 21.4406C117.026 20.442 117.223 19.4539 117.599 18.5288C117.99 17.5447 118.557 16.64 119.272 15.8587C120.011 15.0469 120.909 14.3954 121.911 13.9444C122.961 13.468 124.103 13.2264 125.257 13.2366C126.285 13.2175 127.304 13.438 128.233 13.8806C129.032 14.2507 129.716 14.8303 130.212 15.5578H130.276V9.02344H133.623V29.2294H130.276V27.3309ZM120.946 23.3934C121.199 23.9985 121.564 24.5499 122.023 25.0181C122.477 25.4848 123.018 25.8567 123.617 26.1122C124.216 26.3691 124.862 26.5002 125.514 26.4975C126.158 26.4955 126.795 26.3635 127.387 26.1093C127.979 25.8551 128.513 25.4839 128.958 25.0181C129.408 24.5461 129.768 23.9954 130.02 23.3934C130.535 22.1467 130.535 20.7468 130.02 19.5C129.768 18.8979 129.408 18.3472 128.958 17.8753C128.512 17.4071 127.976 17.0348 127.382 16.7812C126.793 16.5266 126.157 16.3954 125.515 16.3959C124.863 16.3932 124.217 16.5243 123.618 16.7812C123.019 17.0368 122.478 17.4087 122.024 17.8753C121.565 18.3434 121.199 18.8949 120.947 19.5C120.431 20.7466 120.431 22.1468 120.947 23.3934" fill="#C94B32"/>
<path d="M138.674 24.5962C139.325 25.2823 140.101 25.8389 140.959 26.2368C141.768 26.6443 142.659 26.8645 143.565 26.8809C144.353 26.9143 145.132 26.6945 145.786 26.2537C146.028 26.1178 146.233 25.9254 146.384 25.6929C146.535 25.4604 146.628 25.1948 146.654 24.9187C146.662 24.693 146.618 24.4684 146.526 24.2621C146.434 24.0558 146.297 23.8732 146.123 23.7281C145.688 23.3929 145.169 23.1817 144.623 23.1168L142.725 22.7625C141.156 22.5873 139.653 22.0294 138.35 21.1378C137.947 20.7916 137.628 20.3587 137.417 19.8715C137.206 19.3844 137.108 18.8557 137.131 18.3253C137.128 17.6426 137.275 16.9676 137.561 16.3479C137.847 15.7281 138.266 15.1787 138.788 14.7384C140.029 13.691 141.622 13.1548 143.243 13.2384C144.305 13.2334 145.36 13.4073 146.364 13.7531C147.456 14.1525 148.485 14.7049 149.422 15.3937L147.523 17.7421C146.88 17.1648 146.139 16.7073 145.335 16.3912C144.698 16.147 144.022 16.0162 143.34 16.005C142.633 15.9875 141.935 16.1715 141.329 16.5356C141.07 16.6747 140.854 16.8814 140.704 17.1338C140.554 17.3861 140.475 17.6744 140.476 17.9681C140.476 18.8262 141.152 19.3731 142.503 19.6087L145.878 20.2528C148.623 20.7672 149.996 22.1506 149.996 24.4031C149.991 25.0288 149.86 25.647 149.61 26.2209C149.331 26.8633 148.926 27.4431 148.419 27.9262C147.826 28.4881 147.118 28.9162 146.345 29.1815C145.398 29.5094 144.401 29.6681 143.4 29.6503C140.806 29.6272 138.311 28.6543 136.386 26.9156L138.674 24.5962Z" fill="#C94B32"/>
<path d="M19.3359 2.99531C20.321 2.9906 21.2971 3.18131 22.208 3.55642C23.1188 3.93153 23.9462 4.48359 24.6422 5.18062L28.5056 9.04406L33.4922 14.0297C34.8972 15.438 35.6863 17.3461 35.6863 19.3355C35.6863 21.3248 34.8972 23.2329 33.4922 24.6412L28.8403 29.2931L24.6431 33.4903C23.2319 34.8899 21.3249 35.6752 19.3373 35.6752C17.3498 35.6752 15.4428 34.8899 14.0316 33.4903L9.37031 28.8291L5.18156 24.6412C3.78197 23.23 2.99666 21.323 2.99666 19.3355C2.99666 17.3479 3.78197 15.4409 5.18156 14.0297L9.94687 9.2653L14.0316 5.18062C14.7274 4.48366 15.5547 3.93164 16.4653 3.55653C17.376 3.18142 18.352 2.99067 19.3369 2.99531H19.3359ZM19.3369 -0.00469897C17.9589 -0.00811639 16.5938 0.260595 15.32 0.78603C14.0461 1.31147 12.8886 2.08327 11.9137 3.05717L7.82906 7.14279L3.06375 11.9072C1.10233 13.88 0.00137329 16.5489 0.00137329 19.3308C0.00137329 22.1127 1.10233 24.7816 3.06375 26.7544L7.25249 30.9431L11.9137 35.6044C13.8867 37.5656 16.5555 38.6663 19.3373 38.6663C22.1192 38.6663 24.788 37.5656 26.7609 35.6044L30.9591 31.4062L35.6119 26.7534C37.5731 24.7805 38.6739 22.1117 38.6739 19.3298C38.6739 16.548 37.5731 13.8792 35.6119 11.9063L30.6253 6.92061L26.7609 3.05625C25.7861 2.08232 24.6286 1.31047 23.3547 0.785029C22.0809 0.259591 20.7158 -0.00911182 19.3378 -0.00564311" fill="#C94B32"/>
<path d="M19.3359 10.4053C19.9012 10.4026 20.4614 10.5121 20.9841 10.7274C21.5068 10.9428 21.9816 11.2596 22.3809 11.6597L27.0122 16.2909C27.818 17.0993 28.2704 18.1941 28.2704 19.3355C28.2704 20.4768 27.818 21.5716 27.0122 22.38L22.3809 27.0112C21.5711 27.8159 20.4758 28.2676 19.3341 28.2676C18.1924 28.2676 17.0971 27.8159 16.2872 27.0112L11.6559 22.38C10.8502 21.5716 10.3977 20.4768 10.3977 19.3355C10.3977 18.1941 10.8502 17.0993 11.6559 16.2909L16.2872 11.6597C16.6866 11.2597 17.1614 10.9428 17.6841 10.7275C18.2067 10.5122 18.7669 10.4027 19.3322 10.4053H19.3359ZM19.3322 9.21749C18.6112 9.21569 17.8969 9.3563 17.2304 9.63125C16.5639 9.90619 15.9582 10.3101 15.4481 10.8197L10.8169 15.4509C9.7908 16.4834 9.21489 17.8799 9.21489 19.3355C9.21489 20.7911 9.7908 22.1875 10.8169 23.22L15.4481 27.8512C16.4806 28.8773 17.8771 29.4532 19.3327 29.4532C20.7883 29.4532 22.1847 28.8773 23.2172 27.8512L27.8475 23.22C28.8736 22.1875 29.4495 20.7911 29.4495 19.3355C29.4495 17.8799 28.8736 16.4834 27.8475 15.4509L23.2172 10.8197C22.707 10.31 22.1012 9.90608 21.4345 9.63113C20.7678 9.35619 20.0534 9.21562 19.3322 9.21749Z" fill="#C94B32"/>
<path d="M20.3184 7.21782C21.2499 7.21584 22.1686 7.4342 22.9995 7.85505C23.8305 8.27591 24.5501 8.88733 25.0997 9.63939L30.3497 16.8816C31.2581 18.1469 31.6298 19.7199 31.384 21.258C31.1382 22.7961 30.2947 24.1749 29.0372 25.0941L21.795 30.3441C20.7969 31.0696 19.5939 31.4587 18.36 31.455C17.4286 31.457 16.5098 31.2386 15.6789 30.8178C14.8479 30.3969 14.1283 29.7855 13.5787 29.0334L8.32875 21.7912C7.41551 20.5275 7.04082 18.9532 7.28687 17.4136C7.53293 15.874 8.37964 14.4949 9.64125 13.5788L16.8834 8.32875C17.8815 7.60323 19.0845 7.21415 20.3184 7.21782ZM20.3184 5.59502C18.7427 5.59256 17.2067 6.08944 15.9309 7.01437L8.68875 12.2644C7.08378 13.4356 6.0071 15.1939 5.6936 17.1559C5.3801 19.1179 5.85522 21.1242 7.01531 22.7372L12.2653 29.9794C13.4361 31.5866 15.1957 32.6648 17.1592 32.9784C19.1228 33.292 21.1306 32.8154 22.7437 31.6528L29.9859 26.4028C31.5924 25.2314 32.67 23.4719 32.9833 21.5085C33.2967 19.5452 32.8204 17.5377 31.6584 15.9244L26.4084 8.6822C25.7099 7.72125 24.7932 6.93976 23.7339 6.40194C22.6746 5.86412 21.5027 5.58531 20.3147 5.58844" fill="#C94B32"/>
<path d="M20.7516 14.685C21.2667 14.6716 21.7728 14.8214 22.1978 15.1128C22.6227 15.4042 22.9447 15.8225 23.1178 16.3078L23.1234 16.3266L23.1291 16.3453L24.1762 19.8665C24.3129 20.419 24.2257 21.0032 23.9334 21.4916C23.6412 21.98 23.1677 22.333 22.6162 22.4737L19.4784 23.2753C19.3057 23.3197 19.128 23.342 18.9497 23.3419C18.4698 23.343 18.0032 23.184 17.6238 22.8901C17.2445 22.5962 16.974 22.184 16.8553 21.7191L16.8506 21.7003L16.845 21.6825L15.7969 18.1641C15.663 17.6117 15.7515 17.0289 16.0433 16.5412C16.3351 16.0535 16.8068 15.7 17.3569 15.5569H17.3681H17.3794L20.2134 14.759C20.3895 14.716 20.5703 14.6946 20.7516 14.6953V14.685ZM20.7516 13.7147C20.4852 13.7128 20.2197 13.7443 19.9612 13.8084L17.115 14.61C16.31 14.818 15.6202 15.3363 15.1961 16.0514C14.772 16.7665 14.6483 17.6205 14.8519 18.4266L15.9056 21.9684C16.0805 22.6433 16.4743 23.2412 17.0253 23.6684C17.5763 24.0956 18.2534 24.3279 18.9506 24.329C19.2107 24.3302 19.4699 24.2987 19.7222 24.2353L22.86 23.4337C23.6648 23.2255 24.3545 22.7072 24.7786 21.9921C25.2026 21.2771 25.3264 20.4233 25.1231 19.6172L24.0694 16.0762C23.8423 15.3793 23.3975 14.7738 22.8003 14.3488C22.2032 13.9238 21.4853 13.7019 20.7525 13.7156" fill="#C94B32"/>
</svg>
