<svg width="27" height="21" viewBox="0 0 27 21" fill="none" xmlns="http://www.w3.org/2000/svg">
<g clip-path="url(#clip0_2_4458)">
<path d="M10.7743 20.1562C8.87834 20.1562 7.02498 19.5963 5.44856 18.5475C3.87214 17.4986 2.64348 16.0078 1.91793 14.2636C1.19239 12.5194 1.00255 10.6001 1.37243 8.74848C1.74231 6.89684 2.65529 5.19601 3.99592 3.86105C5.33656 2.52609 7.04463 1.61698 8.90414 1.24866C10.7636 0.880351 12.6911 1.06938 14.4427 1.79186C16.1943 2.51433 17.6915 3.73779 18.7448 5.30754C19.7981 6.87728 20.3603 8.72279 20.3603 10.6107C20.3603 13.1423 19.3504 15.5702 17.5526 17.3604C15.7549 19.1505 13.3167 20.1562 10.7743 20.1562V20.1562Z" stroke="#76808D" stroke-linecap="round" stroke-linejoin="round"/>
<path d="M12.4268 1.12616C12.7875 1.08566 13.1502 1.06532 13.5132 1.06525C15.9522 1.06261 18.3004 1.98579 20.0798 3.64678C21.8591 5.30778 22.9357 7.58169 23.0904 10.0054C23.245 12.4292 22.4661 14.8205 20.9122 16.6924C19.3582 18.5643 17.1462 19.776 14.7265 20.0807C13.9 20.184 13.0636 20.1812 12.2378 20.0725" stroke="#76808D" stroke-linecap="round" stroke-linejoin="round"/>
<path d="M14.9109 1.12616C15.2716 1.08566 15.6343 1.06532 15.9973 1.06525C18.4363 1.06261 20.7845 1.98579 22.5639 3.64678C24.3432 5.30778 25.4199 7.58169 25.5745 10.0054C25.7292 12.4292 24.9502 14.8205 23.3963 16.6924C21.8424 18.5643 19.6303 19.776 17.2106 20.0807C16.3841 20.184 15.5477 20.1812 14.7219 20.0725" stroke="#76808D" stroke-linecap="round" stroke-linejoin="round"/>
<path d="M13.8783 9.34432C13.8784 9.93945 13.7013 10.5213 13.3692 11.0161C13.0372 11.5109 12.5651 11.8965 12.0129 12.124C11.4606 12.3516 10.853 12.4108 10.2669 12.2943C9.68079 12.1778 9.14259 11.8907 8.72043 11.4694C8.29827 11.0482 8.01112 10.5116 7.89534 9.92779C7.77957 9.34393 7.84036 8.73899 8.07004 8.18956C8.29971 7.64013 8.68794 7.17091 9.18556 6.8413C9.68319 6.51169 10.2678 6.33652 10.8655 6.33796C11.665 6.34013 12.431 6.65776 12.9957 7.22128C13.5604 7.7848 13.8778 8.54824 13.8783 9.34432V9.34432Z" stroke="#76808D" stroke-miterlimit="10" stroke-linecap="round"/>
<path d="M14.8827 18.8952C14.8472 17.8345 14.399 16.829 13.6329 16.0911C12.8667 15.3532 11.8426 14.9407 10.7767 14.9407C9.71079 14.9407 8.68664 15.3532 7.92049 16.0911C7.15434 16.829 6.70618 17.8345 6.67065 18.8952" stroke="#76808D" stroke-miterlimit="10" stroke-linecap="round"/>
</g>
<defs>
<clipPath id="clip0_2_4458">
<rect width="25.3081" height="20" fill="white" transform="translate(0.731689 0.610718)"/>
</clipPath>
</defs>
</svg>
