<svg width="172" height="32" viewBox="0 0 172 32" fill="none" xmlns="http://www.w3.org/2000/svg">
<path d="M151.256 16.14C150.372 15.5569 149.398 15.1423 148.476 14.624C147.878 14.2871 147.241 13.989 146.722 13.5614C145.838 12.8358 146.02 11.4105 146.943 10.7885C148.268 9.9074 150.463 10.3997 150.697 12.2009C150.697 12.2397 150.736 12.2657 150.775 12.2657H152.776C152.828 12.2657 152.867 12.2268 152.854 12.175C152.75 10.931 152.269 9.8944 151.386 9.23355C150.541 8.59862 149.58 8.26172 148.553 8.26172C143.266 8.26172 142.785 13.8465 145.63 15.6088C145.955 15.8161 148.748 17.2155 149.736 17.8245C150.723 18.4335 151.035 19.5479 150.606 20.429C150.216 21.2324 149.203 21.7896 148.19 21.7248C147.085 21.66 146.228 21.064 145.929 20.131C145.877 19.9626 145.851 19.6386 145.851 19.4961C145.851 19.4572 145.812 19.4183 145.773 19.4183H143.604C143.565 19.4183 143.526 19.4572 143.526 19.4961C143.526 21.064 143.916 21.9321 144.981 22.7226C145.981 23.4741 147.072 23.7851 148.203 23.7851C151.165 23.7851 152.698 22.1135 153.009 20.3772C153.282 18.6797 152.776 17.1507 151.256 16.14Z" fill="#161616"/>
<path d="M57.0569 8.54688H56.0956H55.0433C55.0043 8.54688 54.9784 8.57279 54.9654 8.59871L53.1856 14.4556C53.1596 14.5334 53.0558 14.5334 53.0298 14.4556L51.25 8.59871C51.237 8.55983 51.211 8.54688 51.172 8.54688H50.1198H49.1583H47.8592C47.8202 8.54688 47.7812 8.58575 47.7812 8.62462V23.5779C47.7812 23.6167 47.8202 23.6556 47.8592 23.6556H50.0288C50.0678 23.6556 50.1068 23.6167 50.1068 23.5779V12.2139C50.1068 12.1232 50.2366 12.1103 50.2626 12.188L52.0554 18.0838L52.1852 18.4984C52.1982 18.5373 52.2242 18.5503 52.2632 18.5503H53.9262C53.9651 18.5503 53.9911 18.5243 54.0041 18.4984L54.1339 18.0838L55.9267 12.188C55.9527 12.0973 56.0826 12.1232 56.0826 12.2139V23.5779C56.0826 23.6167 56.1216 23.6556 56.1605 23.6556H58.3301C58.3691 23.6556 58.408 23.6167 58.408 23.5779V8.62462C58.408 8.58575 58.3691 8.54688 58.3301 8.54688H57.0569Z" fill="#161616"/>
<path d="M118.037 8.54688C117.998 8.54688 117.972 8.57279 117.959 8.59871L116.18 14.4556C116.154 14.5334 116.05 14.5334 116.024 14.4556L114.244 8.59871C114.231 8.55983 114.205 8.54688 114.166 8.54688H110.866C110.827 8.54688 110.788 8.58575 110.788 8.62462V23.5779C110.788 23.6167 110.827 23.6556 110.866 23.6556H113.036C113.075 23.6556 113.114 23.6167 113.114 23.5779V12.2139C113.114 12.1232 113.244 12.1103 113.27 12.188L115.062 18.0838L115.192 18.4984C115.205 18.5373 115.231 18.5503 115.27 18.5503H116.933C116.972 18.5503 116.998 18.5243 117.011 18.4984L117.141 18.0838L118.934 12.188C118.96 12.0973 119.09 12.1232 119.09 12.2139V23.5779C119.09 23.6167 119.129 23.6556 119.168 23.6556H121.337C121.376 23.6556 121.415 23.6167 121.415 23.5779V8.62462C121.415 8.58575 121.376 8.54688 121.337 8.54688H118.037Z" fill="#161616"/>
<path d="M90.0543 8.54688H86.014H83.8445H79.8043C79.7653 8.54688 79.7263 8.58575 79.7263 8.62462V10.4905C79.7263 10.5294 79.7653 10.5683 79.8043 10.5683H83.7666V23.5779C83.7666 23.6167 83.8055 23.6556 83.8445 23.6556H86.014C86.053 23.6556 86.092 23.6167 86.092 23.5779V10.5683H90.0543C90.0933 10.5683 90.1322 10.5294 90.1322 10.4905V8.62462C90.1322 8.58575 90.1063 8.54688 90.0543 8.54688Z" fill="#161616"/>
<path d="M102.851 23.6554H104.825C104.877 23.6554 104.916 23.6036 104.903 23.5518L100.824 8.5467C100.811 8.50783 100.785 8.49487 100.746 8.49487H99.9927H98.6676H97.9141C97.8751 8.49487 97.8491 8.52079 97.8361 8.5467L93.7569 23.5518C93.7439 23.6036 93.7829 23.6554 93.8349 23.6554H95.8095C95.8485 23.6554 95.8745 23.6295 95.8875 23.6036L97.0697 19.2368C97.0826 19.198 97.1086 19.185 97.1476 19.185H101.513C101.552 19.185 101.578 19.2109 101.591 19.2368L102.773 23.6036C102.786 23.6295 102.825 23.6554 102.851 23.6554ZM97.6672 17.047L99.2522 11.203C99.2781 11.1253 99.3821 11.1253 99.4081 11.203L100.993 17.047C101.006 17.0988 100.967 17.1506 100.915 17.1506H97.7452C97.6932 17.1506 97.6543 17.0988 97.6672 17.047Z" fill="#161616"/>
<path d="M136.524 23.6554H138.498C138.55 23.6554 138.589 23.6036 138.576 23.5518L134.497 8.5467C134.484 8.50783 134.458 8.49487 134.419 8.49487H133.666H132.341H131.587C131.548 8.49487 131.522 8.52079 131.509 8.5467L127.43 23.5518C127.417 23.6036 127.456 23.6554 127.508 23.6554H129.483C129.522 23.6554 129.548 23.6295 129.561 23.6036L130.743 19.2368C130.756 19.198 130.782 19.185 130.821 19.185H135.186C135.225 19.185 135.251 19.2109 135.264 19.2368L136.446 23.6036C136.459 23.6295 136.485 23.6554 136.524 23.6554ZM131.34 17.047L132.925 11.203C132.951 11.1253 133.055 11.1253 133.081 11.203L134.666 17.047C134.679 17.0988 134.64 17.1506 134.588 17.1506H131.418C131.366 17.1506 131.327 17.0988 131.34 17.047Z" fill="#161616"/>
<path d="M67.216 21.4398V16.8009C67.216 16.7621 67.255 16.7232 67.294 16.7232H73.075C73.114 16.7232 73.153 16.6843 73.153 16.6454V14.7795C73.153 14.7407 73.114 14.7018 73.075 14.7018H67.294C67.255 14.7018 67.216 14.6629 67.216 14.624V10.659C67.216 10.6201 67.255 10.5812 67.294 10.5812H73.8675C73.9065 10.5812 73.9455 10.5423 73.9455 10.5035V8.63756C73.9455 8.59869 73.9065 8.55981 73.8675 8.55981H67.216H64.9686C64.9296 8.55981 64.8906 8.59869 64.8906 8.63756V10.5812V14.7147V16.7362V21.5305V23.5778C64.8906 23.6167 64.9296 23.6556 64.9686 23.6556H67.216H74.1403C74.1793 23.6556 74.2183 23.6167 74.2183 23.5778V21.6083C74.2183 21.5694 74.1793 21.5305 74.1403 21.5305H67.281C67.242 21.5176 67.216 21.4916 67.216 21.4398Z" fill="#161616"/>
<path d="M171.08 23.526L163.571 15.7902C163.545 15.7643 163.545 15.7125 163.571 15.6866L170.327 8.68939C170.379 8.63756 170.34 8.55981 170.275 8.55981H167.508C167.482 8.55981 167.469 8.57277 167.456 8.58573L161.727 14.5204C161.675 14.5722 161.597 14.5333 161.597 14.4685V8.63756C161.597 8.59869 161.558 8.55981 161.519 8.55981H159.349C159.31 8.55981 159.271 8.59869 159.271 8.63756V23.5908C159.271 23.6297 159.31 23.6686 159.349 23.6686H161.519C161.558 23.6686 161.597 23.6297 161.597 23.5908V17.0083C161.597 16.9435 161.688 16.9046 161.727 16.9564L168.222 23.6426C168.235 23.6556 168.261 23.6686 168.274 23.6686H171.041C171.093 23.6556 171.132 23.5649 171.08 23.526Z" fill="#161616"/>
<path d="M32.9583 0.5L19.8242 10.2183L22.2666 4.49099L32.9583 0.5Z" fill="#E17726" stroke="#E17726" stroke-width="0.25" stroke-linecap="round" stroke-linejoin="round"/>
<path d="M2.66284 0.5L15.68 10.309L13.3546 4.49098L2.66284 0.5Z" fill="#E27625" stroke="#E27625" stroke-width="0.25" stroke-linecap="round" stroke-linejoin="round"/>
<path d="M28.2292 23.0333L24.7346 28.3719L32.2175 30.4322L34.3611 23.15L28.2292 23.0333Z" fill="#E27625" stroke="#E27625" stroke-width="0.25" stroke-linecap="round" stroke-linejoin="round"/>
<path d="M1.27271 23.15L3.40324 30.4322L10.8732 28.3719L7.39153 23.0333L1.27271 23.15Z" fill="#E27625" stroke="#E27625" stroke-width="0.25" stroke-linecap="round" stroke-linejoin="round"/>
<path d="M10.4704 14.0149L8.39185 17.1507L15.7968 17.4876L15.55 9.51855L10.4704 14.0149Z" fill="#E27625" stroke="#E27625" stroke-width="0.25" stroke-linecap="round" stroke-linejoin="round"/>
<path d="M25.1503 14.015L19.9929 9.42798L19.824 17.4877L27.2289 17.1508L25.1503 14.015Z" fill="#E27625" stroke="#E27625" stroke-width="0.25" stroke-linecap="round" stroke-linejoin="round"/>
<path d="M10.8733 28.372L15.3552 26.2081L11.4969 23.2019L10.8733 28.372Z" fill="#E27625" stroke="#E27625" stroke-width="0.25" stroke-linecap="round" stroke-linejoin="round"/>
<path d="M20.2659 26.2081L24.7348 28.372L24.1242 23.2019L20.2659 26.2081Z" fill="#E27625" stroke="#E27625" stroke-width="0.25" stroke-linecap="round" stroke-linejoin="round"/>
<path d="M24.7348 28.3722L20.2659 26.2083L20.6296 29.1108L20.5906 30.3418L24.7348 28.3722Z" fill="#D5BFB2" stroke="#D5BFB2" stroke-width="0.25" stroke-linecap="round" stroke-linejoin="round"/>
<path d="M10.8733 28.3722L15.0305 30.3418L15.0045 29.1108L15.3552 26.2083L10.8733 28.3722Z" fill="#D5BFB2" stroke="#D5BFB2" stroke-width="0.25" stroke-linecap="round" stroke-linejoin="round"/>
<path d="M15.1083 21.2842L11.3928 20.1958L14.017 18.9907L15.1083 21.2842Z" fill="#233447" stroke="#233447" stroke-width="0.25" stroke-linecap="round" stroke-linejoin="round"/>
<path d="M20.5127 21.2842L21.604 18.9907L24.2412 20.1958L20.5127 21.2842Z" fill="#233447" stroke="#233447" stroke-width="0.25" stroke-linecap="round" stroke-linejoin="round"/>
<path d="M10.8732 28.3719L11.5228 23.0333L7.3916 23.15L10.8732 28.3719Z" fill="#CC6228" stroke="#CC6228" stroke-width="0.25" stroke-linecap="round" stroke-linejoin="round"/>
<path d="M24.0981 23.0333L24.7347 28.3719L28.2293 23.15L24.0981 23.0333Z" fill="#CC6228" stroke="#CC6228" stroke-width="0.25" stroke-linecap="round" stroke-linejoin="round"/>
<path d="M27.2289 17.1506L19.824 17.4875L20.5125 21.2842L21.6038 18.9906L24.241 20.1957L27.2289 17.1506Z" fill="#CC6228" stroke="#CC6228" stroke-width="0.25" stroke-linecap="round" stroke-linejoin="round"/>
<path d="M11.3928 20.1957L14.017 18.9906L15.1083 21.2842L15.7968 17.4875L8.39185 17.1506L11.3928 20.1957Z" fill="#CC6228" stroke="#CC6228" stroke-width="0.25" stroke-linecap="round" stroke-linejoin="round"/>
<path d="M8.39209 17.1506L11.497 23.2019L11.393 20.1957L8.39209 17.1506Z" fill="#E27525" stroke="#E27525" stroke-width="0.25" stroke-linecap="round" stroke-linejoin="round"/>
<path d="M24.2412 20.1957L24.1243 23.2019L27.2292 17.1506L24.2412 20.1957Z" fill="#E27525" stroke="#E27525" stroke-width="0.25" stroke-linecap="round" stroke-linejoin="round"/>
<path d="M15.7972 17.4874L15.1086 21.2841L15.979 25.7674L16.1739 19.8587L15.7972 17.4874Z" fill="#E27525" stroke="#E27525" stroke-width="0.25" stroke-linecap="round" stroke-linejoin="round"/>
<path d="M19.8242 17.4874L19.4604 19.8458L19.6423 25.7674L20.5127 21.2841L19.8242 17.4874Z" fill="#E27525" stroke="#E27525" stroke-width="0.25" stroke-linecap="round" stroke-linejoin="round"/>
<path d="M20.5127 21.2843L19.6423 25.7676L20.2659 26.2082L24.1243 23.202L24.2412 20.1958L20.5127 21.2843Z" fill="#F5841F" stroke="#F5841F" stroke-width="0.25" stroke-linecap="round" stroke-linejoin="round"/>
<path d="M11.3928 20.1958L11.4968 23.202L15.3551 26.2082L15.9787 25.7676L15.1083 21.2843L11.3928 20.1958Z" fill="#F5841F" stroke="#F5841F" stroke-width="0.25" stroke-linecap="round" stroke-linejoin="round"/>
<path d="M20.5907 30.3417L20.6296 29.1107L20.2919 28.8256H15.3293L15.0045 29.1107L15.0305 30.3417L10.8733 28.3721L12.3283 29.5642L15.2773 31.5986H20.3308L23.2928 29.5642L24.7348 28.3721L20.5907 30.3417Z" fill="#C0AC9D" stroke="#C0AC9D" stroke-width="0.25" stroke-linecap="round" stroke-linejoin="round"/>
<path d="M20.2658 26.2081L19.6422 25.7676H15.9787L15.3552 26.2081L15.0044 29.1107L15.3292 28.8256H20.2918L20.6296 29.1107L20.2658 26.2081Z" fill="#161616" stroke="#161616" stroke-width="0.25" stroke-linecap="round" stroke-linejoin="round"/>
<path d="M33.5168 10.8532L34.6211 5.48873L32.9582 0.5L20.2659 9.8944L25.1505 14.0149L32.0488 16.0234L33.5688 14.2482L32.9063 13.7687L33.9585 12.8099L33.1531 12.1879L34.2054 11.3845L33.5168 10.8532Z" fill="#763E1A" stroke="#763E1A" stroke-width="0.25" stroke-linecap="round" stroke-linejoin="round"/>
<path d="M1 5.48873L2.11724 10.8532L1.40273 11.3845L2.468 12.1879L1.66255 12.8099L2.71483 13.7687L2.05228 14.2482L3.57225 16.0234L10.4706 14.0149L15.3552 9.8944L2.66287 0.5L1 5.48873Z" fill="#763E1A" stroke="#763E1A" stroke-width="0.25" stroke-linecap="round" stroke-linejoin="round"/>
<path d="M32.0489 16.0233L25.1506 14.0149L27.2292 17.1507L24.1243 23.2019L28.2295 23.1501H34.3613L32.0489 16.0233Z" fill="#F5841F" stroke="#F5841F" stroke-width="0.25" stroke-linecap="round" stroke-linejoin="round"/>
<path d="M10.4704 14.0149L3.57213 16.0233L1.27271 23.1501H7.39153L11.4967 23.2019L8.39185 17.1507L10.4704 14.0149Z" fill="#F5841F" stroke="#F5841F" stroke-width="0.25" stroke-linecap="round" stroke-linejoin="round"/>
<path d="M19.8241 17.4876L20.2658 9.8943L22.2664 4.49097H13.3545L15.3551 9.8943L15.7968 17.4876L15.9657 19.8718L15.9787 25.7676H19.6422L19.6552 19.8718L19.8241 17.4876Z" fill="#F5841F" stroke="#F5841F" stroke-width="0.25" stroke-linecap="round" stroke-linejoin="round"/>
</svg>
