<svg width="57" height="60" viewBox="0 0 57 60" fill="none" xmlns="http://www.w3.org/2000/svg">
<path d="M28.2546 38.3456C32.954 38.3456 36.7637 34.5359 36.7637 29.8365C36.7637 25.137 32.954 21.3274 28.2546 21.3274C23.5551 21.3274 19.7455 25.137 19.7455 29.8365C19.7455 34.5359 23.5551 38.3456 28.2546 38.3456Z" stroke="#C94B32" stroke-miterlimit="10" stroke-linecap="round"/>
<path d="M9.87274 58.6363C14.5722 58.6363 18.3818 54.8267 18.3818 50.1273C18.3818 45.4278 14.5722 41.6182 9.87274 41.6182C5.1733 41.6182 1.36365 45.4278 1.36365 50.1273C1.36365 54.8267 5.1733 58.6363 9.87274 58.6363Z" stroke="#C94B32" stroke-miterlimit="10" stroke-linecap="round"/>
<path d="M37.5 29.7H44.7545C50.4 29.7 54.9545 34.2818 54.9545 39.9C54.9545 45.5454 50.3727 50.1 44.7545 50.1H19.5" stroke="#C94B32" stroke-miterlimit="10" stroke-linecap="round"/>
<path d="M46.4727 18.3817C51.1722 18.3817 54.9818 14.5721 54.9818 9.87262C54.9818 5.17317 51.1722 1.36353 46.4727 1.36353C41.7733 1.36353 37.9636 5.17317 37.9636 9.87262C37.9636 14.5721 41.7733 18.3817 46.4727 18.3817Z" stroke="#C94B32" stroke-miterlimit="10" stroke-linecap="round"/>
<path d="M19.0636 30.2999H11.5636C5.91819 30.2999 1.36365 25.7181 1.36365 20.0999C1.36365 14.4544 5.94547 9.8999 11.5636 9.8999H36.8455" stroke="#C94B32" stroke-miterlimit="10" stroke-linecap="round"/>
</svg>
