<svg width="97" height="151" viewBox="0 0 97 151" fill="none" xmlns="http://www.w3.org/2000/svg">
<path d="M59.2301 45.3208L48.5 56.084L37.7622 45.3208L27.8139 55.2998L38.5517 66.063L27.8139 76.8339L37.7622 86.8129L48.5 76.0497L59.2301 86.8129L69.1861 76.8339L58.4483 66.063L69.1861 55.2998L59.2301 45.3208Z" stroke="#C94B32" stroke-width="2" stroke-linecap="round" stroke-linejoin="round"/>
<path d="M82.2998 2.3064H14.7002C7.85138 2.3064 2.2993 7.87561 2.2993 14.7456V136.254C2.2993 143.124 7.85138 148.694 14.7002 148.694H82.2998C89.1486 148.694 94.7007 143.124 94.7007 136.254V14.7456C94.7007 7.87561 89.1486 2.3064 82.2998 2.3064Z" stroke="#C94B32" stroke-width="2" stroke-linecap="round" stroke-linejoin="round"/>
<path d="M81.8936 11.1245H15.1141C12.5998 11.1245 10.5615 13.1691 10.5615 15.6912V124.884C10.5615 127.406 12.5998 129.451 15.1141 129.451H81.8936C84.4079 129.451 86.4462 127.406 86.4462 124.884V15.6912C86.4462 13.1691 84.4079 11.1245 81.8936 11.1245Z" stroke="#C94B32" stroke-width="2" stroke-linecap="round" stroke-linejoin="round"/>
<path d="M37.9462 138.469H59.0538" stroke="#C94B32" stroke-width="2" stroke-linecap="round" stroke-linejoin="round"/>
</svg>
