<svg width="21" height="21" viewBox="0 0 21 21" fill="none" xmlns="http://www.w3.org/2000/svg">
<g clip-path="url(#clip0_1606_3784)">
<path fill-rule="evenodd" clip-rule="evenodd" d="M13.2572 0.384994L2.19064 1.20239C1.29784 1.27959 0.987244 1.86299 0.987244 2.56219V14.6942C0.987244 15.2388 1.18064 15.7048 1.64724 16.3276L4.24864 19.7102C4.67604 20.2548 5.06464 20.3716 5.88064 20.3328L18.732 19.5548C19.8186 19.4774 20.13 18.9714 20.13 18.1162V4.46759C20.13 4.02559 19.9554 3.89819 19.4414 3.52099L15.8206 0.968194C14.966 0.346794 14.6166 0.268194 13.2572 0.384794V0.384994ZM6.17124 4.24419C5.12184 4.31479 4.88384 4.33079 4.28784 3.84619L2.77264 2.64099C2.61864 2.48499 2.69604 2.29039 3.08404 2.25159L13.7226 1.47419C14.616 1.39619 15.0812 1.70759 15.4306 1.97959L17.2552 3.30159C17.3332 3.34099 17.5272 3.57359 17.2938 3.57359L6.30724 4.23499L6.17124 4.24439V4.24419ZM4.94784 17.9996V6.41299C4.94784 5.90699 5.10324 5.67359 5.56844 5.63439L18.1872 4.89559C18.6152 4.85699 18.8086 5.12899 18.8086 5.63419V17.1436C18.8086 17.6496 18.7306 18.0776 18.032 18.1162L5.95664 18.8162C5.25804 18.8548 4.94804 18.6222 4.94804 17.9996H4.94784ZM16.8678 7.03419C16.9452 7.38419 16.8678 7.73419 16.5178 7.77419L15.9358 7.88959V16.4442C15.4304 16.7162 14.9652 16.8716 14.5764 16.8716C13.955 16.8716 13.7998 16.677 13.3344 16.0942L9.52844 10.1062V15.8996L10.7324 16.1722C10.7324 16.1722 10.7324 16.8722 9.76104 16.8722L7.08304 17.0276C7.00504 16.8716 7.08304 16.483 7.35444 16.4056L8.05384 16.2116V8.55159L7.08324 8.47299C7.00524 8.12299 7.19924 7.61759 7.74324 7.57839L10.6166 7.38499L14.5766 13.4504V8.08439L13.5672 7.96839C13.4892 7.53979 13.7998 7.22839 14.1878 7.19039L16.8678 7.03439V7.03419Z" fill="#76808D"/>
</g>
<defs>
<clipPath id="clip0_1606_3784">
<rect width="20" height="20" fill="white" transform="translate(0.987244 0.3396)"/>
</clipPath>
</defs>
</svg>