<?xml version="1.0" encoding="UTF-8"?> <svg xmlns="http://www.w3.org/2000/svg" width="173" height="64" viewBox="0 0 173 64" fill="none"><path d="M84.8412 38.5163C90.5473 38.5163 94.7799 34.4156 94.7799 28.8581C94.7799 23.3006 90.5473 19.2 84.8412 19.2C79.0816 19.2 74.849 23.3276 74.849 28.8581C74.849 34.3886 79.0816 38.5163 84.8412 38.5163ZM84.8412 36.1152C80.6354 36.1152 77.5279 33.0397 77.5279 28.8581C77.5279 24.6765 80.6354 21.601 84.8412 21.601C88.9935 21.601 92.101 24.6765 92.101 28.8581C92.101 33.0397 88.9935 36.1152 84.8412 36.1152Z" fill="white"></path><path d="M114.867 38.3004L110.42 31.9606C113.046 31.0164 114.546 28.9121 114.546 25.9984C114.546 21.8978 111.599 19.4158 106.724 19.4158H99.4102V38.3004H102.089V32.5541H106.724C107.125 32.5541 107.527 32.5271 107.902 32.5002L111.947 38.3004H114.867ZM106.643 30.261H102.089V21.7629H106.643C110.072 21.7629 111.867 23.3006 111.867 25.9984C111.867 28.6962 110.072 30.261 106.643 30.261Z" fill="white"></path><path d="M122.089 35.9533V29.8563H131.491V27.5632H122.089V21.7629H132.643V19.4158H119.41V38.3004H133.018V35.9533H122.089Z" fill="white"></path><path d="M145.622 38.3004H148.301V19.4158H145.622V38.3004Z" fill="white"></path><path d="M154.451 38.3004H162.353C168.381 38.3004 172.48 34.4696 172.48 28.8581C172.48 23.2467 168.381 19.4158 162.353 19.4158H154.451V38.3004ZM157.13 35.9533V21.7629H162.193C166.827 21.7629 169.801 24.6225 169.801 28.8581C169.801 33.0937 166.827 35.9533 162.193 35.9533H157.13Z" fill="white"></path><path fill-rule="evenodd" clip-rule="evenodd" d="M7.93587 7.4904C7.93587 6.14556 9.0162 5.05535 10.3488 5.05535H53.2997C54.6323 5.05535 55.7126 6.14556 55.7126 7.4904L55.6152 44.663C55.6152 45.5337 55.1545 46.3382 54.4069 46.7729L32.9315 59.26C32.1858 59.6936 31.2678 59.6936 30.5221 59.26L9.04674 46.7729C8.29913 46.3382 7.83843 45.5337 7.83843 44.663L7.93587 7.4904ZM10.3488 2.1333C7.41702 2.1333 5.04031 4.53175 5.04031 7.4904L4.94287 44.663C4.94287 46.5786 5.95642 48.3484 7.60114 49.3047L29.0765 61.7919C30.717 62.7457 32.7366 62.7457 34.3771 61.7919L55.8525 49.3047C57.4972 48.3484 58.5107 46.5786 58.5107 44.663L58.6082 7.4904C58.6082 4.53175 56.2315 2.1333 53.2997 2.1333H10.3488ZM29.8939 11.2938C31.0884 10.5978 32.5601 10.5978 33.7546 11.2938L47.8652 19.515C49.0597 20.211 49.7956 21.4972 49.7956 22.8891V39.3317C49.7956 40.7237 49.0597 42.0099 47.8652 42.7058L33.7546 50.9271C32.5601 51.6231 31.0884 51.6231 29.8939 50.9271L15.7833 42.7058C14.5888 42.0099 13.8529 40.7237 13.8529 39.3317V22.8891C13.8529 21.4972 14.5888 20.211 15.7833 19.515L29.8939 11.2938ZM21.4486 38.659H24.941V23.3183H21.4486V38.659ZM28.9535 38.659H35.809C40.7459 38.659 44.1305 35.6347 44.1305 30.9886C44.1305 26.3426 40.7459 23.3183 35.809 23.3183H28.9535V38.659ZM32.446 35.7443V26.233H35.6366C38.6332 26.233 40.595 28.052 40.595 30.9886C40.595 33.9253 38.6332 35.7443 35.6366 35.7443H32.446Z" fill="url(#paint0_linear)"></path><defs><linearGradient id="paint0_linear" x1="31.7755" y1="2.1333" x2="31.7755" y2="62.5073" gradientUnits="userSpaceOnUse"><stop stop-color="#08B6E7"></stop><stop offset="1" stop-color="#00E7C7"></stop></linearGradient></defs></svg> 