<svg width="15" height="16" viewBox="0 0 15 16" fill="none" xmlns="http://www.w3.org/2000/svg">
<g clip-path="url(#clip0_2713_126)">
<path d="M14.0269 6.24833L9.45689 1.66833C8.36689 0.57833 6.60689 0.57833 5.52689 1.66833L0.946895 6.24833C-0.143106 7.33833 -0.143106 9.09833 0.946895 10.1783L5.51689 14.7483C6.60689 15.8383 8.36689 15.8383 9.44689 14.7483L14.0169 10.1783C15.1069 9.08833 15.1069 7.32833 14.0169 6.24833H14.0269ZM10.0069 10.0783C10.0069 10.4383 9.71689 10.7283 9.35689 10.7283H5.61689C5.25689 10.7283 4.96689 10.4383 4.96689 10.0783V6.33833C4.96689 5.97833 5.25689 5.68833 5.61689 5.68833H9.35689C9.71689 5.68833 10.0069 5.97833 10.0069 6.33833V10.0783Z" fill="#74D415"/>
</g>
<defs>
<clipPath id="clip0_2713_126">
<rect width="14.7" height="14.7" fill="white" transform="translate(0.136719 0.858398)"/>
</clipPath>
</defs>
</svg>
