<svg width="83" height="60" viewBox="0 0 83 60" fill="none" xmlns="http://www.w3.org/2000/svg">
<g clip-path="url(#clip0_34_2546)">
<path d="M17.0968 3.99289L4.0046 17.0851C0.473118 20.6166 0.473118 26.3423 4.0046 29.8738L17.0968 42.966C20.6283 46.4975 26.354 46.4975 29.8855 42.966L42.9777 29.8738C46.5092 26.3423 46.5092 20.6166 42.9777 17.0851L29.8855 3.99289C26.354 0.461401 20.6283 0.461402 17.0968 3.99289Z" stroke="#C94B32" stroke-linecap="round"/>
<path d="M15.805 18.3005V28.6583C15.805 30.0366 16.9223 31.1538 18.3005 31.1538H28.6583C30.0366 31.1538 31.1538 30.0366 31.1538 28.6583V18.3005C31.1538 16.9223 30.0366 15.805 28.6583 15.805H18.3005C16.9223 15.805 15.805 16.9223 15.805 18.3005Z" stroke="#C94B32" stroke-linecap="round"/>
<path d="M43.551 17.7102H76.2343C78.7567 17.7102 80.7961 19.7496 80.7961 22.2719V54.0966C80.7961 56.619 78.7567 58.6583 76.2343 58.6583H30.4293C27.907 58.6583 25.8676 56.619 25.8676 54.0966V46.4222" stroke="#C94B32" stroke-linecap="round"/>
<path d="M45.4562 27.3971H80.7692V35.0715H38.5331" stroke="#C94B32" stroke-linecap="round"/>
<path d="M33.6225 49.4276H45.8318" stroke="#C94B32" stroke-linecap="round"/>
<path d="M68.5599 40.4114H62.3077C59.9662 40.4114 58.068 42.3096 58.068 44.6511V45.5635C58.068 47.905 59.9662 49.8032 62.3077 49.8032H68.5599C70.9015 49.8032 72.7996 47.905 72.7996 45.5635V44.6511C72.7996 42.3096 70.9015 40.4114 68.5599 40.4114Z" stroke="#C94B32" stroke-linecap="round"/>
</g>
<defs>
<clipPath id="clip0_34_2546">
<rect width="82.1109" height="60" fill="white"/>
</clipPath>
</defs>
</svg>
