<svg width="29" height="24" viewBox="0 0 29 24" fill="none" xmlns="http://www.w3.org/2000/svg">
<path d="M21.6063 7.33531C21.0946 7.05044 20.4366 7.05044 19.8517 7.33531L15.7578 9.68546L12.9797 11.181L8.9588 13.5312C8.44705 13.816 7.78909 13.816 7.20423 13.5312L4.06063 11.6795C3.54888 11.3947 3.18334 10.8249 3.18334 10.184V6.62315C3.18334 6.05341 3.47577 5.48368 4.06063 5.1276L7.20423 3.34718C7.71598 3.06231 8.37394 3.06231 8.9588 3.34718L12.1024 5.19881C12.6142 5.48368 12.9797 6.05341 12.9797 6.69436V9.04451L15.7578 7.47774V5.05638C15.7578 4.48665 15.4653 3.91691 14.8805 3.56083L9.03191 0.21365C8.52016 -0.0712166 7.86219 -0.0712166 7.27734 0.21365L1.28256 3.63205C0.697702 3.91691 0.405273 4.48665 0.405273 5.05638V11.7507C0.405273 12.3205 0.697702 12.8902 1.28256 13.2463L7.20423 16.5935C7.71598 16.8783 8.37394 16.8783 8.9588 16.5935L12.9797 14.3145L15.7578 12.7478L19.7786 10.4688C20.2904 10.184 20.9484 10.184 21.5332 10.4688L24.6768 12.2493C25.1886 12.5341 25.5541 13.1039 25.5541 13.7448V17.3056C25.5541 17.8754 25.2617 18.4451 24.6768 18.8012L21.6063 20.5816C21.0946 20.8665 20.4366 20.8665 19.8517 20.5816L16.7081 18.8012C16.1964 18.5163 15.8309 17.9466 15.8309 17.3056V15.0267L13.0528 16.5935V18.9436C13.0528 19.5134 13.3452 20.0831 13.9301 20.4392L19.8517 23.7863C20.3635 24.0712 21.0215 24.0712 21.6063 23.7863L27.528 20.4392C28.0397 20.1543 28.4053 19.5846 28.4053 18.9436V12.178C28.4053 11.6083 28.1128 11.0386 27.528 10.6825L21.6063 7.33531Z" fill="#76808D"/>
</svg>
