<svg width="29" height="26" viewBox="0 0 29 26" fill="none" xmlns="http://www.w3.org/2000/svg">
<path d="M19.2235 8.24683C18.7595 7.98482 18.1629 7.98482 17.6326 8.24683L13.9205 10.4084L11.4015 11.784L7.75568 13.9456C7.29167 14.2076 6.69508 14.2076 6.16477 13.9456L3.31439 12.2425C2.85038 11.9805 2.51894 11.4565 2.51894 10.867V7.5918C2.51894 7.06777 2.78409 6.54375 3.31439 6.21623L6.16477 4.57865C6.62879 4.31664 7.22538 4.31664 7.75568 4.57865L10.6061 6.28173C11.0701 6.54375 11.4015 7.06777 11.4015 7.6573V9.81891L13.9205 8.37784V6.15073C13.9205 5.6267 13.6553 5.10268 13.125 4.77516L7.82197 1.69651C7.35796 1.4345 6.76136 1.4345 6.23106 1.69651L0.795455 4.84066C0.265152 5.10268 0 5.6267 0 6.15073V12.308C0 12.8321 0.265152 13.3561 0.795455 13.6836L6.16477 16.7622C6.62879 17.0243 7.22538 17.0243 7.75568 16.7622L11.4015 14.6661L13.9205 13.2251L17.5663 11.129C18.0303 10.867 18.6269 10.867 19.1572 11.129L22.0076 12.7666C22.4716 13.0286 22.803 13.5526 22.803 14.1421V17.4173C22.803 17.9413 22.5379 18.4653 22.0076 18.7928L19.2235 20.4304C18.7595 20.6924 18.1629 20.6924 17.6326 20.4304L14.7822 18.7928C14.3182 18.5308 13.9867 18.0068 13.9867 17.4173V15.3212L11.4678 16.7622V18.9239C11.4678 19.4479 11.733 19.9719 12.2633 20.2994L17.6326 23.3781C18.0966 23.6401 18.6932 23.6401 19.2235 23.3781L24.5928 20.2994C25.0568 20.0374 25.3883 19.5134 25.3883 18.9239V12.701C25.3883 12.177 25.1231 11.653 24.5928 11.3255L19.2235 8.24683Z" fill="#76808D"/>
</svg>