<svg width="96" height="21" viewBox="0 0 96 21" fill="none" xmlns="http://www.w3.org/2000/svg">
<g clip-path="url(#clip0_1934_1495)">
<path d="M16.8467 6.57504C16.4333 6.32171 15.9 6.32171 15.4467 6.57504L12.2333 8.52171L10.0467 9.78838L6.83333 11.735C6.42 11.9884 5.88667 11.9884 5.43333 11.735L2.88 10.215C2.46667 9.96171 2.18 9.49504 2.18 8.98838V5.98838C2.18 5.48171 2.42667 5.01504 2.88 4.76171L5.39333 3.28171C5.80667 3.02838 6.34 3.02838 6.79333 3.28171L9.30667 4.76171C9.72 5.01504 10.0067 5.48171 10.0067 5.98838V7.93504L12.1933 6.62171V4.67504C12.1933 4.16838 11.9467 3.70171 11.4933 3.44838L6.84 0.66171C6.42667 0.408377 5.89333 0.408377 5.44 0.66171L0.7 3.44838C0.246667 3.70171 0 4.16838 0 4.67504V10.3017C0 10.8084 0.246667 11.275 0.7 11.5284L5.44 14.3217C5.85333 14.575 6.38667 14.575 6.84 14.3217L10.0533 12.4217L12.24 11.1084L15.4533 9.20838C15.8667 8.95504 16.4 8.95504 16.8533 9.20838L19.3667 10.6884C19.78 10.9417 20.0667 11.4084 20.0667 11.915V14.915C20.0667 15.4217 19.82 15.8884 19.3667 16.1417L16.8533 17.6617C16.44 17.915 15.9067 17.915 15.4533 17.6617L12.94 16.1817C12.5267 15.9284 12.24 15.4617 12.24 14.955V13.0084L10.0533 14.3217V16.2684C10.0533 16.775 10.3 17.2417 10.7533 17.495L15.4933 20.2884C15.9067 20.5417 16.44 20.5417 16.8933 20.2884L21.6333 17.495C22.0467 17.2417 22.3333 16.775 22.3333 16.2684V10.635C22.3333 10.1284 22.0867 9.66171 21.6333 9.40838L16.8533 6.57504H16.8467Z" fill="#76808D"/>
<path d="M31.0264 18.6684V14.0017C31.5264 14.6417 32.4398 14.995 33.4998 14.995C36.1998 14.995 38.0198 13.0617 38.0198 10.1217C38.0198 7.18171 36.3464 5.24837 33.7198 5.24837C32.5131 5.24837 31.5798 5.69504 31.0198 6.42837V5.39504H28.4331V18.6684H31.0198H31.0264ZM33.1864 12.7417C31.7931 12.7417 30.8798 11.695 30.8798 10.115C30.8798 8.53504 31.7931 7.46837 33.1864 7.46837C34.5798 7.46837 35.4731 8.51504 35.4731 10.115C35.4731 11.715 34.5398 12.7417 33.1864 12.7417Z" fill="#76808D"/>
<path d="M43.8934 14.995C46.7801 14.995 48.8401 12.935 48.8401 10.1217C48.8401 7.30837 46.7734 5.24837 43.8934 5.24837C41.0134 5.24837 38.9468 7.30837 38.9468 10.1217C38.9468 12.935 41.0134 14.995 43.8934 14.995ZM43.8934 12.7484C42.5001 12.7484 41.5468 11.6817 41.5468 10.1217C41.5468 8.56171 42.4934 7.47504 43.8934 7.47504C45.2934 7.47504 46.2401 8.54171 46.2401 10.1217C46.2401 11.7017 45.2934 12.7484 43.8934 12.7484Z" fill="#76808D"/>
<path d="M52.9934 14.8417V1.28838H50.4067V14.8417H52.9934Z" fill="#76808D"/>
<path d="M60.7669 5.39504L58.8135 11.4884L56.8402 5.39504H54.2002L57.6069 14.7684L56.2269 18.6684H58.7002L60.0202 14.8084L63.4269 5.39504H60.7669Z" fill="#76808D"/>
<path d="M70.6934 6.33504C70.1734 5.68171 69.24 5.24837 68.1067 5.24837C65.3734 5.24837 63.7134 7.18171 63.7134 10.1217C63.7134 13.0617 65.3667 14.995 68.14 14.995C69.24 14.995 70.2267 14.5817 70.7067 13.8884V15.1284C70.7067 16.0084 70.1267 16.6284 69.3467 16.6284H65.0267V18.675H69.7534C71.8734 18.675 73.2867 17.3817 73.2867 15.415V5.39504H70.68V6.33504H70.6934ZM68.5534 12.7484C67.1734 12.7484 66.2667 11.715 66.2667 10.1217C66.2667 8.52837 67.18 7.47504 68.5534 7.47504C69.9267 7.47504 70.86 8.52171 70.86 10.1217C70.86 11.7217 69.9467 12.7484 68.5534 12.7484Z" fill="#76808D"/>
<path d="M79.8202 14.995C82.7069 14.995 84.7669 12.935 84.7669 10.1217C84.7669 7.30837 82.7002 5.24837 79.8202 5.24837C76.9402 5.24837 74.8735 7.30837 74.8735 10.1217C74.8735 12.935 76.9402 14.995 79.8202 14.995ZM79.8202 12.7484C78.4269 12.7484 77.4735 11.6817 77.4735 10.1217C77.4735 8.56171 78.4202 7.47504 79.8202 7.47504C81.2202 7.47504 82.1669 8.54171 82.1669 10.1217C82.1669 11.7017 81.2202 12.7484 79.8202 12.7484Z" fill="#76808D"/>
<path d="M88.7868 14.8417V9.66838C88.7868 8.44838 89.5868 7.56838 90.7202 7.56838C91.8535 7.56838 92.5268 8.39504 92.5268 9.53504V14.8417H95.1335V8.95504C95.1335 6.78171 93.7535 5.24171 91.6335 5.24171C90.3468 5.24171 89.3068 5.78838 88.7868 6.70171V5.38838H86.1802V14.835H88.7868V14.8417Z" fill="#76808D"/>
</g>
<defs>
<clipPath id="clip0_1934_1495">
<rect width="95.1333" height="20" fill="white" transform="translate(0 0.468376)"/>
</clipPath>
</defs>
</svg>
