<svg width="63" height="60" viewBox="0 0 63 60" fill="none" xmlns="http://www.w3.org/2000/svg">
<path d="M60.9001 27V43.4727C60.9001 51.8455 54.1092 58.6364 45.7365 58.6364H16.5274C8.15468 58.6364 1.36377 51.8455 1.36377 43.4727V27" stroke="#C94B32" stroke-linecap="round"/>
<path d="M37.527 26.5365L36.3815 27.6819C34.1179 29.9456 30.4361 29.9456 28.1451 27.6819L25.3906 24.9274C23.127 22.6638 23.127 18.9819 25.3906 16.691L39.027 3.05466C41.2906 0.791025 44.9724 0.791025 47.2633 3.05466L50.0179 5.80921C52.2815 8.07284 52.2815 11.7547 50.0179 14.0456L41.6997 22.3638" stroke="#C94B32" stroke-linecap="round"/>
<path d="M27.2181 25.7456L31.7999 21.1638C34.0635 18.9002 37.7454 18.9002 40.0363 21.1638L42.7908 23.9183C45.0545 26.182 45.0545 29.8638 42.7908 32.1547L29.1545 45.7911C26.8908 48.0547 23.209 48.0547 20.9181 45.7911L18.1635 43.0365C15.8999 40.7729 15.8999 37.0911 18.1635 34.8002L23.1817 29.782" stroke="#C94B32" stroke-linecap="round"/>
</svg>
