<svg width="59" height="60" viewBox="0 0 59 60" fill="none" xmlns="http://www.w3.org/2000/svg">
<path d="M49.405 1.3042H7.22242C4.39856 1.3042 2.10938 3.59339 2.10938 6.41724V48.5998C2.10938 51.4237 4.39856 53.7129 7.22242 53.7129H49.405C52.2289 53.7129 54.5181 51.4237 54.5181 48.5998V6.41724C54.5181 3.59339 52.2289 1.3042 49.405 1.3042Z" stroke="#C94B32" stroke-linecap="round" stroke-linejoin="round"/>
<path d="M2.44824 17.3218H9.59607" stroke="#C94B32" stroke-linecap="round" stroke-linejoin="round"/>
<path d="M2.44824 37.2261H9.59607" stroke="#C94B32" stroke-linecap="round" stroke-linejoin="round"/>
<path d="M9.62207 42.6V46.2H43.3003C45.3351 46.2 47.0047 44.5565 47.0047 42.4956V12.5217C47.0047 10.4869 45.3612 8.81738 43.3003 8.81738H9.62207V12.2869" stroke="#C94B32" stroke-linecap="round" stroke-linejoin="round"/>
<path d="M9.83105 22.5913V32.3217" stroke="#C94B32" stroke-linecap="round" stroke-linejoin="round"/>
<path d="M8.57812 58.4868H18.5694" stroke="#C94B32" stroke-linecap="round" stroke-linejoin="round"/>
<path d="M38.0566 58.4868H48.074" stroke="#C94B32" stroke-linecap="round" stroke-linejoin="round"/>
<path d="M28.3261 35.3739C32.2449 35.3739 35.4218 32.1971 35.4218 28.2783C35.4218 24.3594 32.2449 21.1826 28.3261 21.1826C24.4073 21.1826 21.2305 24.3594 21.2305 28.2783C21.2305 32.1971 24.4073 35.3739 28.3261 35.3739Z" stroke="#C94B32" stroke-linecap="round" stroke-linejoin="round"/>
</svg>
