<svg width="70" height="21" viewBox="0 0 70 21" fill="none" xmlns="http://www.w3.org/2000/svg">
<g clip-path="url(#clip0_1934_1547)">
<path d="M34.4932 9.85428C33.7775 9.56686 32.9034 9.32728 31.8709 9.13509H31.849C30.8459 8.95825 30.0934 8.7959 29.5918 8.64802C29.0903 8.50102 28.6958 8.30181 28.4079 8.05082C28.1201 7.80026 27.9766 7.45361 27.9766 7.01086C27.9766 6.36188 28.2201 5.86779 28.7068 5.5286C29.1938 5.18941 29.8353 5.0196 30.6318 5.0196C31.5023 5.0196 32.2062 5.24075 32.745 5.6835C33.2286 6.08105 33.5248 6.58611 33.6336 7.19779C33.6551 7.31978 33.7582 7.40973 33.8819 7.41105L36.3304 7.42948C36.4805 7.43079 36.6007 7.30179 36.5858 7.15216C36.5038 6.3338 36.2339 5.5896 35.7767 4.91999C35.2677 4.17535 34.5669 3.59613 33.6744 3.18279C32.7819 2.76988 31.7678 2.5632 30.6318 2.5632C29.555 2.5632 28.5852 2.76242 27.7221 3.16085C26.8594 3.55927 26.1881 4.11216 25.7084 4.82038C25.2288 5.5286 24.9893 6.32502 24.9893 7.21008C24.9893 8.18377 25.203 8.96571 25.6308 9.55546C26.0586 10.1456 26.619 10.5919 27.3123 10.8942C28.0056 11.1966 28.8388 11.4361 29.8125 11.6134L29.9231 11.6354C30.9552 11.8271 31.7266 11.9969 32.2356 12.1444C32.7446 12.2922 33.1461 12.4985 33.4414 12.764C33.7363 13.0294 33.8837 13.391 33.8837 13.8482C33.8837 14.4976 33.6182 15.0062 33.0873 15.3748C32.5563 15.7438 31.8701 15.9281 31.0293 15.9281C30.0258 15.9281 29.2149 15.6736 28.5953 15.1646C28.0314 14.7017 27.6997 14.1071 27.6001 13.3813C27.583 13.2558 27.4786 13.1606 27.3522 13.1589L24.9068 13.122C24.758 13.1198 24.6378 13.2453 24.6492 13.3936C24.7185 14.2861 24.9976 15.0905 25.4864 15.8066C26.0248 16.596 26.766 17.2156 27.7102 17.6653C28.6541 18.1155 29.7384 18.3402 30.9631 18.3402C32.0987 18.3402 33.1167 18.134 34.0167 17.7206C34.9162 17.3077 35.6209 16.736 36.1299 16.0058C36.6389 15.2756 36.8934 14.4533 36.8934 13.5384C36.8934 12.5647 36.6718 11.7793 36.2295 11.1816C35.7872 10.5844 35.208 10.1417 34.4928 9.85384H34.4932V9.85428Z" fill="white"/>
<path d="M49.5297 15.818H49.1475C48.9264 15.818 48.7526 15.7592 48.6276 15.6407C48.5021 15.5231 48.4393 15.3309 48.4393 15.0655V10.8389C48.4393 9.49666 48.0115 8.47514 47.1563 7.77437C46.3006 7.07405 45.2931 6.71687 43.7148 6.71687C42.2246 6.71687 41.0605 7.0407 40.146 7.67477C39.3123 8.2531 38.8099 9.04513 38.6379 10.0522C38.6111 10.2088 38.7296 10.3523 38.888 10.3523H41.1368C41.2496 10.3523 41.3505 10.2782 41.3804 10.1693C41.483 9.7968 41.7095 9.49271 42.0596 9.25707C42.4651 8.98414 42.9469 8.84768 43.5814 8.84768C44.778 8.84768 45.6288 9.5853 45.6288 10.684V11.0276C45.6288 11.168 45.5152 11.2817 45.3747 11.2817H43.3378C41.6858 11.2817 40.4317 11.6064 39.5765 12.2554C38.7208 12.9048 38.293 13.8267 38.293 15.0211C38.293 16.0541 38.6839 16.8654 39.4659 17.4551C40.0526 17.8975 40.7537 18.1528 41.4756 18.2647C42.0271 18.3503 42.5936 18.3815 43.1465 18.2928C43.7257 18.2002 44.1961 17.9615 44.667 17.621C45.09 17.3156 45.4428 16.9242 45.7648 16.4468C45.9219 16.1769 46.334 16.2853 46.334 16.5973V16.9725C46.3335 17.6544 46.886 18.2072 47.5679 18.2072H49.5297C49.6701 18.2072 49.7838 18.0936 49.7838 17.9532V16.0716C49.7838 15.9312 49.6701 15.8176 49.5297 15.8176V15.818ZM45.6292 13.5393C45.6292 14.0852 45.5147 14.5608 45.2861 14.9663C44.8069 15.8167 43.9495 16.2607 42.9846 16.2607C42.4238 16.2607 41.974 16.1282 41.6349 15.8627C41.2952 15.5973 41.1259 15.2432 41.1259 14.8004C41.1259 14.2993 41.3141 13.9118 41.6901 13.6389C42.0662 13.3664 42.6007 13.2295 43.2944 13.2295H45.3752C45.5156 13.2295 45.6292 13.3432 45.6292 13.4836V13.5393Z" fill="white"/>
<path d="M57.7277 2.72512H54.8014C53.2577 2.72512 52.0062 3.97657 52.0062 5.52026V6.74846C52.0062 6.88888 51.8926 7.00253 51.7522 7.00253H50.0812C49.9408 7.00253 49.8271 7.11617 49.8271 7.25659V9.1601C49.8271 9.30051 49.9408 9.41416 50.0812 9.41416H51.7522C51.8926 9.41416 52.0062 9.52781 52.0062 9.66823V17.9536C52.0062 18.094 52.1199 18.2077 52.2603 18.2077H54.5403C54.6807 18.2077 54.7943 18.094 54.7943 17.9536V9.66823C54.7943 9.52781 54.908 9.41416 55.0484 9.41416H57.7053C57.8458 9.41416 57.9594 9.30051 57.9594 9.1601V7.25659C57.9594 7.11617 57.8458 7.00253 57.7053 7.00253H55.0484C54.908 7.00253 54.7943 6.88888 54.7943 6.74846V5.64488C54.7943 5.36405 55.0221 5.13675 55.3025 5.13675H57.7273C57.8677 5.13675 57.9813 5.0231 57.9813 4.88269V2.97918C57.9813 2.83877 57.8677 2.72512 57.7273 2.72512H57.7277Z" fill="white"/>
<path d="M68.8977 9.29042C68.4036 8.4646 67.7283 7.8301 66.8731 7.38735C66.0174 6.94504 65.0288 6.71731 63.9081 6.71731C62.7874 6.71731 61.8203 6.96347 60.9651 7.44264C60.1095 7.92225 59.4455 8.60063 58.9738 9.47823C58.5017 10.3563 58.2656 11.3848 58.2656 12.5652C58.2656 13.7455 58.5092 14.7302 58.9958 15.6078C59.4828 16.4854 60.1797 17.1603 61.0867 17.6324C61.9937 18.1046 63.0595 18.3406 64.2842 18.3406C65.228 18.3406 66.0727 18.1673 66.8178 17.8207C67.5624 17.4745 68.1636 16.9984 68.6208 16.3937C69.0122 15.8759 69.2795 15.309 69.4225 14.6933C69.4598 14.5336 69.3391 14.38 69.175 14.38H66.8845C66.7748 14.38 66.6787 14.4511 66.6436 14.5551C66.4821 15.0321 66.1973 15.409 65.7888 15.6855C65.3312 15.9953 64.7634 16.1502 64.085 16.1502C63.5242 16.1502 63.034 16.0321 62.6137 15.7961C62.1933 15.5604 61.8616 15.2282 61.618 14.8004C61.5219 14.6315 61.4434 14.4529 61.3807 14.269C61.3135 14.0716 61.2653 13.868 61.2319 13.6617C61.2205 13.5898 61.21 13.5169 61.2012 13.4441C61.1841 13.294 61.303 13.1628 61.4539 13.1628H69.3527C69.4809 13.1628 69.5906 13.068 69.6051 12.9403C69.616 12.8469 69.6235 12.7517 69.6274 12.6538C69.6349 12.477 69.6384 12.3146 69.6384 12.1672C69.6384 11.0759 69.3914 10.1171 68.8973 9.29086L68.8977 9.29042ZM66.5243 11.2369H61.5772C61.4149 11.2369 61.2925 11.0864 61.3284 10.928C61.4074 10.5809 61.5443 10.2676 61.7392 9.9868C61.9897 9.62566 62.3144 9.34878 62.7128 9.15703C63.1113 8.96527 63.5461 8.86918 64.0183 8.86918C64.7853 8.86918 65.4198 9.07585 65.9213 9.48876C66.3518 9.84331 66.6353 10.3225 66.7726 10.9267C66.8086 11.0855 66.687 11.2369 66.5243 11.2369Z" fill="white"/>
<path d="M18.9606 10.4625H16.7921C16.1444 10.4625 15.6196 10.9873 15.6196 11.6349V14.7824C15.6196 15.4301 15.0948 15.9549 14.4472 15.9549H5.81993C5.17226 15.9549 4.64746 16.4797 4.64746 17.1274V19.2959C4.64746 19.9436 5.17226 20.4684 5.81993 20.4684H14.9465C15.5942 20.4684 16.1115 19.9436 16.1115 19.2959V17.5561C16.1115 16.9084 16.6363 16.449 17.284 16.449H18.9602C19.6079 16.449 20.1327 15.9242 20.1327 15.2765V11.6213C20.1327 10.9737 19.6079 10.4625 18.9602 10.4625H18.9606Z" fill="white"/>
<path d="M4.64678 6.15433C4.64678 5.50666 5.17159 4.98186 5.81925 4.98186H14.4412C15.0889 4.98186 15.6137 4.45706 15.6137 3.80939V1.64085C15.6137 0.993179 15.0889 0.468376 14.4412 0.468376H5.31946C4.67179 0.468376 4.14699 0.993179 4.14699 1.64085V3.31179C4.14699 3.95946 3.62219 4.48426 2.97452 4.48426H1.30577C0.658104 4.48426 0.133301 5.00906 0.133301 5.65673V9.31587C0.133301 9.96354 0.660298 10.462 1.30796 10.462H3.47651C4.12417 10.462 4.64898 9.93721 4.64898 9.28954L4.64678 6.15477V6.15433Z" fill="white"/>
<path d="M9.11233 8.18289H11.1953C11.8741 8.18289 12.4248 8.73402 12.4248 9.41241V11.4954C12.4248 12.1742 11.8737 12.7249 11.1953 12.7249H9.11233C8.4335 12.7249 7.88281 12.1738 7.88281 11.4954V9.41241C7.88281 8.73359 8.43394 8.18289 9.11233 8.18289Z" fill="white"/>
</g>
<defs>
<clipPath id="clip0_1934_1547">
<rect width="69.5048" height="20" fill="white" transform="translate(0.133301 0.468376)"/>
</clipPath>
</defs>
</svg>
