<svg width="354" height="344" viewBox="0 0 354 344" fill="none" xmlns="http://www.w3.org/2000/svg">
<g clip-path="url(#clip0_6_12259)">
<path fill-rule="evenodd" clip-rule="evenodd" d="M198.026 24.6168C194.324 19.0554 189.632 14.2276 184.191 10.3722C159.147 -7.48903 124.346 -1.67177 106.485 23.3715C100.395 31.9182 96.8292 42.0174 96.2322 52.5089C95.908 59.0256 100.923 64.5529 107.423 64.877C108.532 64.9282 109.641 64.8258 110.733 64.57C116.089 63.2734 119.859 58.4968 119.877 53.0037C120.047 41.7445 126.342 31.4747 136.288 26.2033C150.43 18.8337 167.848 23.3373 176.65 36.6266L209.353 92.4792L230.439 80.1111L198.009 24.6168H198.026Z" fill="#FF8200"/>
<path fill-rule="evenodd" clip-rule="evenodd" d="M176.65 36.6266C176.65 36.6266 181.666 45.1734 187.722 55.5284L208.108 41.8638L198.026 24.6168C195.33 20.5737 192.089 16.8888 188.421 13.6987C184.259 20.6419 179.448 27.1927 174.04 33.2318C174.995 34.3065 175.866 35.4324 176.65 36.6266Z" fill="#C94B32"/>
<path fill-rule="evenodd" clip-rule="evenodd" d="M223.82 47.6299C220.254 41.5567 213.669 38.7931 209.114 41.4714L112.387 98.2622C107.833 100.941 107.048 108.02 110.596 114.093L159.83 197.94C163.395 204.014 169.98 206.777 174.535 204.099L271.262 147.308C275.817 144.647 276.601 137.55 273.053 131.477L223.82 47.6299Z" fill="#FF8200"/>
<path fill-rule="evenodd" clip-rule="evenodd" d="M194.682 101.998C190.997 95.8569 183.013 93.861 176.872 97.5458C170.816 101.179 168.786 108.993 172.3 115.134L188.558 142.821C192.123 149.048 200.056 151.198 206.265 147.632C212.492 144.067 214.642 136.134 211.076 129.925C211.025 129.856 210.991 129.771 210.94 129.703L194.682 102.015V101.998Z" fill="#B51C48"/>
<path d="M175.49 405.963C237.683 405.963 288.099 355.546 288.099 293.354C288.099 231.161 237.683 180.745 175.49 180.745C113.298 180.745 62.881 231.161 62.881 293.354C62.881 355.546 113.298 405.963 175.49 405.963Z" fill="white"/>
<path d="M176.377 375.017C222.035 375.017 259.047 338.005 259.047 292.347C259.047 246.69 222.035 209.677 176.377 209.677C130.72 209.677 93.7074 246.69 93.7074 292.347C93.7074 338.005 130.72 375.017 176.377 375.017Z" fill="#F0F0F0"/>
<path fill-rule="evenodd" clip-rule="evenodd" d="M165.528 301.218C154.456 296.288 137.175 293.439 143.538 272.03C149.901 250.62 158.056 241.783 168.274 240.197C186.238 236.409 198.793 257.034 198.742 278.307C198.674 299.598 168.598 302.583 165.528 301.218Z" fill="#CC2F22"/>
<path fill-rule="evenodd" clip-rule="evenodd" d="M194.46 279.467C192.686 270.068 190.793 261.009 194 263.943C197.207 266.878 198.179 271.125 200.977 274.401C203.775 277.676 202.785 281.225 201.659 286.82C200.533 292.416 194.46 279.467 194.46 279.467Z" fill="#FF8200"/>
<path d="M188.455 287.69C171.567 289.225 166.619 288.168 161.655 287.332L160.649 290.232C155.684 289.413 149.969 284.961 140.246 289.601C126.956 295.93 122.794 328.837 144.306 345.283C146.302 347.995 142.446 356.644 138.42 365.771C149.799 371.657 162.696 375 176.377 375C192.328 375 207.221 370.462 219.862 362.649C219.862 353.011 218.582 341.734 216.45 336.412C216.023 335.354 235.864 330.083 230.251 318.243C221.005 298.71 197.582 286.922 188.455 287.673V287.69Z" fill="#CC2F22"/>
<path fill-rule="evenodd" clip-rule="evenodd" d="M160.666 289.908C164.419 280.9 163.395 271.262 158.704 269.01C150.379 265.12 154.848 256.079 159.642 256.488C167.66 257.307 159.727 246.202 170.816 244.922C182.007 243.609 190.503 252.906 188.524 263.346C186.528 273.787 181.99 271.142 183.611 278.154C184.105 280.457 185.095 285.08 187.142 287.298C189.291 289.857 184.464 293.934 176.821 294.019C170.065 294.087 160.495 290.283 160.58 290.095L160.683 289.908H160.666Z" fill="#FF8200"/>
<path fill-rule="evenodd" clip-rule="evenodd" d="M186.494 297.823C197.258 283.05 194.989 255.004 202.581 256.693C210.172 258.382 212.236 286.598 204.645 310.908C201.097 322.287 182.109 303.879 186.511 297.823H186.494Z" fill="#FF8200"/>
<path fill-rule="evenodd" clip-rule="evenodd" d="M219.606 285.199C221.21 275.765 222.574 266.605 224.57 270.477C226.566 274.35 226.003 278.666 227.487 282.709C228.972 286.752 226.822 289.737 223.82 294.582C220.817 299.444 219.623 285.182 219.623 285.182L219.606 285.199Z" fill="#FF8200"/>
<path fill-rule="evenodd" clip-rule="evenodd" d="M210.155 299.649C216.16 285.455 229.586 265.24 235.966 267.441C242.346 269.641 225.099 297.602 224.519 312.699C224.11 323.037 207.647 305.619 210.172 299.632L210.155 299.649Z" fill="#FF8200"/>
<path d="M46.6575 333.838C72.4257 333.838 93.315 312.948 93.315 287.18C93.315 261.412 72.4257 240.523 46.6575 240.523C20.8893 240.523 0 261.412 0 287.18C0 312.948 20.8893 333.838 46.6575 333.838Z" fill="#FF8200"/>
<path fill-rule="evenodd" clip-rule="evenodd" d="M49.9499 296.478C49.7964 301.63 50.4617 315.277 55.3578 321.828C60.2538 328.396 23.1155 311.336 23.1155 311.336C23.1155 311.336 28.0286 294.021 29.8881 280.544C31.7475 267.084 28.7792 253.351 47.3057 253.113C65.8834 253.027 78.7121 254.58 75.6756 265.634C72.639 276.689 70.0801 277.917 62.2157 285.201C54.5219 292.417 50.1035 291.309 49.9329 296.46L49.9499 296.478Z" fill="#751C48"/>
<path fill-rule="evenodd" clip-rule="evenodd" d="M30.6216 280.135C30.6216 280.135 32.1229 303.847 51.0418 310.859C51.0418 310.859 51.6218 317.154 56.4667 322.51C61.448 327.816 65.2181 330.562 65.2181 330.562C65.2181 330.562 25.8109 312.002 23.8149 311.285C21.6484 310.62 14.9781 315.738 14.9781 315.738L30.6387 280.135H30.6216Z" fill="#E64460"/>
<path fill-rule="evenodd" clip-rule="evenodd" d="M37.599 270.343C37.599 270.343 26.118 266.572 25.6574 272.884C25.1456 279.555 29.4105 281.244 30.7582 283.598C34.7159 290.49 39.1002 298.115 48.9264 300.162C58.7527 302.21 65.0988 295.642 67.6065 278.975C70.0631 262.154 47.2887 247.517 37.599 270.36V270.343Z" fill="#E64460"/>
<path fill-rule="evenodd" clip-rule="evenodd" d="M16.8206 307.276C14.6541 309.886 12.2146 312.718 9.8092 315.772C18.3389 326.758 31.6794 333.838 46.6746 333.838C54.7437 333.838 62.3352 331.791 68.9542 328.191C66.1735 325.462 63.0858 322.92 59.0768 320.292C48.5511 313.213 22.962 300.077 16.8377 307.276H16.8206Z" fill="#751C48"/>
<path d="M307.36 337.538C333.128 337.538 354.017 316.649 354.017 290.881C354.017 265.112 333.128 244.223 307.36 244.223C281.591 244.223 260.702 265.112 260.702 290.881C260.702 316.649 281.591 337.538 307.36 337.538Z" fill="#FF8200"/>
<path fill-rule="evenodd" clip-rule="evenodd" d="M287.093 321.963C284.278 323.669 281.088 324.471 277.898 327.064C285.933 333.614 296.168 337.538 307.342 337.538C323.719 337.538 338.118 329.094 346.443 316.316C322.935 308.674 304.971 311.386 287.076 321.963H287.093Z" fill="#188C7C"/>
<path fill-rule="evenodd" clip-rule="evenodd" d="M289.242 275.715C279.809 291.648 284.022 300.383 290.897 303.402C301.116 306.712 297.994 318.21 297.892 326.04C297.96 332.335 299.853 327.012 321.382 311.847C321.382 311.847 318.892 309.936 319.199 303.232C319.506 296.527 323.225 284.21 318.738 274.06C314.183 264.148 295.333 265.138 289.225 275.732L289.242 275.715Z" fill="#1A395F"/>
<path fill-rule="evenodd" clip-rule="evenodd" d="M313.091 283.971C313.091 283.971 325.187 286.582 316.401 294.582C307.377 302.515 319.557 308.554 319.557 308.554C319.557 308.554 335.2 297.244 328.07 282.641C336.326 267.884 317.527 271.245 312.358 262.647C305.688 251.541 289.635 255.039 285.626 263.449C281.003 273.412 288.014 278.257 288.082 278.001C292.808 268.601 297.09 271.109 302.31 272.047C317.902 274.316 313.109 283.971 313.109 283.971H313.091Z" fill="#188C7C"/>
</g>
<defs>
<clipPath id="clip0_6_12259">
<rect width="354" height="344" fill="white"/>
</clipPath>
</defs>
</svg>
