<svg width="22" height="22" viewBox="0 0 22 22" fill="none" xmlns="http://www.w3.org/2000/svg">
<path d="M18.08 8.33C17.91 7.76 17.69 7.21 17.41 6.69L18.71 3.95C18.23 3.35 17.68 2.8 17.07 2.31L14.33 3.61C13.82 3.33 13.27 3.1 12.69 2.94L11.67 0.07C11.29 0.03 10.9 0 10.51 0C10.12 0 9.73 0.02 9.35 0.07L8.33 2.94C7.76 3.11 7.21 3.33 6.7 3.61L3.95 2.31C3.35 2.79 2.8 3.34 2.31 3.95L3.61 6.69C3.33 7.2 3.1 7.75 2.94 8.33L0.07 9.35C0.03 9.73 0 10.12 0 10.51C0 10.9 0.02 11.29 0.07 11.67L2.94 12.69C3.11 13.26 3.33 13.81 3.61 14.33L2.31 17.07C2.79 17.67 3.34 18.22 3.95 18.71L6.69 17.41C7.2 17.69 7.75 17.92 8.33 18.08L9.35 20.95C9.73 20.99 10.11 21.02 10.51 21.02C10.91 21.02 11.29 21 11.67 20.95L12.69 18.08C13.26 17.91 13.81 17.69 14.33 17.41L17.07 18.71C17.67 18.23 18.22 17.68 18.71 17.07L17.41 14.33C17.69 13.82 17.92 13.27 18.08 12.69L20.95 11.67C20.99 11.29 21.02 10.91 21.02 10.51C21.02 10.11 21 9.73 20.95 9.35L18.08 8.33ZM7.01 10.64C7.01 12.58 8.58 14.14 10.51 14.14C12.44 14.14 14.01 12.57 14.01 10.64C14.01 8.71 12.44 7.14 10.51 7.14C8.58 7.14 7.01 8.71 7.01 10.64Z" stroke="#C94B32" stroke-linecap="round" stroke-linejoin="round"/>
</svg>
