<svg width="89" height="166" viewBox="0 0 89 166" fill="none" xmlns="http://www.w3.org/2000/svg">
<path opacity="0.3" d="M65.0618 65.9914C63.7355 61.5442 62.019 57.2531 59.8344 53.196L69.9772 31.8183C66.2322 27.137 61.941 22.8459 57.1817 19.0228L35.804 29.1656C31.8249 26.981 27.5338 25.1865 23.0086 23.9382L15.0504 1.54615C12.0856 1.23406 9.04282 1 6 1C2.95718 1 -0.0856319 1.15604 -3.05043 1.54615L-11.0086 23.9382C-15.4558 25.2645 -19.7469 26.981 -23.726 29.1656L-45.1817 19.0228C-49.863 22.7678 -54.1541 27.059 -57.9772 31.8183L-47.8344 53.196C-50.019 57.1751 -51.8135 61.4662 -53.0618 65.9914L-75.4539 73.9496C-75.7659 76.9144 -76 79.9572 -76 83C-76 86.0428 -75.844 89.0856 -75.4539 92.0504L-53.0618 100.009C-51.7355 104.456 -50.019 108.747 -47.8344 112.804L-57.9772 134.182C-54.2322 138.863 -49.941 143.154 -45.1817 146.977L-23.804 136.834C-19.8249 139.019 -15.5338 140.814 -11.0086 142.062L-3.05043 164.454C-0.0856319 164.766 2.87916 165 6 165C9.12084 165 12.0856 164.844 15.0504 164.454L23.0086 142.062C27.4558 140.735 31.7469 139.019 35.804 136.834L57.1817 146.977C61.863 143.232 66.1541 138.941 69.9772 134.182L59.8344 112.804C62.019 108.825 63.8135 104.534 65.0618 100.009L87.4539 92.0504C87.7659 89.0856 88 86.1208 88 83C88 79.8792 87.844 76.9144 87.4539 73.9496L65.0618 65.9914ZM-21.3073 84.0143C-21.3073 99.1503 -9.05804 111.322 6 111.322C21.058 111.322 33.3073 99.0723 33.3073 84.0143C33.3073 68.9562 21.058 56.7069 6 56.7069C-9.05804 56.7069 -21.3073 68.9562 -21.3073 84.0143Z" stroke="white" stroke-linecap="round" stroke-linejoin="round"/>
</svg>
