<svg width="59" height="60" viewBox="0 0 59 60" fill="none" xmlns="http://www.w3.org/2000/svg">
<path d="M50.1182 24.0541C49.6545 22.4996 49.0545 20.9996 48.2909 19.5814L51.8364 12.1087C50.5273 10.4723 49.0273 8.9723 47.3636 7.63594L39.8909 11.1814C38.5 10.4178 37 9.79048 35.4182 9.35412L32.6364 1.52685C31.6 1.41776 30.5364 1.33594 29.4727 1.33594C28.4091 1.33594 27.3454 1.39048 26.3091 1.52685L23.5273 9.35412C21.9727 9.81776 20.4727 10.4178 19.0818 11.1814L11.5818 7.63594C9.94545 8.94503 8.44545 10.445 7.10908 12.1087L10.6545 19.5814C9.8909 20.9723 9.26363 22.4723 8.82726 24.0541L0.999991 26.8359C0.8909 27.8723 0.809082 28.9359 0.809082 29.9996C0.809082 31.0632 0.863628 32.1268 0.999991 33.1632L8.82726 35.945C9.2909 37.4996 9.8909 38.9996 10.6545 40.4178L7.10908 47.8905C8.41817 49.5268 9.91817 51.0268 11.5818 52.3632L19.0545 48.8178C20.4454 49.5814 21.9454 50.2087 23.5273 50.645L26.3091 58.4723C27.3454 58.5814 28.3818 58.6632 29.4727 58.6632C30.5636 58.6632 31.6 58.6087 32.6364 58.4723L35.4182 50.645C36.9727 50.1814 38.4727 49.5814 39.8909 48.8178L47.3636 52.3632C49 51.0541 50.5 49.5541 51.8364 47.8905L48.2909 40.4178C49.0545 39.0268 49.6818 37.5268 50.1182 35.945L57.9454 33.1632C58.0545 32.1268 58.1364 31.0905 58.1364 29.9996C58.1364 28.9087 58.0818 27.8723 57.9454 26.8359L50.1182 24.0541ZM19.9273 30.3541C19.9273 35.645 24.2091 39.8996 29.4727 39.8996C34.7364 39.8996 39.0182 35.6178 39.0182 30.3541C39.0182 25.0905 34.7364 20.8087 29.4727 20.8087C24.2091 20.8087 19.9273 25.0905 19.9273 30.3541Z" stroke="#C94B32" stroke-linecap="round" stroke-linejoin="round"/>
</svg>
