<svg width="22" height="22" viewBox="0 0 22 22" fill="none" xmlns="http://www.w3.org/2000/svg">
<g clip-path="url(#clip0_2006_4458)">
<path d="M12.5501 8.7598L10.8401 5.2998L9.13006 8.7598L5.31006 9.3198L8.08006 12.0198L7.43006 15.8298L10.8501 14.0298L14.2701 15.8298L13.6201 12.0198L16.3901 9.3198L12.5701 8.7598H12.5501Z" stroke="#76808D" stroke-linecap="round" stroke-linejoin="round"/>
<path d="M2.43018 6.37982L2.43018 15.6098C2.43018 17.7969 4.20313 19.5698 6.39018 19.5698H15.6202C17.8072 19.5698 19.5802 17.7969 19.5802 15.6098V6.37982C19.5802 4.19278 17.8072 2.41982 15.6202 2.41982H6.39018C4.20313 2.41982 2.43018 4.19278 2.43018 6.37982Z" stroke="#76808D" stroke-miterlimit="10" stroke-linecap="round"/>
</g>
<defs>
<clipPath id="clip0_2006_4458">
<rect width="21" height="21" fill="white" transform="translate(0.5 0.5)"/>
</clipPath>
</defs>
</svg>
