<svg width="21" height="22" viewBox="0 0 21 22" fill="none" xmlns="http://www.w3.org/2000/svg">
<g clip-path="url(#clip0_2640_4646)">
<path d="M12.0501 8.70902L10.3401 5.24902L8.63006 8.70902L4.81006 9.26902L7.58006 11.969L6.93006 15.779L10.3501 13.979L13.7701 15.779L13.1201 11.969L15.8901 9.26902L12.0701 8.70902H12.0501Z" stroke="#76808D" stroke-linecap="round" stroke-linejoin="round"/>
<path d="M1.93005 6.32953L1.93005 15.5595C1.93005 17.7466 3.70301 19.5195 5.89005 19.5195H15.1201C17.3071 19.5195 19.0801 17.7466 19.0801 15.5595V6.32953C19.0801 4.14248 17.3071 2.36953 15.1201 2.36953H5.89005C3.70301 2.36953 1.93005 4.14248 1.93005 6.32953Z" stroke="#76808D" stroke-miterlimit="10" stroke-linecap="round"/>
</g>
<defs>
<clipPath id="clip0_2640_4646">
<rect width="21" height="21" fill="white" transform="translate(0 0.449219)"/>
</clipPath>
</defs>
</svg>