<svg width="21" height="22" viewBox="0 0 21 22" fill="none" xmlns="http://www.w3.org/2000/svg">
<g clip-path="url(#clip0_1844_5206)">
<path d="M12.0501 8.7598L10.3401 5.2998L8.63006 8.7598L4.81006 9.3198L7.58006 12.0198L6.93006 15.8298L10.3501 14.0298L13.7701 15.8298L13.1201 12.0198L15.8901 9.3198L12.0701 8.7598H12.0501Z" stroke="#76808D" stroke-linecap="round" stroke-linejoin="round"/>
<path d="M1.93018 6.37982L1.93018 15.6098C1.93018 17.7969 3.70313 19.5698 5.89018 19.5698H15.1202C17.3072 19.5698 19.0802 17.7969 19.0802 15.6098V6.37982C19.0802 4.19278 17.3072 2.41982 15.1202 2.41982H5.89018C3.70313 2.41982 1.93018 4.19278 1.93018 6.37982Z" stroke="#76808D" stroke-miterlimit="10" stroke-linecap="round"/>
</g>
<defs>
<clipPath id="clip0_1844_5206">
<rect width="21" height="21" fill="white" transform="translate(0 0.5)"/>
</clipPath>
</defs>
</svg>
