<svg width="141" height="200" viewBox="0 0 141 200" fill="none" xmlns="http://www.w3.org/2000/svg">
<g clip-path="url(#clip0_56_9982)">
<path d="M56.6684 174.944H33.3539C30.9642 174.944 29.027 176.881 29.027 179.271V195.673C29.027 198.063 30.9642 200 33.3539 200H56.6684C59.0581 200 60.9954 198.063 60.9954 195.673V179.271C60.9954 176.881 59.0581 174.944 56.6684 174.944Z" fill="#2A618D"/>
<path d="M95.1235 143.966H71.809C69.4193 143.966 67.4821 145.904 67.4821 148.293V195.673C67.4821 198.063 69.4193 200 71.809 200H95.1235C97.5132 200 99.4505 198.063 99.4505 195.673V148.293C99.4505 145.904 97.5132 143.966 95.1235 143.966Z" fill="#2A618D"/>
<path d="M52.8833 185.03L52.8601 184.256C54.1373 184.217 55.43 184.147 56.6994 184.039L56.7614 184.813C55.4764 184.921 54.1683 184.999 52.8756 185.03H52.8833ZM48.9899 185.03C47.6972 184.991 46.389 184.921 45.1041 184.813L45.166 184.039C46.4355 184.147 47.7282 184.217 49.0053 184.256L48.9821 185.03H48.9899ZM60.6316 184.372L60.5233 183.605C61.785 183.427 63.0622 183.203 64.3161 182.955L64.4709 183.714C63.2092 183.969 61.9166 184.186 60.6394 184.372H60.6316ZM41.2416 184.372C39.9644 184.186 38.6717 183.969 37.4023 183.714L37.5571 182.955C38.8111 183.211 40.0882 183.427 41.3499 183.605L41.2416 184.372ZM68.2638 182.839L68.0703 182.088C69.3088 181.763 70.5473 181.399 71.7625 181.005L72.0025 181.74C70.7717 182.135 69.5178 182.506 68.2715 182.831L68.2638 182.839ZM33.6172 182.831C32.549 182.553 31.4808 182.243 30.4358 181.91L30.668 181.175C31.7052 181.5 32.758 181.81 33.8184 182.081L33.6249 182.831H33.6172ZM75.6637 180.44L75.3851 179.72C76.5771 179.255 77.7614 178.752 78.9225 178.226L79.2476 178.93C78.0788 179.464 76.8713 179.975 75.6715 180.44H75.6637ZM82.7231 177.212L82.3593 176.531C83.4894 175.935 84.6118 175.3 85.7032 174.642L86.1057 175.308C85.0066 175.973 83.8687 176.616 82.7231 177.219V177.212ZM89.3722 173.194L88.9388 172.552C89.9992 171.824 91.0442 171.066 92.0505 170.292L92.5226 170.903C91.5086 171.685 90.4482 172.459 89.38 173.187L89.3722 173.194ZM95.526 168.449L95.0228 167.861C95.9904 167.025 96.9425 166.151 97.8559 165.26L98.3977 165.818C97.4688 166.716 96.509 167.606 95.5337 168.449H95.526ZM101.107 163.031L100.534 162.505C101.401 161.56 102.245 160.585 103.058 159.602L103.654 160.09C102.841 161.088 101.982 162.071 101.107 163.031ZM106.038 157.009L105.411 156.552C106.161 155.515 106.897 154.447 107.586 153.379L108.236 153.797C107.539 154.88 106.796 155.964 106.038 157.009ZM110.256 150.468L109.583 150.089C110.21 148.982 110.814 147.836 111.386 146.683L112.083 147.024C111.51 148.185 110.899 149.346 110.264 150.468H110.256ZM113.701 143.478L112.989 143.177C113.484 142 113.956 140.793 114.39 139.585L115.117 139.848C114.684 141.063 114.204 142.286 113.701 143.478ZM116.317 136.148L115.574 135.931C115.93 134.708 116.263 133.454 116.549 132.208L117.3 132.386C117.006 133.648 116.673 134.91 116.309 136.148H116.317ZM118.074 128.57L117.308 128.439C117.525 127.185 117.71 125.9 117.85 124.63L118.616 124.715C118.469 126 118.283 127.293 118.066 128.57H118.074ZM118.949 120.845L118.175 120.799C118.244 119.529 118.283 118.237 118.283 116.952H119.057C119.057 118.252 119.018 119.56 118.949 120.837V120.845Z" fill="#2A618D"/>
<path d="M29.5611 55.252C43.7497 55.252 55.2519 43.7499 55.2519 29.5612C55.2519 15.3725 43.7497 3.87036 29.5611 3.87036C15.3724 3.87036 3.87024 15.3725 3.87024 29.5612C3.87024 43.7499 15.3724 55.252 29.5611 55.252Z" fill="#1B2B41"/>
<path d="M29.5611 59.1222C13.2595 59.1222 0 45.8627 0 29.5611C0 13.2595 13.2595 0 29.5611 0C45.8627 0 59.1222 13.2595 59.1222 29.5611C59.1222 45.8627 45.8627 59.1222 29.5611 59.1222ZM29.5611 7.74054C17.5323 7.74054 7.74054 17.5323 7.74054 29.5611C7.74054 41.5899 17.5323 51.3817 29.5611 51.3817C41.5899 51.3817 51.3817 41.5899 51.3817 29.5611C51.3817 17.5323 41.5899 7.74054 29.5611 7.74054Z" fill="#2A618D"/>
<path d="M29.5844 32.309C28.0441 32.309 26.7823 31.055 26.7823 29.5069C26.7823 27.9588 28.0363 26.7048 29.5844 26.7048C31.1325 26.7048 32.3865 27.9588 32.3865 29.5069C32.3865 31.055 31.1325 32.309 29.5844 32.309ZM29.5844 27.4866C28.4698 27.4866 27.5564 28.3923 27.5564 29.5146C27.5564 30.637 28.462 31.5427 29.5844 31.5427C30.7068 31.5427 31.6124 30.637 31.6124 29.5146C31.6124 28.3923 30.7068 27.4866 29.5844 27.4866Z" fill="white"/>
<path d="M24.3673 38.0758C22.8269 38.0758 21.5652 36.8219 21.5652 35.2738C21.5652 33.7256 22.8192 32.4717 24.3673 32.4717C25.9154 32.4717 27.1693 33.7256 27.1693 35.2738C27.1693 36.8219 25.9154 38.0758 24.3673 38.0758ZM24.3673 33.2535C23.2526 33.2535 22.3392 34.1591 22.3392 35.2815C22.3392 36.4039 23.2449 37.3095 24.3673 37.3095C25.4896 37.3095 26.3953 36.4039 26.3953 35.2815C26.3953 34.1591 25.4896 33.2535 24.3673 33.2535Z" fill="white"/>
<path d="M34.2674 35.6528H27.0997C26.8829 35.6528 26.7126 35.4826 26.7126 35.2658C26.7126 35.0491 26.8829 34.8788 27.0997 34.8788H34.2674C35.653 34.8788 36.7831 33.7487 36.7831 32.3709C36.7831 30.993 35.653 29.8629 34.2674 29.8629H32.2084C31.9917 29.8629 31.8214 29.6926 31.8214 29.4759C31.8214 29.2592 31.9917 29.0889 32.2084 29.0889H34.2674C36.0787 29.0889 37.5571 30.5596 37.5571 32.3709C37.5571 34.1821 36.0864 35.6528 34.2674 35.6528Z" fill="white"/>
<path d="M34.7551 26.643C33.2147 26.643 31.953 25.389 31.953 23.8409C31.953 22.2928 33.207 21.0388 34.7551 21.0388C36.3032 21.0388 37.5572 22.2928 37.5572 23.8409C37.5572 25.389 36.3032 26.643 34.7551 26.643ZM34.7551 21.8206C33.6404 21.8206 32.7271 22.7263 32.7271 23.8486C32.7271 24.971 33.6327 25.8767 34.7551 25.8767C35.8775 25.8767 36.7831 24.971 36.7831 23.8486C36.7831 22.7263 35.8775 21.8206 34.7551 21.8206Z" fill="white"/>
<path d="M26.9835 30.0332H24.8549C23.0436 30.0332 21.5729 28.5625 21.5729 26.7512C21.5729 24.9399 23.0436 23.4692 24.8549 23.4692H32.0226C32.2393 23.4692 32.4096 23.6395 32.4096 23.8563C32.4096 24.073 32.2393 24.2433 32.0226 24.2433H24.8549C23.4693 24.2433 22.3469 25.3734 22.3469 26.7512C22.3469 28.129 23.477 29.2592 24.8549 29.2592H26.9835C27.2002 29.2592 27.3705 29.4295 27.3705 29.6462C27.3705 29.8629 27.2002 30.0332 26.9835 30.0332Z" fill="white"/>
<path d="M94.3726 55.252C108.561 55.252 120.063 43.7499 120.063 29.5612C120.063 15.3725 108.561 3.87036 94.3726 3.87036C80.1839 3.87036 68.6818 15.3725 68.6818 29.5612C68.6818 43.7499 80.1839 55.252 94.3726 55.252Z" fill="#1B2B41"/>
<path d="M94.3726 59.1222C78.0711 59.1222 64.8115 45.8627 64.8115 29.5611C64.8115 13.2595 78.0711 0 94.3726 0C110.674 0 123.934 13.2595 123.934 29.5611C123.934 45.8627 110.674 59.1222 94.3726 59.1222ZM94.3726 7.74054C82.3438 7.74054 72.5521 17.5323 72.5521 29.5611C72.5521 41.5899 82.3438 51.3817 94.3726 51.3817C106.401 51.3817 116.193 41.5899 116.193 29.5611C116.193 17.5323 106.401 7.74054 94.3726 7.74054Z" fill="#2A618D"/>
<path d="M90.9357 34.9332C90.719 34.9332 90.5487 34.7629 90.5487 34.5461V21.4337C90.5487 21.2169 90.719 21.0466 90.9357 21.0466C91.1525 21.0466 91.3228 21.2169 91.3228 21.4337V34.5461C91.3228 34.7629 91.1525 34.9332 90.9357 34.9332Z" fill="white"/>
<path d="M102.129 30.1883H90.5874V21.7356H102.136L98.1189 25.9387L102.129 30.1883ZM91.3615 29.4142H100.333L97.0507 25.931L100.325 22.5096H91.3615V29.4142Z" fill="white"/>
<path d="M94.7519 38.0759H87.1274V36.6206C87.1274 35.3435 88.1647 34.314 89.4341 34.314H92.4452C93.7224 34.314 94.7519 35.3512 94.7519 36.6206V38.0759ZM87.9015 37.3018H93.9778V36.6206C93.9778 35.7769 93.2889 35.088 92.4452 35.088H89.4341C88.5904 35.088 87.9015 35.7769 87.9015 36.6206V37.3018Z" fill="white"/>
<path fill-rule="evenodd" clip-rule="evenodd" d="M129.159 55.1591C128.47 56.3589 126.906 59.6719 127.239 61.8392C127.572 64.0066 120.93 55.2907 120.93 55.2907C120.93 55.2907 107.253 53.3866 109.815 45.7234C110.055 45.0036 110.442 44.3301 110.899 43.7264C116.271 36.5973 125.598 42.3486 129.244 43.4013C130.714 43.827 132.208 44.1753 133.733 44.3688C141.482 45.3519 141.11 49.4621 139.19 51.4979C137.077 53.7271 136.249 53.3169 133.478 54.0445C130.745 54.7799 129.84 53.9594 129.151 55.1591H129.159Z" fill="#751C48"/>
<path fill-rule="evenodd" clip-rule="evenodd" d="M126.643 48.8584C126.643 48.8584 124.011 54.6561 127.603 58.7044C127.603 58.7044 126.945 60.268 127.417 62.1489C127.928 64.0299 128.47 65.1522 128.47 65.1522C128.47 65.1522 121.488 55.7939 121.101 55.3682C120.675 54.9425 118.453 55.3063 118.453 55.3063L126.643 48.8584Z" fill="#E64460"/>
<path fill-rule="evenodd" clip-rule="evenodd" d="M129.53 47.4186C129.53 47.4186 127.285 45.081 126.387 46.513C125.428 48.0301 126.225 48.9667 126.24 49.6866C126.31 51.8153 126.387 54.1684 128.454 55.8945C130.521 57.6207 132.851 56.8621 135.545 53.2395C138.246 49.5705 134.701 43.2387 129.53 47.4186Z" fill="#E64460"/>
<path fill-rule="evenodd" clip-rule="evenodd" d="M120.412 90.9978C123.988 80.4939 131.14 79.2709 130.498 72.1883C130.18 68.7128 128.787 65.098 127.742 63.1861C126.147 60.1827 121.743 53.851 119.39 54.7799C117.076 55.7165 114.111 56.7769 111.719 58.7895C109.281 60.7943 97.9099 92.0583 101.865 94.1327C105.774 96.1995 120.412 91.0056 120.412 91.0056V90.9978Z" fill="#751C48"/>
<path fill-rule="evenodd" clip-rule="evenodd" d="M118.895 55.2288C116.031 55.5385 110.806 59.3468 107.415 59.3391C101.672 59.3236 96.1451 58.7818 94.1094 57.4272C94.1094 57.4272 97.0121 58.9598 98.6763 61.1891C99.7987 62.6907 101.161 65.8024 104.621 67.0719C113.229 70.23 120.621 70.2532 125.064 68.7825C129.507 67.3118 121.728 54.9192 118.895 55.2288Z" fill="#751C48"/>
<path fill-rule="evenodd" clip-rule="evenodd" d="M89.976 57.6982C92.7703 60.3377 99.2182 65.2684 104.366 66.9713C106.966 67.8383 100.364 59.0992 100.209 59.0373C100.132 59.0063 97.2908 58.6193 95.0538 57.3266C92.9948 56.1346 90.3088 53.9904 89.736 53.3247C88.544 51.9469 87.5222 55.3837 89.9682 57.6904L89.976 57.6982Z" fill="#E64460"/>
<path fill-rule="evenodd" clip-rule="evenodd" d="M90.6029 54.6327C88.5362 51.6913 87.677 49.1834 87.6461 50.9172C87.6151 52.6511 88.5053 54.0289 88.6678 55.7241C88.8304 57.4193 90.0301 58.0153 91.8259 59.099C93.6217 60.1827 90.6107 54.6404 90.6107 54.6404L90.6029 54.6327Z" fill="#E64460"/>
<path fill-rule="evenodd" clip-rule="evenodd" d="M90.2546 58.0464C86.3843 57.0324 83.4816 57.0711 82.0187 55.763C80.5557 54.4548 83.8067 52.5119 86.0825 52.6977C88.3582 52.8835 88.2808 52.3184 89.7824 54.122C91.2841 55.9255 93.4515 57.2801 93.4515 57.2801L90.2546 58.0387V58.0464Z" fill="#E64460"/>
<path d="M104.954 81.5079C98.0958 87.0501 96.7257 96.2768 96.5245 100.89C96.3929 103.963 89.1555 111.394 84.4338 117.811C82.0652 121.031 87.4603 122.897 86.485 123.856C86.485 123.856 97.3527 120.443 106.022 112.323C118.244 100.875 115.342 92.7471 120.946 86.3921C126.55 80.0372 113.19 74.851 104.954 81.5079Z" fill="#E64460"/>
<path d="M111.758 81.8407C123.214 76.5539 135.955 79.8979 137.464 84.2171C138.974 88.5363 122.989 110.14 121.697 114.243C120.404 118.345 120.613 120.071 120.613 120.071C120.613 120.071 117.803 115.102 118.237 108.19C118.67 101.277 121.48 93.7147 121.48 93.7147C121.48 93.7147 109.165 103.654 104.412 101.277C99.6594 98.9009 103.328 85.7265 111.758 81.833V81.8407Z" fill="#E64460"/>
<path d="M92.7549 108.05C103.336 97.5772 110.79 107.655 117.06 99.8762C123.33 92.0969 126.999 81.1905 133.044 80.6487C133.044 80.6487 115.009 75.6793 110.581 75.7876C106.154 75.896 102.051 77.0803 96.6484 85.3472C92.9484 91.0055 95.0848 104.575 82.4987 103.545C82.4987 103.545 89.6896 111.084 92.7626 108.042L92.7549 108.05Z" fill="#751C48"/>
<path fill-rule="evenodd" clip-rule="evenodd" d="M81.9491 120.938C80.0062 123.315 76.3062 129.461 76.5462 132.061C76.8713 135.521 79.5727 136.489 80.757 135.839C81.9413 135.189 81.0821 126.767 84.1087 125.366C87.1352 123.965 91.1293 122.014 91.1293 122.014C91.1293 122.014 87.1352 122.339 85.7264 120.722C84.3177 119.104 84.5421 117.478 84.5421 117.478L81.9491 120.938Z" fill="#751C48"/>
<path fill-rule="evenodd" clip-rule="evenodd" d="M118.461 106.471C118.461 106.471 117.811 112.517 117.703 114.785C117.594 117.052 117.377 118.028 117.377 118.028L130.769 118.245C130.769 118.245 130.443 116.41 129.259 115.868C128.075 115.326 122.78 113.925 123.856 111.116C124.932 108.306 125.799 107.121 125.799 107.121C125.799 107.121 123.098 108.306 120.83 108.306C118.562 108.306 118.453 106.471 118.453 106.471H118.461Z" fill="#751C48"/>
<path d="M135.73 117.811H112.416C110.026 117.811 108.089 119.748 108.089 122.138V195.681C108.089 198.071 110.026 200.008 112.416 200.008H135.73C138.12 200.008 140.057 198.071 140.057 195.681V122.138C140.057 119.748 138.12 117.811 135.73 117.811Z" fill="#2A618D"/>
<path fill-rule="evenodd" clip-rule="evenodd" d="M60.9257 114.111C61.8546 113.5 63.4182 112.184 64.6644 111.092C65.3301 110.512 66.2977 111.224 65.9803 112.052C64.9895 114.676 62.3964 118.632 55.577 121.194C49.6478 123.415 51.281 119.677 51.281 119.677L60.9257 114.111Z" fill="#E64460"/>
<path fill-rule="evenodd" clip-rule="evenodd" d="M38.2151 116.255C41.6983 116.952 47.6121 116.573 52.775 116C57.9379 115.427 60.9258 114.103 60.9258 114.103C60.9258 114.103 59.9273 121.441 53.8974 124.669C47.8598 127.897 35.2969 130.173 35.2969 130.173L38.2228 116.255H38.2151Z" fill="#751C48"/>
<path fill-rule="evenodd" clip-rule="evenodd" d="M32.9824 115.187C25.2341 114.521 17.4239 117.842 12.9499 120.249C8.47587 122.657 9.21896 126.829 11.0844 130.366C12.9499 133.911 17.5555 136.187 17.5555 136.187C17.5555 136.187 24.0266 130.746 26.7668 129.608C29.5069 128.47 40.5836 130.366 41.079 125.18C41.5744 119.994 41.8221 115.946 32.9901 115.187H32.9824Z" fill="#751C48"/>
<path fill-rule="evenodd" clip-rule="evenodd" d="M11.0845 189.69C11.0845 189.69 14.3819 189.891 17.9039 187.491C18.9643 186.764 20.048 185.804 21.0698 184.534C25.4664 179.031 25.4664 175.416 25.4664 175.416C25.4664 175.416 18.3915 175.524 17.006 178.172C17.006 178.172 13.7085 184.79 11.0845 189.697V189.69Z" fill="#E64460"/>
<path fill-rule="evenodd" clip-rule="evenodd" d="M40.2585 166.631C40.2585 166.631 40.87 173.086 43.8269 168.705C46.7838 164.332 48.7577 158.31 48.7577 158.31C48.7577 158.31 42.8594 159.587 42.0544 161.568C42.0544 161.568 41.8144 162.954 40.2663 166.631H40.2585Z" fill="#E64460"/>
<path fill-rule="evenodd" clip-rule="evenodd" d="M41.6131 100.735C40.4133 96.7181 36.5043 98.274 34.7163 98.274C32.9282 98.274 29.2514 99.3267 28.9728 102.198C28.9728 102.198 28.2219 99.706 25.4895 99.4196C22.7571 99.1332 22.5713 106.595 25.3038 107.075C28.0362 107.555 28.6012 106.216 28.6012 106.216C28.6012 106.216 28.5083 111.1 33.5939 111.866C38.6794 112.633 43.0141 107.849 43.0141 107.849L41.6285 100.743L41.6131 100.735Z" fill="#751C48"/>
<path fill-rule="evenodd" clip-rule="evenodd" d="M32.9978 139.384C30.3815 142.441 22.1533 142.147 21.24 147.295C20.1408 153.448 21.2709 160.221 20.8994 164.061C20.404 169.239 17.2613 176.918 15.6281 180.633C15.0398 181.98 14.645 182.808 14.645 182.808L21.0774 184.527C21.0774 184.527 30.0487 172.312 31.3955 165.609C32.7501 158.898 33.2533 153.572 33.2533 153.572C33.2533 153.572 36.1328 152.729 40.3591 152.194C45.8549 151.506 42.0543 161.568 42.0543 161.568C42.0543 161.568 48.6569 162.087 49.671 161.909C50.685 161.731 54.6636 151.846 52.9684 147.72C51.2732 143.595 47.9913 140.119 40.1191 142.612C38.8265 143.022 24.282 135.591 24.282 135.591C24.282 135.591 39.7631 131.465 32.9978 139.376V139.384Z" fill="#751C48"/>
<path fill-rule="evenodd" clip-rule="evenodd" d="M37.6344 99.7061C39.5154 99.1333 41.5899 99.8996 43.8501 103.251C46.1103 106.603 46.389 109.668 44.4152 111.007C42.4413 112.346 39.5154 112.439 39.2367 114.072C38.9581 115.706 38.5788 117.324 38.5788 117.324C38.5788 117.324 36.5043 114.072 34.9098 112.826C33.3152 111.58 33.5939 111.866 33.5939 111.866C33.5939 111.866 36.1328 110.334 37.3635 109.281C38.5943 108.228 35.2891 108.608 35.1033 106.889C34.9175 105.163 38.2072 104.497 38.2072 104.497C38.2072 104.497 38.4859 103.251 38.3001 102.199C38.1144 101.146 37.6422 99.7061 37.6422 99.7061H37.6344Z" fill="#E64460"/>
<path fill-rule="evenodd" clip-rule="evenodd" d="M37.023 108.561C41.4041 110.07 44.8642 108.058 45.1428 105.62C45.1428 105.62 47.7591 107.849 47.047 110.07C46.3349 112.292 44.7171 113.012 41.5357 112.3C38.3544 111.58 38.0757 109.645 34.8247 109.645C31.5737 109.645 32.4948 108.499 32.4948 108.499L37.0152 108.569L37.023 108.561Z" fill="#751C48"/>
<path fill-rule="evenodd" clip-rule="evenodd" d="M29.4992 112.145C29.4992 112.145 29.7469 109.358 32.6109 110.125C35.4749 110.891 40.0805 117.084 40.6998 118.725C41.319 120.366 31.7362 115.179 27.7576 115.435C23.7789 115.69 17.8032 117.935 17.8032 117.935C17.8032 117.935 14.9392 115.69 18.8018 113.918C22.6643 112.145 29.5069 112.145 29.5069 112.145H29.4992Z" fill="#E64460"/>
<path fill-rule="evenodd" clip-rule="evenodd" d="M20.2338 125.714C19.6765 125.714 21.8284 133.873 21.2633 135.963C19.4907 142.511 20.4196 145.832 20.7989 155.035C27.2699 155.291 42.4491 142.256 42.4491 142.256C42.4491 142.256 38.2538 139.817 38.4395 136.721C38.7569 131.419 43.1535 123.376 40.0883 121.387C35.235 118.221 22.6721 125.722 20.2415 125.722L20.2338 125.714Z" fill="#E64460"/>
<path fill-rule="evenodd" clip-rule="evenodd" d="M61.2973 111.766C60.9877 110.504 60.9258 114.165 60.8639 114.676C60.8019 115.187 60.4149 116.371 60.4149 116.371L62.172 114.49C62.172 114.49 61.6147 113.035 61.2973 111.773V111.766Z" fill="#E64460"/>
<path fill-rule="evenodd" clip-rule="evenodd" d="M14.8153 134.476C17.1762 135.993 15.512 140.235 15.0475 141.799C14.5831 143.362 13.7704 145.94 14.1883 146.18C14.6063 146.42 16.2396 147.132 18.3141 143.602C19.0958 142.271 19.1036 137.813 18.9178 136.489C18.732 135.165 19.3977 133.029 17.8574 132.835C16.317 132.642 14.8076 134.476 14.8076 134.476H14.8153Z" fill="#E64460"/>
<path fill-rule="evenodd" clip-rule="evenodd" d="M18.5541 138.904C19.2352 139.98 20.9768 141.118 20.9768 141.118C20.9768 141.118 21.1626 141.621 20.5434 141.621C19.9241 141.621 18.1206 141.427 17.7413 140.862C17.362 140.297 18.5463 138.904 18.5463 138.904H18.5541Z" fill="#E64460"/>
<path fill-rule="evenodd" clip-rule="evenodd" d="M20.4737 185.216C17.5091 188.482 15.6514 191.927 15.9068 193.986C16.1622 196.045 17.2614 198.375 16.0771 198.715C14.8928 199.056 12.439 199.319 11.5102 196.478C10.5813 193.637 9.98529 191.23 11.0844 189.682L20.4737 185.208V185.216Z" fill="#E64460"/>
<path fill-rule="evenodd" clip-rule="evenodd" d="M44.0436 175.269C41.4428 175.269 38.6407 175.594 38.6407 172.568C38.6407 169.541 39.291 168.465 40.2585 166.631C41.2261 164.796 46.0794 165.082 44.9028 166.847C43.2851 169.278 42.6349 171.492 44.1443 172.893C45.6537 174.294 44.9028 175.269 44.0359 175.269H44.0436Z" fill="#E64460"/>
</g>
<defs>
<clipPath id="clip0_56_9982">
<rect width="140.359" height="200" fill="white"/>
</clipPath>
</defs>
</svg>
