<svg width="164" height="200" viewBox="0 0 164 200" fill="none" xmlns="http://www.w3.org/2000/svg">
<g clip-path="url(#clip0_56_9009)">
<path d="M77.6368 184.919H77.2195V184.101H77.6368V184.919ZM73.1282 184.919H69.0369V184.101H73.1282V184.919ZM64.9456 184.919H60.8542V184.101H64.9456V184.919ZM56.7629 184.919H52.6716V184.101H56.7629V184.919ZM48.5803 184.919H44.489V184.101H48.5803V184.919ZM40.3976 184.919H36.3063V184.101H40.3976V184.919ZM32.215 184.919H29.9566V182.268H30.7749V184.101H32.215V184.919ZM30.7749 178.177H29.9566V174.086H30.7749V178.177ZM30.7749 169.994H29.9566V165.903H30.7749V169.994ZM30.7749 161.812H29.9566V157.72H30.7749V161.812ZM30.7749 153.629H29.9566V149.538H30.7749V153.629ZM30.7749 145.446H29.9566V141.355H30.7749V145.446ZM30.7749 137.264H29.9566V133.172H30.7749V137.264ZM30.7749 129.081H29.9566V124.99H30.7749V129.081ZM30.7749 120.898H29.9566V116.807H30.7749V120.898ZM30.7749 112.716H29.9566V108.624H30.7749V112.716ZM30.7749 104.533H29.9566V100.442H30.7749V104.533ZM30.7749 96.3505H29.9566V92.2591H30.7749V96.3505ZM30.7749 88.1678H29.9566V84.0765H30.7749V88.1678ZM30.7749 79.9852H29.9566V75.8939H30.7749V79.9852ZM30.7749 71.8026H29.9566V67.7112H30.7749V71.8026ZM30.7749 63.6199H29.9566V59.5286H30.7749V63.6199ZM30.7749 55.4373H29.9566V51.346H30.7749V55.4373ZM30.7749 47.2546H29.9566V43.1633H30.7749V47.2546Z" fill="#188C7C"/>
<path d="M67.1385 136.274H63.0472V135.455H67.1385V136.274ZM58.9559 136.274H54.8646V135.455H58.9559V136.274ZM50.7732 136.274H46.6819V135.455H50.7732V136.274ZM42.5906 136.274H38.4993V135.455H42.5906V136.274ZM34.408 136.274H30.3167V135.455H34.408V136.274Z" fill="#188C7C"/>
<path d="M67.1385 88.7816H63.0472V87.9634H67.1385V88.7816ZM58.9559 88.7816H54.8646V87.9634H58.9559V88.7816ZM50.7732 88.7816H46.6819V87.9634H50.7732V88.7816ZM42.5906 88.7816H38.4993V87.9634H42.5906V88.7816ZM34.408 88.7816H30.3167V87.9634H34.408V88.7816Z" fill="#188C7C"/>
<path d="M150.912 68.0222H76.884C72.3061 68.0222 68.595 71.7333 68.595 76.3112V99.0671C68.595 103.645 72.3061 107.356 76.884 107.356H150.912C155.49 107.356 159.201 103.645 159.201 99.0671V76.3112C159.201 71.7333 155.49 68.0222 150.912 68.0222Z" fill="#0D5263"/>
<path d="M107.471 92.6112H106.342V83.9294H103.273V82.9312H110.531V83.9294H107.463V92.6112H107.471Z" fill="white"/>
<path d="M116.283 92.6112L116.063 91.5802H116.013C115.653 92.0384 115.293 92.3412 114.933 92.5048C114.573 92.6685 114.123 92.7421 113.583 92.7421C112.863 92.7421 112.299 92.5539 111.889 92.1857C111.48 91.8175 111.276 91.2856 111.276 90.6065C111.276 89.1418 112.446 88.3726 114.794 88.299L116.022 88.258V87.808C116.022 87.2352 115.899 86.8179 115.653 86.5479C115.408 86.2778 115.015 86.1387 114.475 86.1387C113.87 86.1387 113.182 86.3269 112.421 86.6952L112.086 85.8523C112.446 85.656 112.839 85.5087 113.264 85.3941C113.69 85.2877 114.115 85.2305 114.549 85.2305C115.416 85.2305 116.054 85.4187 116.472 85.8033C116.889 86.1878 117.094 86.8015 117.094 87.6525V92.603H116.275L116.283 92.6112ZM113.804 91.8339C114.491 91.8339 115.023 91.6457 115.416 91.2693C115.809 90.8929 116.005 90.3692 116.005 89.69V89.0354L114.909 89.0845C114.033 89.1172 113.403 89.2481 113.019 89.4936C112.634 89.7309 112.438 90.1073 112.438 90.6146C112.438 91.0156 112.56 91.3102 112.798 91.5229C113.035 91.7275 113.379 91.8339 113.804 91.8339Z" fill="white"/>
<path d="M124.049 90.6309C124.049 91.3101 123.795 91.8256 123.296 92.1938C122.797 92.562 122.085 92.742 121.177 92.742C120.211 92.742 119.467 92.5865 118.926 92.2838V91.261C119.278 91.441 119.647 91.5801 120.047 91.6783C120.448 91.7765 120.833 91.8337 121.201 91.8337C121.774 91.8337 122.216 91.7437 122.527 91.5555C122.838 91.3755 122.993 91.0891 122.993 90.7209C122.993 90.4345 122.87 90.1972 122.625 89.9926C122.38 89.7881 121.905 89.5508 121.193 89.2808C120.514 89.0271 120.039 88.8062 119.753 88.6261C119.467 88.4379 119.254 88.2252 119.115 87.9879C118.976 87.7506 118.91 87.4642 118.91 87.1369C118.91 86.5478 119.147 86.0813 119.63 85.7377C120.113 85.394 120.768 85.2222 121.61 85.2222C122.388 85.2222 123.157 85.3776 123.901 85.6968L123.509 86.5887C122.78 86.2859 122.118 86.1386 121.529 86.1386C121.005 86.1386 120.612 86.2204 120.35 86.3841C120.088 86.5478 119.949 86.7769 119.949 87.0633C119.949 87.2596 119.998 87.4233 120.097 87.5624C120.195 87.7015 120.358 87.8324 120.579 87.9552C120.8 88.0779 121.226 88.2579 121.848 88.4952C122.707 88.8062 123.288 89.1253 123.591 89.4444C123.893 89.7635 124.041 90.1645 124.041 90.6391L124.049 90.6309Z" fill="white"/>
<path d="M126.921 88.8962C127.109 88.6262 127.395 88.2743 127.788 87.8407L130.128 85.3613H131.43L128.492 88.4544L131.634 92.6193H130.3L127.739 89.1908L126.913 89.9027V92.6193H125.824V82.3174H126.913V87.7834C126.913 88.0289 126.896 88.3971 126.864 88.9126H126.913L126.921 88.8962Z" fill="white"/>
<path d="M140.038 92.6111H138.966V85.7131C138.966 85.1403 138.982 84.6003 139.015 84.0848C138.925 84.1748 138.818 84.273 138.704 84.3794C138.589 84.4775 138.066 84.9112 137.125 85.6722L136.544 84.9194L139.105 82.9392H140.029V92.6193L140.038 92.6111Z" fill="white"/>
<path d="M92.5292 97.8725H80.8526C79.437 97.8725 78.2833 96.596 78.2833 95.0167V82.3745C78.2833 80.8035 79.437 79.5188 80.8526 79.5188H82.2846C82.5137 79.5188 82.6937 79.6988 82.6937 79.9279C82.6937 80.157 82.5137 80.3371 82.2846 80.3371H80.8526C79.8871 80.3371 79.1015 81.2535 79.1015 82.3745V95.0167C79.1015 96.1377 79.8871 97.0542 80.8526 97.0542H92.5292C93.4948 97.0542 94.2803 96.1377 94.2803 95.0167V82.3745C94.2803 81.2535 93.4948 80.3371 92.5292 80.3371H91.2036C90.9745 80.3371 90.7945 80.157 90.7945 79.9279C90.7945 79.6988 90.9745 79.5188 91.2036 79.5188H92.5292C93.9448 79.5188 95.0986 80.7953 95.0986 82.3745V95.0167C95.0986 96.5878 93.9448 97.8725 92.5292 97.8725Z" fill="white"/>
<path d="M90.9827 81.7853H82.4073C82.1782 81.7853 81.9982 81.6053 81.9982 81.3762V80.4761C81.9982 79.2241 82.9146 78.1931 84.1175 78.0049C84.2975 76.8021 85.3449 75.8774 86.5968 75.8774H86.7932C88.0451 75.8774 89.0925 76.8021 89.2725 78.0049C90.4672 78.1849 91.3918 79.2241 91.3918 80.4761V81.3762C91.3918 81.6053 91.2118 81.7853 90.9827 81.7853ZM82.8164 80.967H90.5736V80.4761C90.5736 79.5514 89.8208 78.7986 88.8961 78.7986C88.667 78.7986 88.487 78.6186 88.487 78.3895C88.487 77.4567 87.726 76.6957 86.7932 76.6957H86.5968C85.664 76.6957 84.903 77.4567 84.903 78.3895C84.903 78.6186 84.723 78.7986 84.4939 78.7986C83.5692 78.7986 82.8164 79.5514 82.8164 80.4761V80.967Z" fill="white"/>
<path d="M91.1218 93.3476H82.2518C82.0227 93.3476 81.8427 93.1675 81.8427 92.9384C81.8427 92.7093 82.0227 92.5293 82.2518 92.5293H91.1218C91.3509 92.5293 91.531 92.7093 91.531 92.9384C91.531 93.1675 91.3509 93.3476 91.1218 93.3476Z" fill="white"/>
<path d="M91.1218 89.5343H82.2518C82.0227 89.5343 81.8427 89.3543 81.8427 89.1252C81.8427 88.8961 82.0227 88.7161 82.2518 88.7161H91.1218C91.3509 88.7161 91.531 88.8961 91.531 89.1252C91.531 89.3543 91.3509 89.5343 91.1218 89.5343Z" fill="white"/>
<path d="M91.1218 85.7213H82.2518C82.0227 85.7213 81.8427 85.5413 81.8427 85.3122C81.8427 85.0831 82.0227 84.9031 82.2518 84.9031H91.1218C91.3509 84.9031 91.531 85.0831 91.531 85.3122C91.531 85.5413 91.3509 85.7213 91.1218 85.7213Z" fill="white"/>
<path d="M150.912 114.598H76.884C72.3061 114.598 68.595 118.309 68.595 122.887V145.643C68.595 150.221 72.3061 153.932 76.884 153.932H150.912C155.49 153.932 159.201 150.221 159.201 145.643V122.887C159.201 118.309 155.49 114.598 150.912 114.598Z" fill="#0D5263"/>
<path d="M107.471 139.187H106.342V130.505H103.273V129.507H110.531V130.505H107.463V139.187H107.471Z" fill="white"/>
<path d="M116.283 139.187L116.063 138.156H116.013C115.653 138.614 115.293 138.917 114.933 139.081C114.573 139.244 114.123 139.318 113.583 139.318C112.863 139.318 112.299 139.13 111.889 138.761C111.48 138.393 111.276 137.861 111.276 137.182C111.276 135.717 112.446 134.948 114.794 134.875L116.022 134.834V134.384C116.022 133.811 115.899 133.394 115.653 133.124C115.408 132.854 115.015 132.714 114.475 132.714C113.87 132.714 113.182 132.903 112.421 133.271L112.086 132.428C112.446 132.232 112.839 132.084 113.264 131.97C113.69 131.863 114.115 131.806 114.549 131.806C115.416 131.806 116.054 131.994 116.472 132.379C116.889 132.764 117.094 133.377 117.094 134.228V139.179H116.275L116.283 139.187ZM113.804 138.41C114.491 138.41 115.023 138.221 115.416 137.845C115.809 137.469 116.005 136.945 116.005 136.266V135.611L114.909 135.66C114.033 135.693 113.403 135.824 113.019 136.069C112.634 136.307 112.438 136.683 112.438 137.19C112.438 137.591 112.56 137.886 112.798 138.099C113.035 138.303 113.379 138.41 113.804 138.41Z" fill="white"/>
<path d="M124.049 137.207C124.049 137.886 123.795 138.401 123.296 138.769C122.797 139.138 122.085 139.318 121.177 139.318C120.211 139.318 119.467 139.162 118.926 138.859V137.837C119.278 138.017 119.647 138.156 120.047 138.254C120.448 138.352 120.833 138.409 121.201 138.409C121.774 138.409 122.216 138.319 122.527 138.131C122.838 137.951 122.993 137.665 122.993 137.297C122.993 137.01 122.87 136.773 122.625 136.568C122.38 136.364 121.905 136.126 121.193 135.856C120.514 135.603 120.039 135.382 119.753 135.202C119.467 135.014 119.254 134.801 119.115 134.564C118.976 134.326 118.91 134.04 118.91 133.713C118.91 133.123 119.147 132.657 119.63 132.313C120.113 131.97 120.768 131.798 121.61 131.798C122.388 131.798 123.157 131.953 123.901 132.272L123.509 133.164C122.78 132.862 122.118 132.714 121.529 132.714C121.005 132.714 120.612 132.796 120.35 132.96C120.088 133.123 119.949 133.353 119.949 133.639C119.949 133.835 119.998 133.999 120.097 134.138C120.195 134.277 120.358 134.408 120.579 134.531C120.8 134.654 121.226 134.834 121.848 135.071C122.707 135.382 123.288 135.701 123.591 136.02C123.893 136.339 124.041 136.74 124.041 137.215L124.049 137.207Z" fill="white"/>
<path d="M126.921 135.472C127.109 135.202 127.395 134.85 127.788 134.416L130.128 131.937H131.43L128.492 135.03L131.634 139.195H130.3L127.739 135.766L126.913 136.478V139.195H125.824V128.893H126.913V134.359C126.913 134.605 126.896 134.973 126.864 135.488H126.913L126.921 135.472Z" fill="white"/>
<path d="M142.329 139.187H135.963V138.238L138.508 135.676C139.285 134.891 139.8 134.326 140.046 133.991C140.291 133.655 140.48 133.328 140.602 133.009C140.725 132.69 140.79 132.346 140.79 131.986C140.79 131.471 140.635 131.061 140.316 130.759C140.005 130.456 139.571 130.309 139.015 130.309C138.614 130.309 138.229 130.374 137.869 130.505C137.509 130.636 137.108 130.881 136.666 131.225L136.085 130.481C136.977 129.736 137.951 129.368 138.998 129.368C139.907 129.368 140.619 129.597 141.134 130.063C141.65 130.53 141.911 131.151 141.911 131.937C141.911 132.551 141.74 133.156 141.396 133.762C141.052 134.359 140.406 135.12 139.465 136.037L137.346 138.107V138.156H142.321V139.179L142.329 139.187Z" fill="white"/>
<path d="M92.5292 144.448H80.8526C79.437 144.448 78.2833 143.172 78.2833 141.592V128.95C78.2833 127.379 79.437 126.094 80.8526 126.094H82.2846C82.5137 126.094 82.6937 126.275 82.6937 126.504C82.6937 126.733 82.5137 126.913 82.2846 126.913H80.8526C79.8871 126.913 79.1015 127.829 79.1015 128.95V141.592C79.1015 142.713 79.8871 143.63 80.8526 143.63H92.5292C93.4948 143.63 94.2803 142.713 94.2803 141.592V128.95C94.2803 127.829 93.4948 126.913 92.5292 126.913H91.2036C90.9745 126.913 90.7945 126.733 90.7945 126.504C90.7945 126.275 90.9745 126.094 91.2036 126.094H92.5292C93.9448 126.094 95.0986 127.371 95.0986 128.95V141.592C95.0986 143.163 93.9448 144.448 92.5292 144.448Z" fill="white"/>
<path d="M90.9827 128.361H82.4073C82.1782 128.361 81.9982 128.181 81.9982 127.952V127.052C81.9982 125.8 82.9146 124.769 84.1175 124.581C84.2975 123.378 85.3449 122.453 86.5968 122.453H86.7932C88.0451 122.453 89.0925 123.378 89.2725 124.581C90.4672 124.761 91.3918 125.8 91.3918 127.052V127.952C91.3918 128.181 91.2118 128.361 90.9827 128.361ZM82.8164 127.543H90.5736V127.052C90.5736 126.127 89.8208 125.374 88.8961 125.374C88.667 125.374 88.487 125.194 88.487 124.965C88.487 124.032 87.726 123.271 86.7932 123.271H86.5968C85.664 123.271 84.903 124.032 84.903 124.965C84.903 125.194 84.723 125.374 84.4939 125.374C83.5692 125.374 82.8164 126.127 82.8164 127.052V127.543Z" fill="white"/>
<path d="M91.1218 139.923H82.2518C82.0227 139.923 81.8427 139.743 81.8427 139.514C81.8427 139.285 82.0227 139.105 82.2518 139.105H91.1218C91.3509 139.105 91.531 139.285 91.531 139.514C91.531 139.743 91.3509 139.923 91.1218 139.923Z" fill="white"/>
<path d="M91.1218 136.11H82.2518C82.0227 136.11 81.8427 135.93 81.8427 135.701C81.8427 135.472 82.0227 135.292 82.2518 135.292H91.1218C91.3509 135.292 91.531 135.472 91.531 135.701C91.531 135.93 91.3509 136.11 91.1218 136.11Z" fill="white"/>
<path d="M91.1218 132.289H82.2518C82.0227 132.289 81.8427 132.109 81.8427 131.88C81.8427 131.65 82.0227 131.47 82.2518 131.47H91.1218C91.3509 131.47 91.531 131.65 91.531 131.88C91.531 132.109 91.3509 132.289 91.1218 132.289Z" fill="white"/>
<path d="M150.912 160.666H76.884C72.3061 160.666 68.595 164.377 68.595 168.955V191.711C68.595 196.289 72.3061 200 76.884 200H150.912C155.49 200 159.201 196.289 159.201 191.711V168.955C159.201 164.377 155.49 160.666 150.912 160.666Z" fill="#0D5263"/>
<path d="M107.471 185.255H106.342V176.573H103.273V175.575H110.531V176.573H107.463V185.255H107.471Z" fill="white"/>
<path d="M116.283 185.255L116.063 184.224H116.013C115.653 184.682 115.293 184.985 114.933 185.149C114.573 185.312 114.123 185.386 113.583 185.386C112.863 185.386 112.299 185.198 111.889 184.83C111.48 184.461 111.276 183.929 111.276 183.25C111.276 181.786 112.446 181.016 114.794 180.943L116.022 180.902V180.452C116.022 179.879 115.899 179.462 115.653 179.192C115.408 178.922 115.015 178.783 114.475 178.783C113.87 178.783 113.182 178.971 112.421 179.339L112.086 178.496C112.446 178.3 112.839 178.152 113.264 178.038C113.69 177.932 114.115 177.874 114.549 177.874C115.416 177.874 116.054 178.062 116.472 178.447C116.889 178.832 117.094 179.445 117.094 180.296V185.247H116.275L116.283 185.255ZM113.804 184.478C114.491 184.478 115.023 184.289 115.416 183.913C115.809 183.537 116.005 183.013 116.005 182.334V181.679L114.909 181.728C114.033 181.761 113.403 181.892 113.019 182.137C112.634 182.375 112.438 182.751 112.438 183.258C112.438 183.659 112.56 183.954 112.798 184.167C113.035 184.371 113.379 184.478 113.804 184.478Z" fill="white"/>
<path d="M124.049 183.275C124.049 183.954 123.795 184.469 123.296 184.838C122.797 185.206 122.085 185.386 121.177 185.386C120.211 185.386 119.467 185.23 118.926 184.928V183.905C119.278 184.085 119.647 184.224 120.047 184.322C120.448 184.42 120.833 184.478 121.201 184.478C121.774 184.478 122.216 184.388 122.527 184.199C122.838 184.019 122.993 183.733 122.993 183.365C122.993 183.078 122.87 182.841 122.625 182.636C122.38 182.432 121.905 182.195 121.193 181.925C120.514 181.671 120.039 181.45 119.753 181.27C119.467 181.082 119.254 180.869 119.115 180.632C118.976 180.394 118.91 180.108 118.91 179.781C118.91 179.192 119.147 178.725 119.63 178.381C120.113 178.038 120.768 177.866 121.61 177.866C122.388 177.866 123.157 178.021 123.901 178.341L123.509 179.232C122.78 178.93 122.118 178.782 121.529 178.782C121.005 178.782 120.612 178.864 120.35 179.028C120.088 179.192 119.949 179.421 119.949 179.707C119.949 179.903 119.998 180.067 120.097 180.206C120.195 180.345 120.358 180.476 120.579 180.599C120.8 180.722 121.226 180.902 121.848 181.139C122.707 181.45 123.288 181.769 123.591 182.088C123.893 182.407 124.041 182.808 124.041 183.283L124.049 183.275Z" fill="white"/>
<path d="M126.921 181.54C127.109 181.27 127.395 180.918 127.788 180.484L130.128 178.005H131.43L128.492 181.098L131.634 185.263H130.3L127.739 181.835L126.913 182.546V185.263H125.824V174.961H126.913V180.427C126.913 180.673 126.896 181.041 126.864 181.556H126.913L126.921 181.54Z" fill="white"/>
<path d="M141.969 177.858C141.969 178.48 141.797 178.979 141.453 179.372C141.11 179.764 140.619 180.026 139.98 180.157V180.206C140.758 180.304 141.331 180.55 141.707 180.951C142.083 181.352 142.272 181.867 142.272 182.514C142.272 183.438 141.952 184.142 141.314 184.641C140.676 185.14 139.768 185.386 138.589 185.386C138.074 185.386 137.607 185.345 137.182 185.271C136.756 185.198 136.339 185.059 135.938 184.862V183.815C136.355 184.019 136.806 184.183 137.28 184.289C137.755 184.396 138.205 184.453 138.63 184.453C140.3 184.453 141.142 183.798 141.142 182.489C141.142 181.319 140.218 180.73 138.377 180.73H137.419V179.781H138.385C139.138 179.781 139.735 179.617 140.177 179.282C140.619 178.946 140.84 178.488 140.84 177.891C140.84 177.416 140.676 177.048 140.357 176.778C140.029 176.508 139.596 176.377 139.039 176.377C138.614 176.377 138.213 176.434 137.845 176.549C137.468 176.663 137.043 176.876 136.56 177.187L136.004 176.442C136.405 176.131 136.855 175.886 137.378 175.706C137.894 175.526 138.442 175.436 139.015 175.436C139.956 175.436 140.684 175.649 141.208 176.082C141.731 176.516 141.993 177.105 141.993 177.85L141.969 177.858Z" fill="white"/>
<path d="M92.5292 190.525H80.8526C79.437 190.525 78.2833 189.248 78.2833 187.669V175.027C78.2833 173.456 79.437 172.171 80.8526 172.171H82.2846C82.5137 172.171 82.6937 172.351 82.6937 172.58C82.6937 172.809 82.5137 172.989 82.2846 172.989H80.8526C79.8871 172.989 79.1015 173.906 79.1015 175.027V187.669C79.1015 188.79 79.8871 189.706 80.8526 189.706H92.5292C93.4948 189.706 94.2803 188.79 94.2803 187.669V175.027C94.2803 173.906 93.4948 172.989 92.5292 172.989H91.2036C90.9745 172.989 90.7945 172.809 90.7945 172.58C90.7945 172.351 90.9745 172.171 91.2036 172.171H92.5292C93.9448 172.171 95.0986 173.447 95.0986 175.027V187.669C95.0986 189.24 93.9448 190.525 92.5292 190.525Z" fill="white"/>
<path d="M90.9827 174.429H82.4073C82.1782 174.429 81.9982 174.249 81.9982 174.02V173.12C81.9982 171.868 82.9146 170.837 84.1175 170.649C84.2975 169.446 85.3449 168.521 86.5968 168.521H86.7932C88.0451 168.521 89.0925 169.446 89.2725 170.649C90.4672 170.829 91.3918 171.868 91.3918 173.12V174.02C91.3918 174.249 91.2118 174.429 90.9827 174.429ZM82.8164 173.611H90.5736V173.12C90.5736 172.195 89.8208 171.442 88.8961 171.442C88.667 171.442 88.487 171.262 88.487 171.033C88.487 170.1 87.726 169.34 86.7932 169.34H86.5968C85.664 169.34 84.903 170.1 84.903 171.033C84.903 171.262 84.723 171.442 84.4939 171.442C83.5692 171.442 82.8164 172.195 82.8164 173.12V173.611Z" fill="white"/>
<path d="M91.1218 185.991H82.2518C82.0227 185.991 81.8427 185.811 81.8427 185.582C81.8427 185.353 82.0227 185.173 82.2518 185.173H91.1218C91.3509 185.173 91.531 185.353 91.531 185.582C91.531 185.811 91.3509 185.991 91.1218 185.991Z" fill="white"/>
<path d="M91.1218 182.178H82.2518C82.0227 182.178 81.8427 181.998 81.8427 181.769C81.8427 181.54 82.0227 181.36 82.2518 181.36H91.1218C91.3509 181.36 91.531 181.54 91.531 181.769C91.531 181.998 91.3509 182.178 91.1218 182.178Z" fill="white"/>
<path d="M91.1218 178.365H82.2518C82.0227 178.365 81.8427 178.185 81.8427 177.956C81.8427 177.727 82.0227 177.547 82.2518 177.547H91.1218C91.3509 177.547 91.531 177.727 91.531 177.956C91.531 178.185 91.3509 178.365 91.1218 178.365Z" fill="white"/>
<path fill-rule="evenodd" clip-rule="evenodd" d="M68.8078 136.936C63.6282 132.215 59.0623 129.024 58.604 124.605C58.1458 120.187 56.0183 111.357 54.6436 109.385C53.269 107.413 65.9111 106.947 67.1303 111.668C68.3496 116.39 68.8078 136.936 68.8078 136.936Z" fill="#751C48"/>
<path fill-rule="evenodd" clip-rule="evenodd" d="M30.8976 35.848C27.8782 46.0681 42.9425 82.62 44.939 89.698C46.4855 95.1967 50.9287 66.6393 52.5243 47.1155C52.9825 41.4859 49.9959 39.8166 50.5932 35.9708C53.2689 18.7872 52.0497 15.997 54.1281 12.8057C56.2147 9.6145 33.7288 26.2416 30.8976 35.8399V35.848Z" fill="#751C48"/>
<path fill-rule="evenodd" clip-rule="evenodd" d="M84.4693 109.59C81.54 110.269 78.4633 109.672 75.8858 108.125C73.4964 106.693 72.8173 106.521 70.8698 107.634C68.3086 109.091 71.9663 125.358 72.6045 132.354C73.2428 139.35 70.117 143.687 69.6015 141.969C68.7259 139.039 66.9994 128.32 64.0864 124.18C61.1816 120.047 47.7211 105.294 45.1436 95.4585C43.5071 89.207 35.0135 60.9687 35.3244 61.4269C40.5613 69.2822 50.5687 54.979 52.377 45.4462C54.3327 35.1361 55.5028 11.251 53.0153 19.9818C50.5278 28.7127 54.8891 80.1897 61.1816 86.8258C66.0911 92.0054 70.8616 94.1574 74.2001 97.8314C77.8987 101.898 83.111 104.296 88.6016 104.508C88.7898 104.508 88.9452 104.517 89.0598 104.517C90.1235 104.517 89.7144 108.387 84.4693 109.606V109.59Z" fill="#E44460"/>
<path fill-rule="evenodd" clip-rule="evenodd" d="M144.432 115.015C147.402 119.008 152.541 129.4 155.053 130.775C157.565 132.15 158.481 131.806 159.046 131.806C159.61 131.806 150.593 112.855 149.227 108.174C147.86 103.494 144.432 115.023 144.432 115.023V115.015Z" fill="#751C48"/>
<path fill-rule="evenodd" clip-rule="evenodd" d="M147.754 109.582C150.929 113.059 156.755 122.355 159.242 123.402C161.73 124.45 162.548 124.032 163.08 123.975C163.612 123.918 153.302 106.922 151.559 102.643C149.816 98.3633 147.754 109.574 147.754 109.574V109.582Z" fill="#751C48"/>
<path fill-rule="evenodd" clip-rule="evenodd" d="M144.415 22.854C151.051 31.1921 150.806 70.7306 151.616 78.0377C152.238 83.7165 137.411 58.9149 128.606 41.4122C126.07 36.3636 128.214 33.696 126.209 30.3575C117.282 15.4324 117.364 12.3884 114.238 10.2119C111.104 8.03527 138.188 15.0151 144.415 22.8458V22.854Z" fill="#751C48"/>
<path fill-rule="evenodd" clip-rule="evenodd" d="M122.437 111.317C125.407 110.85 128.034 109.132 129.85 106.734C131.528 104.509 132.092 104.099 134.318 104.394C137.231 104.779 139.948 121.234 141.985 127.96C144.023 134.686 148.539 137.526 148.376 135.75C148.089 132.706 145.667 122.118 146.813 117.192C147.958 112.266 154.897 93.5439 153.596 83.4547C152.77 77.0395 150.037 47.6884 149.93 48.2202C148.024 57.4584 133.385 47.9666 128.124 39.8003C122.445 30.9794 112.397 9.27089 117.977 16.4307C123.558 23.5905 138.835 72.94 135.488 81.4499C132.878 88.0942 129.269 91.8746 127.551 96.5387C125.644 101.694 121.717 105.875 116.709 108.134C116.537 108.215 116.39 108.273 116.283 108.314C115.293 108.714 117.126 112.143 122.445 111.308L122.437 111.317Z" fill="#E44460"/>
<path d="M151.035 0H8.28901C3.71112 0 0 3.71112 0 8.28901V37.3046C0 41.8825 3.71112 45.5937 8.28901 45.5937H151.035C155.613 45.5937 159.324 41.8825 159.324 37.3046V8.28901C159.324 3.71112 155.613 0 151.035 0Z" fill="#188C7C"/>
<path d="M39.2357 13.0185H17.4945C17.2653 13.0185 17.0853 12.8384 17.0853 12.6093C17.0853 12.3802 17.2653 12.2002 17.4945 12.2002H39.2357C39.4648 12.2002 39.6449 12.3802 39.6449 12.6093C39.6449 12.8384 39.4648 13.0185 39.2357 13.0185Z" fill="white"/>
<path d="M41.4041 34.9806H15.2361C13.6323 34.9806 12.3312 33.6795 12.3312 32.0757C12.3312 32.0103 12.3312 31.953 12.3476 31.8957C12.3476 31.8794 12.3476 31.863 12.3476 31.8466C12.3476 31.6175 12.5194 31.4375 12.7486 31.4375H12.7731C12.8877 31.4375 13.0022 31.4866 13.0759 31.5684C13.1495 31.6503 13.1904 31.7648 13.1822 31.8794C13.1822 31.8794 13.174 31.9694 13.174 31.9776C13.174 32.0103 13.1659 32.043 13.1659 32.0757C13.1659 33.2295 14.0987 34.1623 15.2524 34.1623H41.4205C42.5743 34.1623 43.5071 33.2295 43.5071 32.0757C43.5071 32.043 43.5071 32.0103 43.4989 31.9776C43.4989 31.9776 43.4907 31.8875 43.4907 31.8794C43.4825 31.7648 43.5153 31.6503 43.5971 31.5684C43.8262 31.3148 44.3172 31.503 44.3172 31.8466C44.3172 31.863 44.3172 31.8794 44.3172 31.8957C44.3253 31.9776 44.3335 32.0267 44.3335 32.0757C44.3335 33.6795 43.0325 34.9806 41.4287 34.9806H41.4041Z" fill="white"/>
<path d="M12.7649 32.2559C12.5358 32.2559 12.3312 32.0758 12.3312 31.8467V12.6093C12.3312 12.6093 12.3312 12.5848 12.3312 12.5684C12.3312 12.5521 12.3312 12.5357 12.3312 12.5193C12.3312 10.9155 13.6323 9.6145 15.2361 9.6145H17.2981C17.5272 9.6145 17.7072 9.79452 17.7072 10.0236V29.5801C17.7072 29.8093 17.5272 29.9893 17.2981 29.9893H15.2361C14.156 29.9893 13.2722 30.8075 13.174 31.8876C13.1577 32.1004 12.9777 32.2559 12.7649 32.2559ZM13.1495 12.6093V30.0629C13.6732 29.5147 14.4178 29.1792 15.2361 29.1792H16.889V10.4328H15.2361C14.0823 10.4328 13.1495 11.3656 13.1495 12.5193C13.1495 12.5439 13.1495 12.5766 13.1495 12.6012V12.6093Z" fill="white"/>
<path d="M43.8998 32.2559C43.6871 32.2559 43.4907 32.0922 43.4662 31.8876C43.368 30.8075 42.4761 29.9893 41.4041 29.9893H39.3421C39.113 29.9893 38.933 29.8093 38.933 29.5801V10.0236C38.933 9.79452 39.113 9.6145 39.3421 9.6145H41.4041C43.0079 9.6145 44.309 10.9155 44.309 12.5193C44.309 12.5275 44.309 12.5439 44.309 12.5603C44.309 12.5766 44.309 12.593 44.309 12.6012V31.8385C44.309 32.0677 44.129 32.2477 43.8998 32.2477V32.2559ZM39.7512 29.171H41.4041C42.2224 29.171 42.967 29.5065 43.4907 30.0547V12.683C43.4907 12.683 43.4825 12.6257 43.4825 12.593C43.4825 12.5766 43.4825 12.5193 43.4907 12.503C43.4907 11.3574 42.5497 10.4328 41.4041 10.4328H39.7512V29.171Z" fill="white"/>
<path d="M24.327 30.9958C24.2533 30.9958 24.1797 30.9713 24.1142 30.9304C23.9915 30.8567 23.9178 30.7176 23.9178 30.5703L23.9997 26.7572C23.9997 26.4299 24.106 26.1108 24.2779 25.8326L30.0712 16.7253C30.3412 16.2998 30.8076 16.0461 31.315 16.0461H32.616C33.197 16.0461 33.7206 16.3898 33.9579 16.9217L34.4571 18.0509C34.6616 18.5009 34.6207 19.0164 34.3507 19.4338L28.541 28.5656C28.3692 28.8274 28.1319 29.0484 27.8537 29.1956L24.507 30.9467C24.4497 30.9795 24.3843 30.9958 24.3188 30.9958H24.327ZM31.315 16.8726C31.094 16.8726 30.8813 16.9871 30.7667 17.1753L24.9734 26.2826C24.8752 26.4381 24.8261 26.6099 24.8179 26.7899L24.7525 29.9075L27.4855 28.4756C27.6409 28.3937 27.7637 28.2792 27.8619 28.1319L33.6716 19.0001C33.7861 18.8119 33.8107 18.5828 33.7206 18.3864L33.2215 17.2572C33.1151 17.0199 32.886 16.8726 32.6242 16.8726H31.3231H31.315Z" fill="white"/>
<path d="M27.06 26.5853C26.9863 26.5853 26.9045 26.5608 26.839 26.5198C26.6508 26.3971 26.5935 26.1434 26.7163 25.9552L32.6323 16.6598C32.7551 16.4716 33.0087 16.4143 33.1969 16.537C33.3851 16.6598 33.4424 16.9134 33.3197 17.1016L27.4036 26.3971C27.3218 26.5198 27.1909 26.5853 27.06 26.5853Z" fill="white"/>
<path d="M27.8946 28.8191C27.731 28.8191 27.5755 28.7209 27.5182 28.5654L27.0273 27.3298C26.8718 26.9371 26.4954 26.6916 26.0617 26.7161L24.7116 26.7898C24.4825 26.8062 24.2943 26.6261 24.2779 26.4052C24.2615 26.1761 24.4415 25.9879 24.6625 25.9715L26.0126 25.8979C26.7981 25.8488 27.4937 26.307 27.7801 27.0271L28.271 28.2627C28.3528 28.4754 28.2547 28.7127 28.0419 28.7945C27.9928 28.8109 27.9437 28.8273 27.8864 28.8273L27.8946 28.8191Z" fill="white"/>
<path d="M62.8099 28.5003H61.517L59.2505 20.9886C59.1441 20.6531 59.0213 20.2358 58.8904 19.7285C58.7595 19.2211 58.6859 18.9184 58.6859 18.812C58.5713 19.4912 58.3913 20.2276 58.1458 21.0295L55.9529 28.5003H54.66L51.6733 17.2819H53.0562L54.8318 24.2126C55.0773 25.1863 55.2573 26.0618 55.3719 26.8555C55.511 25.9227 55.7156 25.0063 55.9856 24.1062L57.9985 17.2819H59.3814L61.4925 24.1635C61.738 24.9572 61.9425 25.8491 62.1144 26.8474C62.2126 26.1191 62.3926 25.2354 62.6708 24.188L64.4383 17.2737H65.8211L62.8181 28.4921L62.8099 28.5003Z" fill="white"/>
<path d="M74.642 24.2861C74.642 25.6608 74.2983 26.7246 73.6028 27.4937C72.9155 28.2629 71.9581 28.6475 70.7389 28.6475C69.9861 28.6475 69.3151 28.4675 68.7342 28.1156C68.1532 27.7638 67.7031 27.2564 67.384 26.5937C67.0649 25.9309 66.9094 25.1617 66.9094 24.278C66.9094 22.9033 67.2531 21.8395 67.9404 21.0704C68.6278 20.3012 69.577 19.9248 70.7962 19.9248C72.0154 19.9248 72.9073 20.3176 73.6028 21.1031C74.2983 21.8886 74.642 22.9442 74.642 24.278V24.2861ZM68.235 24.2861C68.235 25.3581 68.4478 26.1763 68.8814 26.7409C69.3151 27.3055 69.9452 27.5838 70.7798 27.5838C71.6144 27.5838 72.2445 27.3055 72.6782 26.7409C73.1119 26.1763 73.3246 25.3581 73.3246 24.278C73.3246 23.1979 73.1119 22.396 72.6782 21.8395C72.2445 21.2831 71.6063 21.0049 70.7635 21.0049C69.9206 21.0049 69.2988 21.2749 68.8733 21.8232C68.4478 22.3714 68.235 23.1897 68.235 24.2698V24.2861Z" fill="white"/>
<path d="M80.7053 19.9331C81.0817 19.9331 81.4172 19.9658 81.7118 20.0231L81.54 21.2014C81.1881 21.1278 80.8853 21.0869 80.6153 21.0869C79.9362 21.0869 79.3552 21.3651 78.8724 21.9133C78.3896 22.4615 78.1442 23.1571 78.1442 23.9753V28.484H76.8677V20.0722H77.9232L78.0705 21.6269H78.1278C78.4387 21.0787 78.8151 20.6614 79.257 20.3586C79.6989 20.0559 80.1816 19.9167 80.7053 19.9167V19.9331Z" fill="white"/>
<path d="M84.543 24.1962C84.7639 23.8852 85.0994 23.4761 85.5495 22.9688L88.2661 20.0885H89.7799L86.3759 23.6725L90.0254 28.5002H88.487L85.5167 24.5235L84.5594 25.3499V28.5002H83.2993V16.5618H84.5594V22.8951C84.5594 23.1733 84.543 23.6152 84.5021 24.1962H84.5594H84.543Z" fill="white"/>
<path d="M95.4504 28.6557C94.9022 28.6557 94.403 28.5575 93.953 28.3529C93.503 28.1483 93.1184 27.8374 92.8156 27.4201H92.7256C92.7911 27.911 92.8156 28.3775 92.8156 28.8193V32.2806H91.5391V20.0966H92.5783L92.7583 21.2504H92.8238C93.1511 20.7922 93.5357 20.4567 93.9694 20.2521C94.403 20.0475 94.9022 19.9412 95.4668 19.9412C96.5796 19.9412 97.447 20.3257 98.0525 21.0867C98.658 21.8477 98.9608 22.9196 98.9608 24.2943C98.9608 25.669 98.6498 26.7491 98.0361 27.5101C97.4224 28.2711 96.5633 28.6557 95.4668 28.6557H95.4504ZM95.2704 21.0213C94.4112 21.0213 93.7893 21.2586 93.4048 21.7332C93.0202 22.2078 92.8238 22.9687 92.8156 24.0079V24.2943C92.8156 25.4726 93.012 26.3236 93.4048 26.8309C93.7975 27.3383 94.4276 27.5919 95.3031 27.5919C96.0314 27.5919 96.596 27.2974 97.0133 26.7082C97.4224 26.1191 97.627 25.309 97.627 24.278C97.627 23.2469 97.4224 22.4287 97.0133 21.8641C96.6042 21.2995 96.0232 21.0213 95.2786 21.0213H95.2704Z" fill="white"/>
<path d="M102.447 28.5002H101.17V16.5618H102.447V28.5002Z" fill="white"/>
<path d="M110.318 28.5003L110.065 27.3057H110.007C109.59 27.8293 109.173 28.1894 108.755 28.3776C108.338 28.5658 107.814 28.6558 107.193 28.6558C106.358 28.6558 105.703 28.443 105.229 28.0094C104.754 27.5757 104.517 26.9702 104.517 26.1764C104.517 24.4745 105.875 23.5907 108.592 23.5089L110.024 23.4598V22.9361C110.024 22.2733 109.885 21.7906 109.598 21.4714C109.312 21.1605 108.862 20.9968 108.232 20.9968C107.528 20.9968 106.734 21.2096 105.851 21.6433L105.458 20.6695C105.875 20.4486 106.325 20.2686 106.824 20.1377C107.323 20.0067 107.814 19.9495 108.305 19.9495C109.312 19.9495 110.048 20.1704 110.531 20.6204C111.014 21.0623 111.259 21.7824 111.259 22.7643V28.5085H110.318V28.5003ZM107.438 27.6002C108.232 27.6002 108.854 27.3793 109.304 26.9456C109.754 26.5119 109.983 25.8982 109.983 25.1209V24.3599L108.706 24.4172C107.692 24.4499 106.963 24.6136 106.513 24.8918C106.063 25.17 105.842 25.6037 105.842 26.1928C105.842 26.651 105.981 27.0029 106.26 27.2484C106.538 27.4939 106.931 27.6084 107.43 27.6084L107.438 27.6002Z" fill="white"/>
<path d="M117.249 28.6558C116.03 28.6558 115.089 28.2794 114.418 27.5348C113.747 26.782 113.419 25.7264 113.419 24.3517C113.419 22.977 113.763 21.856 114.434 21.0869C115.105 20.3177 116.079 19.9331 117.331 19.9331C117.732 19.9331 118.141 19.974 118.542 20.064C118.943 20.154 119.262 20.2522 119.491 20.375L119.098 21.4551C118.82 21.3405 118.509 21.2505 118.182 21.1769C117.846 21.1032 117.552 21.0623 117.298 21.0623C115.588 21.0623 114.737 22.1506 114.737 24.3354C114.737 25.3664 114.941 26.1601 115.359 26.7165C115.776 27.2729 116.39 27.543 117.208 27.543C117.912 27.543 118.632 27.3957 119.368 27.0929V28.2221C118.804 28.5167 118.1 28.6558 117.241 28.6558H117.249Z" fill="white"/>
<path d="M124.924 28.6557C123.681 28.6557 122.699 28.2793 121.979 27.5183C121.258 26.7573 120.898 25.7099 120.898 24.368C120.898 23.026 121.234 21.9377 121.897 21.1358C122.568 20.3339 123.46 19.9412 124.589 19.9412C125.644 19.9412 126.479 20.2848 127.093 20.9804C127.706 21.6759 128.009 22.5842 128.009 23.7215V24.5234H122.216C122.24 25.5135 122.494 26.2582 122.969 26.7737C123.443 27.2892 124.106 27.5428 124.965 27.5428C125.873 27.5428 126.765 27.3546 127.649 26.9782V28.1156C127.199 28.312 126.774 28.4511 126.373 28.5329C125.972 28.6148 125.489 28.6557 124.916 28.6557H124.924ZM124.581 21.0049C123.901 21.0049 123.37 21.2258 122.969 21.6677C122.568 22.1096 122.33 22.7151 122.257 23.4924H126.651C126.651 22.6905 126.471 22.0768 126.111 21.6432C125.751 21.2177 125.243 21.0049 124.572 21.0049H124.581Z" fill="white"/>
<path d="M138.401 28.5001H137.157V20.5057C137.157 19.8429 137.182 19.2128 137.223 18.6155C137.116 18.7219 136.994 18.8364 136.863 18.951C136.732 19.0656 136.118 19.5647 135.038 20.4484L134.359 19.5729L137.329 17.2817H138.401V28.5001Z" fill="white"/>
</g>
<defs>
<clipPath id="clip0_56_9009">
<rect width="163.096" height="200" fill="white"/>
</clipPath>
</defs>
</svg>
