<svg width="142" height="200" viewBox="0 0 142 200" fill="none" xmlns="http://www.w3.org/2000/svg">
<g clip-path="url(#clip0_56_9516)">
<path d="M73.9212 106.378C103.297 106.378 127.11 82.5642 127.11 53.1888C127.11 23.8134 103.297 0 73.9212 0C44.5459 0 20.7324 23.8134 20.7324 53.1888C20.7324 82.5642 44.5459 106.378 73.9212 106.378Z" fill="#E64460"/>
<path d="M123.806 187.406C133.575 187.406 141.493 179.487 141.493 169.719C141.493 159.951 133.575 152.032 123.806 152.032C114.038 152.032 106.12 159.951 106.12 169.719C106.12 179.487 114.038 187.406 123.806 187.406Z" fill="white"/>
<path fill-rule="evenodd" clip-rule="evenodd" d="M116.127 181.508C115.056 182.152 113.855 182.458 112.647 183.441C115.692 185.923 119.576 187.414 123.815 187.414C130.027 187.414 135.482 184.207 138.641 179.364C129.729 176.463 122.92 177.495 116.136 181.508H116.127Z" fill="#E64460"/>
<path fill-rule="evenodd" clip-rule="evenodd" d="M116.941 163.966C113.364 170.009 114.959 173.321 117.57 174.465C121.446 175.722 120.261 180.081 120.221 183.046C120.245 185.432 120.97 183.417 129.125 177.664C129.125 177.664 128.182 176.939 128.295 174.393C128.415 171.846 129.818 167.181 128.117 163.329C126.393 159.574 119.246 159.945 116.925 163.966H116.941Z" fill="#751C48"/>
<path fill-rule="evenodd" clip-rule="evenodd" d="M125.99 167.1C125.99 167.1 130.575 168.091 127.247 171.121C123.823 174.127 128.44 176.415 128.44 176.415C128.44 176.415 134.37 172.128 131.663 166.593C134.789 161.001 127.666 162.274 125.708 159.01C123.178 154.796 117.094 156.126 115.571 159.317C113.815 163.096 116.482 164.933 116.506 164.836C118.303 161.275 119.915 162.217 121.905 162.58C127.811 163.442 125.998 167.1 125.998 167.1H125.99Z" fill="#E64460"/>
<path d="M71.5523 200C81.3204 200 89.2389 192.081 89.2389 182.313C89.2389 172.545 81.3204 164.627 71.5523 164.627C61.7842 164.627 53.8657 172.545 53.8657 182.313C53.8657 192.081 61.7842 200 71.5523 200Z" fill="white"/>
<path fill-rule="evenodd" clip-rule="evenodd" d="M64.518 187.744C60.4408 185.811 57.1613 182.217 61.6172 176.899C66.0731 171.581 69.0544 170.058 73.3492 170.219C80.7461 170.396 84.9764 179.743 83.099 185.383C81.2216 191.024 65.646 188.284 64.518 187.744Z" fill="#751C48"/>
<path fill-rule="evenodd" clip-rule="evenodd" d="M84.9039 193.9C82.3416 192.474 79.6422 191.596 77.3458 191.789C69.6668 192.49 67.4107 192.007 65.1626 191.628C62.9064 191.249 60.9726 189.533 56.5167 191.572C56.5086 191.572 56.5006 191.58 56.4844 191.588C59.6028 196.632 65.1787 200 71.5443 200C76.8785 200 81.6567 197.639 84.9039 193.9Z" fill="#751C48"/>
<path fill-rule="evenodd" clip-rule="evenodd" d="M63.9297 191.314C66.4518 187.664 66.9916 183.208 65.1142 181.757C61.7864 179.235 64.6307 175.641 66.7257 176.278C70.2147 177.406 67.7491 171.717 72.7932 172.201C77.8937 172.684 80.7945 177.624 78.909 182.08C77.0235 186.535 75.2588 184.924 75.3152 188.195C75.3152 189.267 75.3152 191.418 76.0162 192.595C77.3619 195.117 79.5052 195.278 77.2491 195.979C73.9212 197.002 70.4323 196.197 68.015 194.15C65.5493 192.111 63.825 191.467 63.9378 191.306L63.9297 191.314Z" fill="#E64460"/>
<path d="M17.6866 187.406C27.4547 187.406 35.3733 179.487 35.3733 169.719C35.3733 159.951 27.4547 152.032 17.6866 152.032C7.91858 152.032 0 159.951 0 169.719C0 179.487 7.91858 187.406 17.6866 187.406Z" fill="white"/>
<path fill-rule="evenodd" clip-rule="evenodd" d="M18.9356 173.24C18.8792 175.19 19.129 180.363 20.9822 182.853C22.8355 185.343 8.75873 178.873 8.75873 178.873C8.75873 178.873 10.6201 172.306 11.3291 167.197C12.0382 162.097 10.9101 156.891 17.9364 156.803C24.9869 156.77 29.8457 157.359 28.6935 161.549C27.5412 165.739 26.5743 166.206 23.5929 168.962C20.6761 171.701 19.0001 171.274 18.9356 173.232V173.24Z" fill="#751C48"/>
<path fill-rule="evenodd" clip-rule="evenodd" d="M11.6111 167.044C11.6111 167.044 12.1832 176.036 19.3546 178.687C19.3546 178.687 19.5802 181.072 21.4093 183.103C23.3028 185.117 24.721 186.157 24.721 186.157C24.721 186.157 9.78203 179.122 9.01655 178.848C8.19466 178.599 5.67261 180.533 5.67261 180.533L11.6111 167.036V167.044Z" fill="#E64460"/>
<path fill-rule="evenodd" clip-rule="evenodd" d="M14.2541 163.337C14.2541 163.337 9.90293 161.911 9.72566 164.296C9.53228 166.826 11.1519 167.471 11.6595 168.357C13.1582 170.968 14.8181 173.861 18.5488 174.642C22.2795 175.424 24.6807 172.926 25.6315 166.609C26.5662 160.227 17.9284 154.683 14.2541 163.337Z" fill="#E64460"/>
<path fill-rule="evenodd" clip-rule="evenodd" d="M6.37364 177.334C5.55175 178.325 4.63318 179.397 3.7146 180.557C6.95379 184.723 12.006 187.406 17.6866 187.406C20.7486 187.406 23.6252 186.632 26.1311 185.263C25.0755 184.223 23.9072 183.264 22.3843 182.265C18.3957 179.582 8.69425 174.602 6.36558 177.334H6.37364Z" fill="#751C48"/>
<path d="M74.3403 91.7529C95.9057 91.7529 113.388 74.2707 113.388 52.7053C113.388 31.1399 95.9057 13.6577 74.3403 13.6577C52.7749 13.6577 35.2927 31.1399 35.2927 52.7053C35.2927 74.2707 52.7749 91.7529 74.3403 91.7529Z" fill="#B51C48"/>
<path d="M56.6456 54.3651C56.4199 54.3651 56.2427 54.1879 56.2427 53.9622C56.2427 44.3252 64.0828 36.4771 73.7279 36.4771C76.5561 36.4771 79.3683 37.17 81.85 38.4754C82.0515 38.5801 82.124 38.8218 82.0192 39.0233C81.9145 39.2247 81.6728 39.2972 81.4794 39.1925C79.1104 37.9435 76.4272 37.2828 73.7279 37.2828C64.534 37.2828 57.0484 44.7684 57.0484 53.9622C57.0484 54.1879 56.8712 54.3651 56.6456 54.3651Z" fill="white"/>
<path d="M77.9259 41.7227C77.7809 41.7227 77.6439 41.6421 77.5714 41.5132C77.4666 41.3198 77.5391 41.07 77.7406 40.9653L81.8581 38.7655L79.4005 34.7931C79.2796 34.6078 79.3441 34.358 79.5294 34.2371C79.7147 34.1162 79.9645 34.1807 80.0854 34.366L82.9942 39.0637L78.1193 41.6663C78.0629 41.6985 77.9904 41.7146 77.9259 41.7146V41.7227Z" fill="white"/>
<path d="M73.7198 71.4476C70.2953 71.4476 66.9755 70.4566 64.1311 68.5872C63.9458 68.4663 63.8975 68.2165 64.0183 68.0312C64.1392 67.8459 64.389 67.7975 64.5743 67.9184C67.2897 69.7072 70.4564 70.6499 73.7198 70.6499C82.9136 70.6499 90.3992 63.1643 90.3992 53.9705C90.3992 53.7449 90.5765 53.5676 90.8021 53.5676C91.0277 53.5676 91.205 53.7449 91.205 53.9705C91.205 63.6075 83.3648 71.4557 73.7198 71.4557V71.4476Z" fill="white"/>
<path d="M65.0417 73.035C64.8644 73.035 64.7033 72.9141 64.6549 72.7369L63.2045 67.4027L68.6193 66.2907C68.8369 66.2504 69.0544 66.3874 69.0947 66.605C69.135 66.8225 68.998 67.0401 68.7805 67.0804L64.2037 68.0151L65.4284 72.5193C65.4849 72.7369 65.364 72.9544 65.1464 73.0108C65.1142 73.0189 65.0739 73.0269 65.0417 73.0269V73.035Z" fill="white"/>
<path d="M73.7198 65.5574C73.1397 65.5574 72.5998 65.3318 72.1889 64.9208L62.8097 55.5417C61.9637 54.6956 61.9637 53.3258 62.8097 52.4798L72.1889 43.1006C73.0027 42.2868 74.437 42.2868 75.2508 43.1006L84.6299 52.4798C85.476 53.3258 85.476 54.6956 84.6299 55.5417L75.2508 64.9208C74.8399 65.3318 74.3 65.5574 73.7198 65.5574ZM73.7198 43.2779C73.3572 43.2779 73.0188 43.4229 72.761 43.6727L63.3818 53.0519C62.85 53.5837 62.85 54.4458 63.3818 54.9696L72.761 64.3487C73.2767 64.8644 74.1711 64.8644 74.6787 64.3487L84.0579 54.9696C84.5897 54.4378 84.5897 53.5756 84.0579 53.0519L74.6787 43.6727C74.4209 43.4149 74.0824 43.2779 73.7198 43.2779Z" fill="white"/>
<path d="M76.4917 57.9349H70.948C70.3114 57.9349 69.7957 57.4192 69.7957 56.7826V51.2389C69.7957 50.6024 70.3114 50.0867 70.948 50.0867H76.4917C77.1282 50.0867 77.6439 50.6024 77.6439 51.2389V56.7826C77.6439 57.4192 77.1282 57.9349 76.4917 57.9349ZM70.948 50.8924C70.7546 50.8924 70.6015 51.0455 70.6015 51.2389V56.7826C70.6015 56.976 70.7546 57.1291 70.948 57.1291H76.4917C76.685 57.1291 76.8381 56.976 76.8381 56.7826V51.2389C76.8381 51.0455 76.685 50.8924 76.4917 50.8924H70.948Z" fill="white"/>
<path d="M32.674 140.986L31.9166 140.72L33.23 136.989L33.9874 137.255L32.674 140.986ZM35.333 133.46L34.5756 133.194L35.9212 129.399L36.6787 129.664L35.333 133.46ZM38.0162 125.861L37.2588 125.595L38.6044 121.8L39.3619 122.066L38.0162 125.861ZM40.6994 118.263L39.942 117.997L41.2877 114.202L42.0451 114.468L40.6994 118.263ZM43.3827 110.664L42.6252 110.399L43.9709 106.603L44.7283 106.869L43.3827 110.664ZM46.0659 103.066L45.3084 102.8L46.6541 99.0049L47.4115 99.2708L46.0659 103.066ZM48.7491 95.4676L47.9917 95.2017L49.3373 91.4065L50.0947 91.6724L48.7491 95.4676ZM51.4323 87.8692L50.6749 87.6033L52.0205 83.8081L52.7779 84.074L51.4323 87.8692ZM54.1155 80.2708L53.3581 80.0049L54.7037 76.2097L55.4611 76.4756L54.1155 80.2708ZM56.7987 72.6724L56.0413 72.4065L57.3869 68.6113L58.1444 68.8772L56.7987 72.6724Z" fill="#B51C48"/>
<path d="M27.8555 133.621L29.3381 132.984L32.4967 140.268L39.5391 136.586L40.2804 138.012L31.707 142.5L27.8555 133.621Z" fill="#B51C48"/>
<path d="M112.123 140.986L110.809 137.255L111.567 136.989L112.88 140.72L112.123 140.986ZM109.464 133.46L108.118 129.664L108.876 129.399L110.221 133.194L109.464 133.46ZM106.781 125.861L105.435 122.066L106.192 121.8L107.538 125.595L106.781 125.861ZM104.097 118.263L102.752 114.468L103.509 114.202L104.855 117.997L104.097 118.263ZM101.414 110.664L100.068 106.869L100.826 106.603L102.172 110.399L101.414 110.664ZM98.7309 103.066L97.3853 99.2708L98.1427 99.0049L99.4883 102.8L98.7309 103.066ZM96.0477 95.4676L94.702 91.6724L95.4595 91.4065L96.8051 95.2017L96.0477 95.4676ZM93.3645 87.8692L92.0188 84.074L92.7763 83.8081L94.1219 87.6033L93.3645 87.8692ZM90.6813 80.2708L89.3356 76.4756L90.093 76.2097L91.4387 80.0049L90.6813 80.2708ZM87.998 72.6724L86.6524 68.8772L87.4098 68.6113L88.7555 72.4065L87.998 72.6724Z" fill="#B51C48"/>
<path d="M104.508 138.012L105.25 136.586L112.292 140.268L115.451 132.984L116.933 133.621L113.082 142.5L104.508 138.012Z" fill="#B51C48"/>
<path d="M73.47 152.443H72.6642V149.809H73.47V152.443ZM73.47 145.78H72.6642V141.751H73.47V145.78ZM73.47 137.722H72.6642V133.693H73.47V137.722ZM73.47 129.664H72.6642V125.635H73.47V129.664ZM73.47 121.607H72.6642V117.578H73.47V121.607ZM73.47 113.549H72.6642V109.52H73.47V113.549ZM73.47 105.491H72.6642V101.462H73.47V105.491ZM73.47 97.4335H72.6642V93.4047H73.47V97.4335ZM73.47 89.3758H72.6642V85.347H73.47V89.3758ZM73.47 81.3182H72.6642V77.2893H73.47V81.3182Z" fill="#B51C48"/>
<path d="M66.476 147.109L67.6604 146.005L73.0671 151.831L78.4819 146.005L79.6583 147.109L73.0671 154.192L66.476 147.109Z" fill="#B51C48"/>
</g>
<defs>
<clipPath id="clip0_56_9516">
<rect width="141.501" height="200" fill="white"/>
</clipPath>
</defs>
</svg>
