<svg width="18" height="22" viewBox="0 0 18 22" fill="none" xmlns="http://www.w3.org/2000/svg">
<g clip-path="url(#clip0_2810_4531)">
<path d="M14.1313 0.73999H4.40135C2.73345 0.73999 1.38135 2.09209 1.38135 3.75999V18.24C1.38135 19.9079 2.73345 21.26 4.40135 21.26H14.1313C15.7992 21.26 17.1513 19.9079 17.1513 18.24V3.75999C17.1513 2.09209 15.7992 0.73999 14.1313 0.73999Z" stroke="white" stroke-linecap="round" stroke-linejoin="round"/>
<path d="M4.32137 7.80004L4.15137 7.59004C7.11137 3.81004 11.2314 3.80004 14.2114 7.57004L14.3814 7.78004C11.4214 11.56 7.30137 11.57 4.32137 7.80004V7.80004Z" stroke="white" stroke-linecap="round" stroke-linejoin="round"/>
<path d="M9.26119 9.46989C10.2498 9.46989 11.0512 8.66848 11.0512 7.67989C11.0512 6.6913 10.2498 5.88989 9.26119 5.88989C8.2726 5.88989 7.47119 6.6913 7.47119 7.67989C7.47119 8.66848 8.2726 9.46989 9.26119 9.46989Z" fill="white"/>
<path d="M4.52148 14.47H14.0115" stroke="white" stroke-linecap="round" stroke-linejoin="round"/>
<path d="M4.61133 17.54H10.7513" stroke="white" stroke-linecap="round" stroke-linejoin="round"/>
</g>
<defs>
<clipPath id="clip0_2810_4531">
<rect width="16.77" height="21.52" fill="white" transform="translate(0.881348 0.23999)"/>
</clipPath>
</defs>
</svg>
