<svg width="47" height="60" viewBox="0 0 47 60" fill="none" xmlns="http://www.w3.org/2000/svg">
<g clip-path="url(#clip0_1997_8586)">
<g clip-path="url(#clip1_1997_8586)">
<path d="M35.1801 11.7466H38.7812C41.9945 11.7466 44.6261 14.7106 44.6261 18.3394V52.5222C44.6261 56.1787 42.0222 59.115 38.7812 59.115H7.22995C4.01665 59.115 1.38507 56.151 1.38507 52.5222V18.3394C1.38507 14.6829 3.98895 11.7466 7.22995 11.7466H11.1081" stroke="#C94B32" stroke-linecap="round" stroke-linejoin="round"/>
<path d="M28.9474 7.56392C28.9474 4.43373 26.3989 1.88525 23.2687 1.88525H22.7147C19.5845 1.88525 17.036 4.43373 17.036 7.56392C13.9058 7.56392 11.3851 10.0847 11.3851 13.2149V15.6526H34.5984V13.2149C34.5984 10.0847 32.0776 7.56392 28.9474 7.56392Z" stroke="#C94B32" stroke-linecap="round" stroke-linejoin="round"/>
<path d="M11.0249 46.8711H34.9861" stroke="#C94B32" stroke-linecap="round" stroke-linejoin="round"/>
<path d="M11.0249 36.5664H34.9861" stroke="#C94B32" stroke-linecap="round" stroke-linejoin="round"/>
<path d="M11.0249 26.2617H34.9861" stroke="#C94B32" stroke-linecap="round" stroke-linejoin="round"/>
</g>
</g>
<defs>
<clipPath id="clip0_1997_8586">
<rect width="45.9834" height="60" fill="white" transform="translate(0.508301)"/>
</clipPath>
<clipPath id="clip1_1997_8586">
<rect width="45.9834" height="60" fill="white" transform="translate(0 0.5)"/>
</clipPath>
</defs>
</svg>
