<svg width="1056" height="448" viewBox="0 0 1056 448" fill="none" xmlns="http://www.w3.org/2000/svg">
<rect x="12.2881" y="354" width="53" height="21" rx="10.5" transform="rotate(35.8139 12.2881 354)" fill="#FF8200"/>
<rect x="910.496" y="27.5125" width="53" height="21" rx="10.5" transform="rotate(-174.186 910.496 27.5125)" fill="#1A395F"/>
<rect x="784.373" y="97.8805" width="53" height="21" rx="10.5" transform="rotate(135.121 784.373 97.8805)" fill="#188C7C"/>
<rect x="94.2217" y="46.6722" width="53" height="21" rx="10.5" transform="rotate(-49.1384 94.2217 46.6722)" fill="#CF2E21"/>
<rect x="1055.61" y="394.957" width="53" height="21" rx="10.5" transform="rotate(100.862 1055.61 394.957)" fill="#751C48"/>
<rect x="170.288" y="203" width="53" height="21" rx="10.5" transform="rotate(35.8139 170.288 203)" fill="#188C7C"/>
<rect x="850.64" y="214.377" width="53" height="21" rx="10.5" transform="rotate(138.33 850.64 214.377)" fill="#E64460"/>
<rect x="400.346" y="53.9741" width="53" height="21" rx="10.5" transform="rotate(-130.393 400.346 53.9741)" fill="#E64460"/>
</svg>
