<svg width="15" height="18" viewBox="0 0 15 18" fill="none" xmlns="http://www.w3.org/2000/svg">
<g clip-path="url(#clip0_2839_5232)">
<path d="M11.0423 3.37402H12.1226C13.0866 3.37402 13.8761 4.26322 13.8761 5.35186V15.6067C13.8761 16.7037 13.0949 17.5846 12.1226 17.5846H2.65727C1.69328 17.5846 0.903809 16.6954 0.903809 15.6067V5.35186C0.903809 4.25491 1.68497 3.37402 2.65727 3.37402H3.82071" stroke="#76808D" stroke-linecap="round" stroke-linejoin="round"/>
<path d="M9.17251 2.11913C9.17251 1.18007 8.40796 0.415527 7.46891 0.415527H7.3027C6.36364 0.415527 5.5991 1.18007 5.5991 2.11913C4.66004 2.11913 3.90381 2.87536 3.90381 3.81442V4.54572H10.8678V3.81442C10.8678 2.87536 10.1116 2.11913 9.17251 2.11913Z" stroke="#76808D" stroke-linecap="round" stroke-linejoin="round"/>
<path d="M3.7959 13.9114H10.9843" stroke="#76808D" stroke-linecap="round" stroke-linejoin="round"/>
<path d="M3.7959 10.8198H10.9843" stroke="#76808D" stroke-linecap="round" stroke-linejoin="round"/>
<path d="M3.7959 7.72852H10.9843" stroke="#76808D" stroke-linecap="round" stroke-linejoin="round"/>
</g>
<defs>
<clipPath id="clip0_2839_5232">
<rect width="13.795" height="18" fill="white" transform="translate(0.488281)"/>
</clipPath>
</defs>
</svg>
