<svg width="47" height="60" viewBox="0 0 47 60" fill="none" xmlns="http://www.w3.org/2000/svg">
<g clip-path="url(#clip0_1997_8484)">
<g clip-path="url(#clip1_1997_8484)">
<path d="M35.18 11.7466H38.7811C41.9944 11.7466 44.626 14.7106 44.626 18.3394V52.5222C44.626 56.1787 42.0221 59.115 38.7811 59.115H7.22988C4.01659 59.115 1.38501 56.151 1.38501 52.5222V18.3394C1.38501 14.6829 3.98889 11.7466 7.22988 11.7466H11.108" stroke="#C94B32" stroke-linecap="round" stroke-linejoin="round"/>
<path d="M28.9473 7.56368C28.9473 4.43349 26.3989 1.88501 23.2687 1.88501H22.7146C19.5845 1.88501 17.036 4.43349 17.036 7.56368C13.9058 7.56368 11.385 10.0845 11.385 13.2147V15.6523H34.5983V13.2147C34.5983 10.0845 32.0775 7.56368 28.9473 7.56368Z" stroke="#C94B32" stroke-linecap="round" stroke-linejoin="round"/>
<path d="M11.0249 46.8712H34.9861" stroke="#C94B32" stroke-linecap="round" stroke-linejoin="round"/>
<path d="M11.0249 36.5665H34.9861" stroke="#C94B32" stroke-linecap="round" stroke-linejoin="round"/>
<path d="M11.0249 26.2617H34.9861" stroke="#C94B32" stroke-linecap="round" stroke-linejoin="round"/>
</g>
</g>
<defs>
<clipPath id="clip0_1997_8484">
<rect width="45.9834" height="60" fill="white" transform="translate(0.508301)"/>
</clipPath>
<clipPath id="clip1_1997_8484">
<rect width="45.9834" height="60" fill="white" transform="translate(0 0.5)"/>
</clipPath>
</defs>
</svg>
