<svg width="20" height="20" viewBox="0 0 20 20" fill="none" xmlns="http://www.w3.org/2000/svg">
<g clip-path="url(#clip0_1844_5161)">
<path d="M7.45088 1.50493L1.50951 7.4463C0.101702 8.85411 0.101702 11.1366 1.50951 12.5444L7.45088 18.4858C8.85869 19.8936 11.1412 19.8936 12.549 18.4858L18.4904 12.5444C19.8982 11.1366 19.8982 8.85411 18.4904 7.4463L12.549 1.50493C11.1412 0.0971235 8.85869 0.0971229 7.45088 1.50493Z" stroke="#76808D" stroke-miterlimit="10" stroke-linecap="round"/>
<path d="M7.45088 1.50493L1.50951 7.4463C0.101702 8.85411 0.101702 11.1366 1.50951 12.5444L7.45088 18.4858C8.85869 19.8936 11.1412 19.8936 12.549 18.4858L18.4904 12.5444C19.8982 11.1366 19.8982 8.85411 18.4904 7.4463L12.549 1.50493C11.1412 0.0971235 8.85869 0.0971229 7.45088 1.50493Z" stroke="#76808D" stroke-miterlimit="10" stroke-linecap="round"/>
<path d="M6.72754 7.57403L6.72754 12.4261C6.72754 12.8937 7.10658 13.2727 7.57415 13.2727L12.4262 13.2727C12.8938 13.2727 13.2728 12.8937 13.2728 12.4261L13.2728 7.57403C13.2728 7.10646 12.8938 6.72742 12.4262 6.72742L7.57415 6.72742C7.10658 6.72742 6.72754 7.10646 6.72754 7.57403Z" stroke="#76808D" stroke-miterlimit="10" stroke-linecap="round"/>
</g>
<defs>
<clipPath id="clip0_1844_5161">
<rect width="20" height="20" fill="white"/>
</clipPath>
</defs>
</svg>
