<svg width="18" height="18" viewBox="0 0 18 18" fill="none" xmlns="http://www.w3.org/2000/svg">
<g clip-path="url(#clip0_2512_11558)">
<path d="M17.591 9.00009C17.591 4.25546 13.7447 0.40918 9.00009 0.40918C4.25546 0.40918 0.40918 4.25546 0.40918 9.00009C0.40918 13.7447 4.25546 17.591 9.00009 17.591C13.7447 17.591 17.591 13.7447 17.591 9.00009Z" stroke="#76808D" stroke-linecap="round" stroke-linejoin="round"/>
<path d="M9.08172 10.5709C10.5774 10.5709 11.7899 9.35841 11.7899 7.86272C11.7899 6.36703 10.5774 5.15454 9.08172 5.15454C7.58603 5.15454 6.37354 6.36703 6.37354 7.86272C6.37354 9.35841 7.58603 10.5709 9.08172 10.5709Z" stroke="#76808D" stroke-miterlimit="10" stroke-linecap="round"/>
<path d="M12.682 16.4535C12.682 14.4245 11.0375 12.7717 9.00018 12.7717C6.9629 12.7717 5.31836 14.4163 5.31836 16.4535" stroke="#76808D" stroke-miterlimit="10" stroke-linecap="round"/>
</g>
<defs>
<clipPath id="clip0_2512_11558">
<rect width="18" height="18" fill="white"/>
</clipPath>
</defs>
</svg>
